G75*
%MOIN*%
%OFA0B0*%
%FSLAX25Y25*%
%IPPOS*%
%LPD*%
%AMOC8*
5,1,8,0,0,1.08239X$1,22.5*
%
%ADD10C,0.05937*%
%ADD11R,0.07400X0.07400*%
%ADD12OC8,0.07400*%
%ADD13C,0.07400*%
%ADD14R,0.05512X0.08268*%
%ADD15R,0.06496X0.06496*%
%ADD16C,0.06496*%
%ADD17C,0.05362*%
%ADD18C,0.00800*%
%ADD19C,0.04500*%
%ADD20C,0.06000*%
D10*
X0277646Y0338114D02*
X0283583Y0338114D01*
X0283583Y0348114D02*
X0277646Y0348114D01*
D11*
X0260437Y0359610D03*
D12*
X0250437Y0359610D03*
X0250437Y0369610D03*
X0260437Y0369610D03*
X0260437Y0379610D03*
X0250437Y0379610D03*
D13*
X0220004Y0377484D03*
X0220004Y0367484D03*
X0220004Y0357484D03*
X0220004Y0347484D03*
X0220004Y0337484D03*
X0220004Y0327484D03*
X0456224Y0327484D03*
X0456224Y0337484D03*
X0456224Y0347484D03*
X0456224Y0357484D03*
X0456224Y0367484D03*
X0456224Y0377484D03*
D14*
X0406028Y0296972D03*
X0388311Y0296972D03*
X0388311Y0261146D03*
X0406028Y0261146D03*
X0287917Y0261146D03*
X0270201Y0261146D03*
X0270201Y0296972D03*
X0287917Y0296972D03*
D15*
X0255437Y0306618D03*
X0238114Y0238114D03*
X0358162Y0288196D03*
X0438114Y0238114D03*
X0255437Y0412917D03*
X0238114Y0438114D03*
X0438114Y0438114D03*
D16*
X0428114Y0438114D03*
X0348162Y0288196D03*
X0338162Y0288196D03*
X0328162Y0288196D03*
X0318162Y0288196D03*
X0265437Y0306618D03*
X0248114Y0238114D03*
X0265437Y0412917D03*
X0275437Y0412917D03*
X0228114Y0438114D03*
X0448114Y0238114D03*
D17*
X0122614Y0132114D03*
X0288214Y0278614D03*
X0388314Y0279214D03*
X0368214Y0425814D03*
X0368814Y0435614D03*
X0355831Y0430634D03*
X0327287Y0439524D03*
X0321366Y0439524D03*
X0315445Y0439524D03*
X0312524Y0433571D03*
X0132114Y0553614D03*
X0553614Y0544114D03*
D18*
X0428114Y0438114D02*
X0409525Y0422114D01*
X0312914Y0422114D01*
X0292264Y0401464D01*
X0264964Y0401464D01*
X0259364Y0395864D01*
X0256214Y0395864D01*
X0254114Y0393764D01*
X0254114Y0390964D01*
X0256214Y0388864D01*
X0256214Y0382214D01*
X0255514Y0381514D01*
X0255514Y0377664D01*
X0258314Y0374864D01*
X0262164Y0374864D01*
X0267214Y0369814D01*
X0281864Y0369814D01*
X0287564Y0352814D02*
X0264264Y0352814D01*
X0261114Y0349664D01*
X0261114Y0312214D01*
X0260414Y0311514D01*
X0260414Y0283864D01*
X0248114Y0271564D01*
X0248114Y0238114D01*
X0270201Y0261146D02*
X0270214Y0261464D01*
X0270214Y0269164D01*
X0260414Y0278964D01*
X0260414Y0281764D01*
X0270214Y0291564D01*
X0270214Y0296814D01*
X0270201Y0296972D01*
X0287917Y0296972D02*
X0288214Y0296676D01*
X0288214Y0281764D01*
X0362764Y0281764D01*
X0366514Y0285514D01*
X0366514Y0382014D01*
X0364014Y0385714D02*
X0375014Y0385714D01*
X0379064Y0381664D01*
X0379064Y0335664D01*
X0448114Y0266614D01*
X0448114Y0238114D01*
X0406028Y0261146D02*
X0406014Y0261464D01*
X0406014Y0296814D01*
X0406028Y0296972D01*
X0406014Y0297164D01*
X0406014Y0306614D01*
X0375214Y0337414D01*
X0375114Y0337614D01*
X0367914Y0320214D02*
X0385714Y0302414D01*
X0387814Y0302414D01*
X0388164Y0302064D01*
X0388164Y0297164D01*
X0388311Y0296972D01*
X0388314Y0296914D01*
X0388314Y0279214D01*
X0388314Y0261149D01*
X0388311Y0261146D01*
X0358064Y0288064D02*
X0353164Y0283164D01*
X0337064Y0283164D01*
X0332410Y0287818D01*
X0332410Y0289956D01*
X0324914Y0297452D01*
X0324914Y0351064D01*
X0328214Y0354364D01*
X0328214Y0364464D01*
X0308464Y0384214D01*
X0296064Y0384214D01*
X0296114Y0389814D02*
X0306114Y0389814D01*
X0341714Y0354214D01*
X0347045Y0348883D01*
X0348861Y0348883D01*
X0349314Y0348430D01*
X0349314Y0299264D01*
X0338464Y0288414D01*
X0338162Y0288196D01*
X0358064Y0288064D02*
X0358162Y0288196D01*
X0367914Y0320214D02*
X0367914Y0376814D01*
X0373064Y0381964D01*
X0364014Y0385714D02*
X0344264Y0365964D01*
X0335264Y0365964D01*
X0316064Y0395864D02*
X0311864Y0400064D01*
X0311864Y0416164D01*
X0311864Y0400064D02*
X0265664Y0400064D01*
X0257964Y0392364D01*
X0257614Y0392364D01*
X0257614Y0382564D01*
X0260414Y0379764D01*
X0260437Y0379610D01*
X0254814Y0383964D02*
X0254814Y0388164D01*
X0252714Y0390264D01*
X0252714Y0394464D01*
X0255514Y0397264D01*
X0258664Y0397264D01*
X0265314Y0403914D01*
X0265314Y0412664D01*
X0265437Y0412917D01*
X0254814Y0383964D02*
X0250614Y0379764D01*
X0250437Y0379610D01*
X0287564Y0352814D02*
X0299564Y0364814D01*
X0311414Y0335014D02*
X0320214Y0335014D01*
X0288214Y0281764D02*
X0288214Y0278614D01*
X0288214Y0264214D01*
X0287914Y0263914D01*
X0287914Y0261214D01*
X0287917Y0261146D01*
X0316064Y0395864D02*
X0447114Y0395864D01*
X0368814Y0426414D02*
X0368214Y0425814D01*
X0368814Y0426414D02*
X0368814Y0435614D01*
D19*
X0366514Y0382014D03*
X0373064Y0381964D03*
X0383214Y0381714D03*
X0341714Y0354214D03*
X0335264Y0365964D03*
X0328214Y0354364D03*
X0320214Y0335014D03*
X0311414Y0335014D03*
X0299564Y0364814D03*
X0281864Y0369814D03*
X0296064Y0384214D03*
X0296114Y0389814D03*
X0311864Y0416164D03*
X0257614Y0392364D03*
X0229614Y0309064D03*
X0260414Y0278964D03*
X0279414Y0295464D03*
X0375114Y0337614D03*
X0447114Y0395864D03*
X0421764Y0447314D03*
X0544114Y0122614D03*
D20*
X0280614Y0348114D02*
X0265437Y0348114D01*
X0265437Y0306618D01*
M02*
