%
M48
M72
T01C0.01500
T02C0.02362
T03C0.03937
T04C0.04000
T05C0.04331
T06C0.05512
T07C0.09843
%
T01
X260414Y278964
X279414Y295464
X311414Y335014
X320214Y335014
X328214Y354364
X341714Y354214
X335264Y365964
X366514Y382014
X373064Y381964
X383214Y381714
X375114Y337614
X299564Y364814
X281864Y369814
X296064Y384214
X296114Y389814
X311864Y416164
X257614Y392364
X229614Y309064
X421764Y447314
X447114Y395864
X544114Y122614
T02
X122614Y132114
X288214Y278614
X388314Y279214
X368214Y425814
X368814Y435614
X355831Y430634
X327287Y439524
X321366Y439524
X315445Y439524
X312524Y433571
X132114Y553614
X553614Y544114
T03
X280614Y348114
X280614Y338114
T04
X260437Y359610
X250437Y359610
X250437Y369610
X260437Y369610
X260437Y379610
X250437Y379610
X220004Y377484
X220004Y367484
X220004Y357484
X220004Y347484
X220004Y337484
X220004Y327484
X456224Y327484
X456224Y337484
X456224Y347484
X456224Y357484
X456224Y367484
X456224Y377484
T05
X438114Y438114
X428114Y438114
X358162Y288196
X348162Y288196
X338162Y288196
X328162Y288196
X318162Y288196
X265437Y306618
X255437Y306618
X248114Y238114
X238114Y238114
X255437Y412917
X265437Y412917
X275437Y412917
X238114Y438114
X228114Y438114
X438114Y238114
X448114Y238114
T06
X385555Y309177
X385555Y367051
X290673Y367051
X290673Y309177
T07
X251500Y330240
X251500Y345988
X424728Y345988
X424728Y330240
M30
