G75*
%MOIN*%
%OFA0B0*%
%FSLAX25Y25*%
%IPPOS*%
%LPD*%
%AMOC8*
5,1,8,0,0,1.08239X$1,22.5*
%
%ADD10C,0.01600*%
%ADD11C,0.00000*%
%ADD12C,0.00500*%
%ADD13C,0.00400*%
%ADD14C,0.00472*%
%ADD15C,0.01575*%
%ADD16C,0.00787*%
D10*
X0106540Y0093548D02*
X0106938Y0093473D01*
X0107338Y0093409D01*
X0107740Y0093354D01*
X0108143Y0093308D01*
X0108547Y0093273D01*
X0108952Y0093248D01*
X0109357Y0093232D01*
X0109763Y0093227D01*
X0110168Y0093232D01*
X0110573Y0093246D01*
X0110978Y0093270D01*
X0111382Y0093305D01*
X0111785Y0093349D01*
X0112187Y0093403D01*
X0112588Y0093467D01*
X0112987Y0093540D01*
X0113383Y0093624D01*
X0113778Y0093717D01*
X0114170Y0093820D01*
X0114560Y0093932D01*
X0114947Y0094054D01*
X0115330Y0094186D01*
X0115711Y0094326D01*
X0116087Y0094476D01*
X0116460Y0094636D01*
X0116829Y0094804D01*
X0117194Y0094981D01*
X0117554Y0095167D01*
X0117910Y0095362D01*
X0118261Y0095566D01*
X0118606Y0095778D01*
X0118946Y0095999D01*
X0119281Y0096228D01*
X0119610Y0096465D01*
X0119933Y0096710D01*
X0120250Y0096963D01*
X0120561Y0097223D01*
X0120865Y0097491D01*
X0121163Y0097767D01*
X0121454Y0098049D01*
X0121738Y0098339D01*
X0122014Y0098636D01*
X0122283Y0098939D01*
X0122545Y0099249D01*
X0122799Y0099565D01*
X0123045Y0099887D01*
X0123283Y0100215D01*
X0123513Y0100549D01*
X0123735Y0100889D01*
X0123949Y0101234D01*
X0124153Y0101584D01*
X0124350Y0101939D01*
X0124537Y0102298D01*
X0124716Y0102662D01*
X0124885Y0103031D01*
X0125046Y0103403D01*
X0125197Y0103779D01*
X0125339Y0104159D01*
X0125472Y0104542D01*
X0125596Y0104928D01*
X0125709Y0105318D01*
X0125814Y0105710D01*
X0125908Y0106104D01*
X0125993Y0106501D01*
X0126068Y0106899D01*
X0126133Y0107299D01*
X0126189Y0107701D01*
X0126235Y0108104D01*
X0126270Y0108508D01*
X0126296Y0108913D01*
X0126312Y0109318D01*
X0126318Y0109723D01*
X0126314Y0110129D01*
X0126300Y0110534D01*
X0126276Y0110939D01*
X0126242Y0111343D01*
X0126199Y0111746D01*
X0126145Y0112148D01*
X0126082Y0112549D01*
X0126008Y0112948D01*
X0125925Y0113344D01*
X0125833Y0113739D01*
X0125730Y0114132D01*
X0125619Y0114521D01*
X0125497Y0114908D01*
X0125366Y0115292D01*
X0125226Y0115673D01*
X0125076Y0116050D01*
X0124918Y0116423D01*
X0124750Y0116792D01*
X0124573Y0117157D01*
X0124387Y0117517D01*
X0124193Y0117873D01*
X0123989Y0118224D01*
X0123778Y0118570D01*
X0123557Y0118910D01*
X0123329Y0119246D01*
X0123092Y0119575D01*
X0122848Y0119898D01*
X0122595Y0120216D01*
X0122335Y0120527D01*
X0122067Y0120831D01*
X0121792Y0121129D01*
X0121510Y0121420D01*
X0121221Y0121704D01*
X0120924Y0121981D01*
X0120621Y0122251D01*
X0120312Y0122513D01*
X0119996Y0122767D01*
X0119674Y0123014D01*
X0119346Y0123252D01*
X0119013Y0123483D01*
X0118673Y0123705D01*
X0118329Y0123919D01*
X0117979Y0124124D01*
X0117624Y0124321D01*
X0117265Y0124509D01*
X0116901Y0124688D01*
X0116533Y0124858D01*
X0116161Y0125019D01*
X0115785Y0125171D01*
X0115405Y0125314D01*
X0115022Y0125447D01*
X0114636Y0125571D01*
X0114247Y0125685D01*
X0113855Y0125789D01*
X0113461Y0125885D01*
X0113065Y0125970D01*
X0112666Y0126046D01*
X0112266Y0126111D01*
X0111864Y0126167D01*
X0111461Y0126213D01*
X0111058Y0126250D01*
X0110653Y0126276D01*
X0110248Y0126292D01*
X0109842Y0126299D01*
X0109437Y0126295D01*
X0109031Y0126282D01*
X0108627Y0126259D01*
X0108222Y0126225D01*
X0107819Y0126182D01*
X0107417Y0126129D01*
X0107016Y0126066D01*
X0106618Y0125993D01*
X0106220Y0125911D01*
X0105826Y0125819D01*
X0105433Y0125717D01*
X0105043Y0125605D01*
X0104656Y0125484D01*
X0104272Y0125354D01*
X0103891Y0125214D01*
X0103514Y0125065D01*
X0103141Y0124907D01*
X0102772Y0124739D01*
X0102406Y0124563D01*
X0102046Y0124378D01*
X0101690Y0124184D01*
X0101338Y0123981D01*
X0100992Y0123769D01*
X0100652Y0123550D01*
X0100316Y0123322D01*
X0099987Y0123086D01*
X0099663Y0122841D01*
X0099345Y0122589D01*
X0099034Y0122329D01*
X0098729Y0122062D01*
X0098431Y0121787D01*
X0098139Y0121505D01*
X0097855Y0121216D01*
X0097577Y0120920D01*
X0097308Y0120618D01*
X0097045Y0120309D01*
X0096790Y0119993D01*
X0096543Y0119671D01*
X0096304Y0119344D01*
X0096073Y0119010D01*
X0095851Y0118672D01*
X0095637Y0118327D01*
X0095431Y0117978D01*
X0095234Y0117623D01*
X0095045Y0117264D01*
X0094866Y0116901D01*
X0094695Y0116533D01*
X0094534Y0116161D01*
X0094381Y0115785D01*
X0094238Y0115405D01*
X0094105Y0115023D01*
X0093980Y0114637D01*
X0093866Y0114248D01*
X0093761Y0113856D01*
X0093665Y0113462D01*
X0093579Y0113066D01*
X0093503Y0112667D01*
X0093437Y0112267D01*
X0093380Y0111866D01*
X0093334Y0111463D01*
X0093297Y0111059D01*
X0093270Y0110654D01*
X0093253Y0110249D01*
X0093246Y0109844D01*
X0093249Y0109438D01*
X0093262Y0109033D01*
X0093285Y0108628D01*
X0093318Y0108224D01*
X0093361Y0107820D01*
X0093413Y0107418D01*
X0093475Y0107018D01*
X0093548Y0106619D01*
X0094020Y0105831D02*
X0093733Y0106028D01*
X0093450Y0106232D01*
X0093172Y0106442D01*
X0092900Y0106660D01*
X0092633Y0106884D01*
X0092372Y0107114D01*
X0092117Y0107351D01*
X0091867Y0107594D01*
X0091624Y0107843D01*
X0091386Y0108098D01*
X0091155Y0108359D01*
X0090931Y0108625D01*
X0090713Y0108897D01*
X0090501Y0109174D01*
X0090297Y0109456D01*
X0090100Y0109743D01*
X0089909Y0110035D01*
X0089726Y0110332D01*
X0089550Y0110632D01*
X0089382Y0110937D01*
X0089221Y0111247D01*
X0089068Y0111559D01*
X0088923Y0111876D01*
X0088785Y0112196D01*
X0088656Y0112519D01*
X0088534Y0112846D01*
X0088420Y0113175D01*
X0088315Y0113507D01*
X0088217Y0113842D01*
X0088128Y0114178D01*
X0088047Y0114517D01*
X0087975Y0114858D01*
X0087911Y0115201D01*
X0087855Y0115544D01*
X0087808Y0115890D01*
X0087769Y0116236D01*
X0087739Y0116583D01*
X0087717Y0116931D01*
X0087704Y0117279D01*
X0087699Y0117627D01*
X0087703Y0117976D01*
X0087715Y0118324D01*
X0087736Y0118671D01*
X0087766Y0119019D01*
X0087804Y0119365D01*
X0087850Y0119710D01*
X0087905Y0120054D01*
X0087969Y0120397D01*
X0088041Y0120738D01*
X0088121Y0121077D01*
X0088209Y0121414D01*
X0088306Y0121748D01*
X0088411Y0122081D01*
X0088524Y0122410D01*
X0088645Y0122737D01*
X0088774Y0123060D01*
X0088911Y0123381D01*
X0089056Y0123698D01*
X0089208Y0124011D01*
X0089368Y0124320D01*
X0089536Y0124626D01*
X0089711Y0124927D01*
X0089893Y0125224D01*
X0090083Y0125516D01*
X0157012Y0192445D01*
X0192445Y0157012D02*
X0125516Y0090083D01*
X0125228Y0089896D01*
X0124936Y0089716D01*
X0124640Y0089544D01*
X0124339Y0089378D01*
X0124035Y0089220D01*
X0123727Y0089069D01*
X0123415Y0088926D01*
X0123100Y0088790D01*
X0122782Y0088662D01*
X0122461Y0088542D01*
X0122137Y0088429D01*
X0121810Y0088325D01*
X0121481Y0088228D01*
X0121149Y0088139D01*
X0120816Y0088058D01*
X0120481Y0087986D01*
X0120144Y0087921D01*
X0119806Y0087865D01*
X0119466Y0087817D01*
X0119125Y0087777D01*
X0118784Y0087745D01*
X0118441Y0087722D01*
X0118099Y0087706D01*
X0117756Y0087699D01*
X0117413Y0087701D01*
X0117070Y0087711D01*
X0116727Y0087729D01*
X0116385Y0087755D01*
X0116044Y0087789D01*
X0115704Y0087832D01*
X0115364Y0087883D01*
X0115027Y0087942D01*
X0114690Y0088009D01*
X0114356Y0088085D01*
X0114023Y0088168D01*
X0113692Y0088260D01*
X0113364Y0088359D01*
X0113038Y0088466D01*
X0112715Y0088582D01*
X0112395Y0088704D01*
X0112078Y0088835D01*
X0111764Y0088973D01*
X0111453Y0089119D01*
X0111146Y0089272D01*
X0110843Y0089433D01*
X0110544Y0089601D01*
X0110249Y0089776D01*
X0109958Y0089958D01*
X0109672Y0090147D01*
X0109391Y0090343D01*
X0109114Y0090546D01*
X0108842Y0090756D01*
X0108576Y0090972D01*
X0108314Y0091194D01*
X0108059Y0091422D01*
X0107808Y0091657D01*
X0107564Y0091898D01*
X0107325Y0092144D01*
X0107093Y0092396D01*
X0106866Y0092654D01*
X0106646Y0092917D01*
X0106432Y0093185D01*
X0106225Y0093459D01*
X0106025Y0093737D01*
X0105831Y0094020D01*
X0192445Y0157013D02*
X0197571Y0160510D01*
X0202781Y0163880D01*
X0208072Y0167122D01*
X0213441Y0170235D01*
X0218884Y0173215D01*
X0224398Y0176061D01*
X0229980Y0178771D01*
X0235627Y0181345D01*
X0241335Y0183779D01*
X0247100Y0186074D01*
X0252920Y0188227D01*
X0258791Y0190237D01*
X0264709Y0192103D01*
X0270672Y0193823D01*
X0276674Y0195398D01*
X0282713Y0196826D01*
X0288785Y0198105D01*
X0294886Y0199236D01*
X0301014Y0200218D01*
X0307163Y0201049D01*
X0313331Y0201730D01*
X0319514Y0202260D01*
X0325708Y0202639D01*
X0331909Y0202866D01*
X0338114Y0202942D01*
X0344319Y0202866D01*
X0350520Y0202639D01*
X0356714Y0202260D01*
X0362897Y0201730D01*
X0369065Y0201049D01*
X0375214Y0200218D01*
X0381342Y0199236D01*
X0387443Y0198105D01*
X0393515Y0196826D01*
X0399554Y0195398D01*
X0405556Y0193823D01*
X0411519Y0192103D01*
X0417437Y0190237D01*
X0423308Y0188227D01*
X0429128Y0186074D01*
X0434893Y0183779D01*
X0440601Y0181345D01*
X0446248Y0178771D01*
X0451830Y0176061D01*
X0457344Y0173215D01*
X0462787Y0170235D01*
X0468156Y0167122D01*
X0473447Y0163880D01*
X0478657Y0160510D01*
X0483783Y0157013D01*
X0483783Y0157012D02*
X0550713Y0090083D01*
X0551001Y0089896D01*
X0551293Y0089716D01*
X0551589Y0089544D01*
X0551890Y0089378D01*
X0552194Y0089220D01*
X0552502Y0089069D01*
X0552814Y0088926D01*
X0553129Y0088790D01*
X0553447Y0088662D01*
X0553768Y0088542D01*
X0554092Y0088429D01*
X0554419Y0088325D01*
X0554748Y0088228D01*
X0555080Y0088139D01*
X0555413Y0088058D01*
X0555748Y0087986D01*
X0556085Y0087921D01*
X0556423Y0087865D01*
X0556763Y0087817D01*
X0557104Y0087777D01*
X0557445Y0087745D01*
X0557788Y0087722D01*
X0558130Y0087706D01*
X0558473Y0087699D01*
X0558816Y0087701D01*
X0559159Y0087711D01*
X0559502Y0087729D01*
X0559844Y0087755D01*
X0560185Y0087789D01*
X0560525Y0087832D01*
X0560865Y0087883D01*
X0561202Y0087942D01*
X0561539Y0088009D01*
X0561873Y0088085D01*
X0562206Y0088168D01*
X0562537Y0088260D01*
X0562865Y0088359D01*
X0563191Y0088466D01*
X0563514Y0088582D01*
X0563834Y0088704D01*
X0564151Y0088835D01*
X0564465Y0088973D01*
X0564776Y0089119D01*
X0565083Y0089272D01*
X0565386Y0089433D01*
X0565685Y0089601D01*
X0565980Y0089776D01*
X0566271Y0089958D01*
X0566557Y0090147D01*
X0566838Y0090343D01*
X0567115Y0090546D01*
X0567387Y0090756D01*
X0567653Y0090972D01*
X0567915Y0091194D01*
X0568170Y0091422D01*
X0568421Y0091657D01*
X0568665Y0091898D01*
X0568904Y0092144D01*
X0569136Y0092396D01*
X0569363Y0092654D01*
X0569583Y0092917D01*
X0569797Y0093185D01*
X0570004Y0093459D01*
X0570204Y0093737D01*
X0570398Y0094020D01*
X0569610Y0093548D02*
X0569211Y0093475D01*
X0568811Y0093413D01*
X0568409Y0093361D01*
X0568005Y0093318D01*
X0567601Y0093285D01*
X0567196Y0093262D01*
X0566791Y0093249D01*
X0566385Y0093246D01*
X0565980Y0093253D01*
X0565575Y0093270D01*
X0565170Y0093297D01*
X0564766Y0093334D01*
X0564363Y0093380D01*
X0563962Y0093437D01*
X0563562Y0093503D01*
X0563163Y0093579D01*
X0562767Y0093665D01*
X0562373Y0093761D01*
X0561981Y0093866D01*
X0561592Y0093980D01*
X0561206Y0094105D01*
X0560824Y0094238D01*
X0560444Y0094381D01*
X0560068Y0094534D01*
X0559696Y0094695D01*
X0559328Y0094866D01*
X0558965Y0095045D01*
X0558606Y0095234D01*
X0558251Y0095431D01*
X0557902Y0095637D01*
X0557557Y0095851D01*
X0557219Y0096073D01*
X0556885Y0096304D01*
X0556558Y0096543D01*
X0556236Y0096790D01*
X0555920Y0097045D01*
X0555611Y0097308D01*
X0555309Y0097577D01*
X0555013Y0097855D01*
X0554724Y0098139D01*
X0554442Y0098431D01*
X0554167Y0098729D01*
X0553900Y0099034D01*
X0553640Y0099345D01*
X0553388Y0099663D01*
X0553143Y0099987D01*
X0552907Y0100316D01*
X0552679Y0100652D01*
X0552460Y0100992D01*
X0552248Y0101338D01*
X0552045Y0101690D01*
X0551851Y0102046D01*
X0551666Y0102406D01*
X0551490Y0102772D01*
X0551322Y0103141D01*
X0551164Y0103514D01*
X0551015Y0103891D01*
X0550875Y0104272D01*
X0550745Y0104656D01*
X0550624Y0105043D01*
X0550512Y0105433D01*
X0550410Y0105826D01*
X0550318Y0106220D01*
X0550236Y0106618D01*
X0550163Y0107016D01*
X0550100Y0107417D01*
X0550047Y0107819D01*
X0550004Y0108222D01*
X0549970Y0108627D01*
X0549947Y0109031D01*
X0549934Y0109437D01*
X0549930Y0109842D01*
X0549937Y0110248D01*
X0549953Y0110653D01*
X0549979Y0111058D01*
X0550016Y0111461D01*
X0550062Y0111864D01*
X0550118Y0112266D01*
X0550183Y0112666D01*
X0550259Y0113065D01*
X0550344Y0113461D01*
X0550440Y0113855D01*
X0550544Y0114247D01*
X0550658Y0114636D01*
X0550782Y0115022D01*
X0550915Y0115405D01*
X0551058Y0115785D01*
X0551210Y0116161D01*
X0551371Y0116533D01*
X0551541Y0116901D01*
X0551720Y0117265D01*
X0551908Y0117624D01*
X0552105Y0117979D01*
X0552310Y0118329D01*
X0552524Y0118673D01*
X0552746Y0119013D01*
X0552977Y0119346D01*
X0553215Y0119674D01*
X0553462Y0119996D01*
X0553716Y0120312D01*
X0553978Y0120621D01*
X0554248Y0120924D01*
X0554525Y0121221D01*
X0554809Y0121510D01*
X0555100Y0121792D01*
X0555398Y0122067D01*
X0555702Y0122335D01*
X0556013Y0122595D01*
X0556331Y0122848D01*
X0556654Y0123092D01*
X0556983Y0123329D01*
X0557319Y0123557D01*
X0557659Y0123778D01*
X0558005Y0123989D01*
X0558356Y0124193D01*
X0558712Y0124387D01*
X0559072Y0124573D01*
X0559437Y0124750D01*
X0559806Y0124918D01*
X0560179Y0125076D01*
X0560556Y0125226D01*
X0560937Y0125366D01*
X0561321Y0125497D01*
X0561708Y0125619D01*
X0562097Y0125730D01*
X0562490Y0125833D01*
X0562885Y0125925D01*
X0563281Y0126008D01*
X0563680Y0126082D01*
X0564081Y0126145D01*
X0564483Y0126199D01*
X0564886Y0126242D01*
X0565290Y0126276D01*
X0565695Y0126300D01*
X0566100Y0126314D01*
X0566506Y0126318D01*
X0566911Y0126312D01*
X0567316Y0126296D01*
X0567721Y0126270D01*
X0568125Y0126235D01*
X0568528Y0126189D01*
X0568930Y0126133D01*
X0569330Y0126068D01*
X0569728Y0125993D01*
X0570125Y0125908D01*
X0570519Y0125814D01*
X0570911Y0125709D01*
X0571301Y0125596D01*
X0571687Y0125472D01*
X0572070Y0125339D01*
X0572450Y0125197D01*
X0572826Y0125046D01*
X0573198Y0124885D01*
X0573567Y0124716D01*
X0573931Y0124537D01*
X0574290Y0124350D01*
X0574645Y0124153D01*
X0574995Y0123949D01*
X0575340Y0123735D01*
X0575680Y0123513D01*
X0576014Y0123283D01*
X0576342Y0123045D01*
X0576664Y0122799D01*
X0576980Y0122545D01*
X0577290Y0122283D01*
X0577593Y0122014D01*
X0577890Y0121738D01*
X0578180Y0121454D01*
X0578462Y0121163D01*
X0578738Y0120865D01*
X0579006Y0120561D01*
X0579266Y0120250D01*
X0579519Y0119933D01*
X0579764Y0119610D01*
X0580001Y0119281D01*
X0580230Y0118946D01*
X0580451Y0118606D01*
X0580663Y0118261D01*
X0580867Y0117910D01*
X0581062Y0117554D01*
X0581248Y0117194D01*
X0581425Y0116829D01*
X0581593Y0116460D01*
X0581753Y0116087D01*
X0581903Y0115711D01*
X0582043Y0115330D01*
X0582175Y0114947D01*
X0582297Y0114560D01*
X0582409Y0114170D01*
X0582512Y0113778D01*
X0582605Y0113383D01*
X0582689Y0112987D01*
X0582762Y0112588D01*
X0582826Y0112187D01*
X0582880Y0111785D01*
X0582924Y0111382D01*
X0582959Y0110978D01*
X0582983Y0110573D01*
X0582997Y0110168D01*
X0583002Y0109763D01*
X0582997Y0109357D01*
X0582981Y0108952D01*
X0582956Y0108547D01*
X0582921Y0108143D01*
X0582875Y0107740D01*
X0582820Y0107338D01*
X0582756Y0106938D01*
X0582681Y0106540D01*
X0582209Y0105831D02*
X0582492Y0106025D01*
X0582770Y0106225D01*
X0583044Y0106432D01*
X0583312Y0106646D01*
X0583575Y0106866D01*
X0583833Y0107093D01*
X0584085Y0107325D01*
X0584331Y0107564D01*
X0584572Y0107808D01*
X0584807Y0108059D01*
X0585035Y0108314D01*
X0585257Y0108576D01*
X0585473Y0108842D01*
X0585683Y0109114D01*
X0585886Y0109391D01*
X0586082Y0109672D01*
X0586271Y0109958D01*
X0586453Y0110249D01*
X0586628Y0110544D01*
X0586796Y0110843D01*
X0586957Y0111146D01*
X0587110Y0111453D01*
X0587256Y0111764D01*
X0587394Y0112078D01*
X0587525Y0112395D01*
X0587647Y0112715D01*
X0587763Y0113038D01*
X0587870Y0113364D01*
X0587969Y0113692D01*
X0588061Y0114023D01*
X0588144Y0114356D01*
X0588220Y0114690D01*
X0588287Y0115027D01*
X0588346Y0115364D01*
X0588397Y0115704D01*
X0588440Y0116044D01*
X0588474Y0116385D01*
X0588500Y0116727D01*
X0588518Y0117070D01*
X0588528Y0117413D01*
X0588530Y0117756D01*
X0588523Y0118099D01*
X0588507Y0118441D01*
X0588484Y0118784D01*
X0588452Y0119125D01*
X0588412Y0119466D01*
X0588364Y0119806D01*
X0588308Y0120144D01*
X0588243Y0120481D01*
X0588171Y0120816D01*
X0588090Y0121149D01*
X0588001Y0121481D01*
X0587904Y0121810D01*
X0587800Y0122137D01*
X0587687Y0122461D01*
X0587567Y0122782D01*
X0587439Y0123100D01*
X0587303Y0123415D01*
X0587160Y0123727D01*
X0587009Y0124035D01*
X0586851Y0124339D01*
X0586685Y0124640D01*
X0586513Y0124936D01*
X0586333Y0125228D01*
X0586146Y0125516D01*
X0519217Y0192445D01*
X0519216Y0192445D02*
X0515719Y0197571D01*
X0512349Y0202781D01*
X0509107Y0208072D01*
X0505994Y0213441D01*
X0503014Y0218884D01*
X0500168Y0224398D01*
X0497458Y0229980D01*
X0494884Y0235627D01*
X0492450Y0241335D01*
X0490155Y0247100D01*
X0488002Y0252920D01*
X0485992Y0258791D01*
X0484126Y0264709D01*
X0482406Y0270672D01*
X0480831Y0276674D01*
X0479403Y0282713D01*
X0478124Y0288785D01*
X0476993Y0294886D01*
X0476011Y0301014D01*
X0475180Y0307163D01*
X0474499Y0313331D01*
X0473969Y0319514D01*
X0473590Y0325708D01*
X0473363Y0331909D01*
X0473287Y0338114D01*
X0473363Y0344319D01*
X0473590Y0350520D01*
X0473969Y0356714D01*
X0474499Y0362897D01*
X0475180Y0369065D01*
X0476011Y0375214D01*
X0476993Y0381342D01*
X0478124Y0387443D01*
X0479403Y0393515D01*
X0480831Y0399554D01*
X0482406Y0405556D01*
X0484126Y0411519D01*
X0485992Y0417437D01*
X0488002Y0423308D01*
X0490155Y0429128D01*
X0492450Y0434893D01*
X0494884Y0440601D01*
X0497458Y0446248D01*
X0500168Y0451830D01*
X0503014Y0457344D01*
X0505994Y0462787D01*
X0509107Y0468156D01*
X0512349Y0473447D01*
X0515719Y0478657D01*
X0519216Y0483783D01*
X0519217Y0483783D02*
X0586146Y0550713D01*
X0586333Y0551001D01*
X0586513Y0551293D01*
X0586685Y0551589D01*
X0586851Y0551890D01*
X0587009Y0552194D01*
X0587160Y0552502D01*
X0587303Y0552814D01*
X0587439Y0553129D01*
X0587567Y0553447D01*
X0587687Y0553768D01*
X0587800Y0554092D01*
X0587904Y0554419D01*
X0588001Y0554748D01*
X0588090Y0555080D01*
X0588171Y0555413D01*
X0588243Y0555748D01*
X0588308Y0556085D01*
X0588364Y0556423D01*
X0588412Y0556763D01*
X0588452Y0557104D01*
X0588484Y0557445D01*
X0588507Y0557788D01*
X0588523Y0558130D01*
X0588530Y0558473D01*
X0588528Y0558816D01*
X0588518Y0559159D01*
X0588500Y0559502D01*
X0588474Y0559844D01*
X0588440Y0560185D01*
X0588397Y0560525D01*
X0588346Y0560865D01*
X0588287Y0561202D01*
X0588220Y0561539D01*
X0588144Y0561873D01*
X0588061Y0562206D01*
X0587969Y0562537D01*
X0587870Y0562865D01*
X0587763Y0563191D01*
X0587647Y0563514D01*
X0587525Y0563834D01*
X0587394Y0564151D01*
X0587256Y0564465D01*
X0587110Y0564776D01*
X0586957Y0565083D01*
X0586796Y0565386D01*
X0586628Y0565685D01*
X0586453Y0565980D01*
X0586271Y0566271D01*
X0586082Y0566557D01*
X0585886Y0566838D01*
X0585683Y0567115D01*
X0585473Y0567387D01*
X0585257Y0567653D01*
X0585035Y0567915D01*
X0584807Y0568170D01*
X0584572Y0568421D01*
X0584331Y0568665D01*
X0584085Y0568904D01*
X0583833Y0569136D01*
X0583575Y0569363D01*
X0583312Y0569583D01*
X0583044Y0569797D01*
X0582770Y0570004D01*
X0582492Y0570204D01*
X0582209Y0570398D01*
X0582680Y0569610D02*
X0582753Y0569211D01*
X0582815Y0568811D01*
X0582867Y0568409D01*
X0582910Y0568005D01*
X0582943Y0567601D01*
X0582966Y0567196D01*
X0582979Y0566791D01*
X0582982Y0566385D01*
X0582975Y0565980D01*
X0582958Y0565575D01*
X0582931Y0565170D01*
X0582894Y0564766D01*
X0582848Y0564363D01*
X0582791Y0563962D01*
X0582725Y0563562D01*
X0582649Y0563163D01*
X0582563Y0562767D01*
X0582467Y0562373D01*
X0582362Y0561981D01*
X0582248Y0561592D01*
X0582123Y0561206D01*
X0581990Y0560824D01*
X0581847Y0560444D01*
X0581694Y0560068D01*
X0581533Y0559696D01*
X0581362Y0559328D01*
X0581183Y0558965D01*
X0580994Y0558606D01*
X0580797Y0558251D01*
X0580591Y0557902D01*
X0580377Y0557557D01*
X0580155Y0557219D01*
X0579924Y0556885D01*
X0579685Y0556558D01*
X0579438Y0556236D01*
X0579183Y0555920D01*
X0578920Y0555611D01*
X0578651Y0555309D01*
X0578373Y0555013D01*
X0578089Y0554724D01*
X0577797Y0554442D01*
X0577499Y0554167D01*
X0577194Y0553900D01*
X0576883Y0553640D01*
X0576565Y0553388D01*
X0576241Y0553143D01*
X0575912Y0552907D01*
X0575576Y0552679D01*
X0575236Y0552460D01*
X0574890Y0552248D01*
X0574538Y0552045D01*
X0574182Y0551851D01*
X0573822Y0551666D01*
X0573456Y0551490D01*
X0573087Y0551322D01*
X0572714Y0551164D01*
X0572337Y0551015D01*
X0571956Y0550875D01*
X0571572Y0550745D01*
X0571185Y0550624D01*
X0570795Y0550512D01*
X0570402Y0550410D01*
X0570008Y0550318D01*
X0569610Y0550236D01*
X0569212Y0550163D01*
X0568811Y0550100D01*
X0568409Y0550047D01*
X0568006Y0550004D01*
X0567601Y0549970D01*
X0567197Y0549947D01*
X0566791Y0549934D01*
X0566386Y0549930D01*
X0565980Y0549937D01*
X0565575Y0549953D01*
X0565170Y0549979D01*
X0564767Y0550016D01*
X0564364Y0550062D01*
X0563962Y0550118D01*
X0563562Y0550183D01*
X0563163Y0550259D01*
X0562767Y0550344D01*
X0562373Y0550440D01*
X0561981Y0550544D01*
X0561592Y0550658D01*
X0561206Y0550782D01*
X0560823Y0550915D01*
X0560443Y0551058D01*
X0560067Y0551210D01*
X0559695Y0551371D01*
X0559327Y0551541D01*
X0558963Y0551720D01*
X0558604Y0551908D01*
X0558249Y0552105D01*
X0557899Y0552310D01*
X0557555Y0552524D01*
X0557215Y0552746D01*
X0556882Y0552977D01*
X0556554Y0553215D01*
X0556232Y0553462D01*
X0555916Y0553716D01*
X0555607Y0553978D01*
X0555304Y0554248D01*
X0555007Y0554525D01*
X0554718Y0554809D01*
X0554436Y0555100D01*
X0554161Y0555398D01*
X0553893Y0555702D01*
X0553633Y0556013D01*
X0553380Y0556331D01*
X0553136Y0556654D01*
X0552899Y0556983D01*
X0552671Y0557319D01*
X0552450Y0557659D01*
X0552239Y0558005D01*
X0552035Y0558356D01*
X0551841Y0558712D01*
X0551655Y0559072D01*
X0551478Y0559437D01*
X0551310Y0559806D01*
X0551152Y0560179D01*
X0551002Y0560556D01*
X0550862Y0560937D01*
X0550731Y0561321D01*
X0550609Y0561708D01*
X0550498Y0562097D01*
X0550395Y0562490D01*
X0550303Y0562885D01*
X0550220Y0563281D01*
X0550146Y0563680D01*
X0550083Y0564081D01*
X0550029Y0564483D01*
X0549986Y0564886D01*
X0549952Y0565290D01*
X0549928Y0565695D01*
X0549914Y0566100D01*
X0549910Y0566506D01*
X0549916Y0566911D01*
X0549932Y0567316D01*
X0549958Y0567721D01*
X0549993Y0568125D01*
X0550039Y0568528D01*
X0550095Y0568930D01*
X0550160Y0569330D01*
X0550235Y0569728D01*
X0550320Y0570125D01*
X0550414Y0570519D01*
X0550519Y0570911D01*
X0550632Y0571301D01*
X0550756Y0571687D01*
X0550889Y0572070D01*
X0551031Y0572450D01*
X0551182Y0572826D01*
X0551343Y0573198D01*
X0551512Y0573567D01*
X0551691Y0573931D01*
X0551878Y0574290D01*
X0552075Y0574645D01*
X0552279Y0574995D01*
X0552493Y0575340D01*
X0552715Y0575680D01*
X0552945Y0576014D01*
X0553183Y0576342D01*
X0553429Y0576664D01*
X0553683Y0576980D01*
X0553945Y0577290D01*
X0554214Y0577593D01*
X0554490Y0577890D01*
X0554774Y0578180D01*
X0555065Y0578462D01*
X0555363Y0578738D01*
X0555667Y0579006D01*
X0555978Y0579266D01*
X0556295Y0579519D01*
X0556618Y0579764D01*
X0556947Y0580001D01*
X0557282Y0580230D01*
X0557622Y0580451D01*
X0557967Y0580663D01*
X0558318Y0580867D01*
X0558674Y0581062D01*
X0559034Y0581248D01*
X0559399Y0581425D01*
X0559768Y0581593D01*
X0560141Y0581753D01*
X0560517Y0581903D01*
X0560898Y0582043D01*
X0561281Y0582175D01*
X0561668Y0582297D01*
X0562058Y0582409D01*
X0562450Y0582512D01*
X0562845Y0582605D01*
X0563241Y0582689D01*
X0563640Y0582762D01*
X0564041Y0582826D01*
X0564443Y0582880D01*
X0564846Y0582924D01*
X0565250Y0582959D01*
X0565655Y0582983D01*
X0566060Y0582997D01*
X0566465Y0583002D01*
X0566871Y0582997D01*
X0567276Y0582981D01*
X0567681Y0582956D01*
X0568085Y0582921D01*
X0568488Y0582875D01*
X0568890Y0582820D01*
X0569290Y0582756D01*
X0569688Y0582681D01*
X0570398Y0582209D02*
X0570204Y0582492D01*
X0570004Y0582770D01*
X0569797Y0583044D01*
X0569583Y0583312D01*
X0569363Y0583575D01*
X0569136Y0583833D01*
X0568904Y0584085D01*
X0568665Y0584331D01*
X0568421Y0584572D01*
X0568170Y0584807D01*
X0567915Y0585035D01*
X0567653Y0585257D01*
X0567387Y0585473D01*
X0567115Y0585683D01*
X0566838Y0585886D01*
X0566557Y0586082D01*
X0566271Y0586271D01*
X0565980Y0586453D01*
X0565685Y0586628D01*
X0565386Y0586796D01*
X0565083Y0586957D01*
X0564776Y0587110D01*
X0564465Y0587256D01*
X0564151Y0587394D01*
X0563834Y0587525D01*
X0563514Y0587647D01*
X0563191Y0587763D01*
X0562865Y0587870D01*
X0562537Y0587969D01*
X0562206Y0588061D01*
X0561873Y0588144D01*
X0561539Y0588220D01*
X0561202Y0588287D01*
X0560865Y0588346D01*
X0560525Y0588397D01*
X0560185Y0588440D01*
X0559844Y0588474D01*
X0559502Y0588500D01*
X0559159Y0588518D01*
X0558816Y0588528D01*
X0558473Y0588530D01*
X0558130Y0588523D01*
X0557788Y0588507D01*
X0557445Y0588484D01*
X0557104Y0588452D01*
X0556763Y0588412D01*
X0556423Y0588364D01*
X0556085Y0588308D01*
X0555748Y0588243D01*
X0555413Y0588171D01*
X0555080Y0588090D01*
X0554748Y0588001D01*
X0554419Y0587904D01*
X0554092Y0587800D01*
X0553768Y0587687D01*
X0553447Y0587567D01*
X0553129Y0587439D01*
X0552814Y0587303D01*
X0552502Y0587160D01*
X0552194Y0587009D01*
X0551890Y0586851D01*
X0551589Y0586685D01*
X0551293Y0586513D01*
X0551001Y0586333D01*
X0550713Y0586146D01*
X0483783Y0519217D01*
X0483783Y0519216D02*
X0478657Y0515719D01*
X0473447Y0512349D01*
X0468156Y0509107D01*
X0462787Y0505994D01*
X0457344Y0503014D01*
X0451830Y0500168D01*
X0446248Y0497458D01*
X0440601Y0494884D01*
X0434893Y0492450D01*
X0429128Y0490155D01*
X0423308Y0488002D01*
X0417437Y0485992D01*
X0411519Y0484126D01*
X0405556Y0482406D01*
X0399554Y0480831D01*
X0393515Y0479403D01*
X0387443Y0478124D01*
X0381342Y0476993D01*
X0375214Y0476011D01*
X0369065Y0475180D01*
X0362897Y0474499D01*
X0356714Y0473969D01*
X0350520Y0473590D01*
X0344319Y0473363D01*
X0338114Y0473287D01*
X0331909Y0473363D01*
X0325708Y0473590D01*
X0319514Y0473969D01*
X0313331Y0474499D01*
X0307163Y0475180D01*
X0301014Y0476011D01*
X0294886Y0476993D01*
X0288785Y0478124D01*
X0282713Y0479403D01*
X0276674Y0480831D01*
X0270672Y0482406D01*
X0264709Y0484126D01*
X0258791Y0485992D01*
X0252920Y0488002D01*
X0247100Y0490155D01*
X0241335Y0492450D01*
X0235627Y0494884D01*
X0229980Y0497458D01*
X0224398Y0500168D01*
X0218884Y0503014D01*
X0213441Y0505994D01*
X0208072Y0509107D01*
X0202781Y0512349D01*
X0197571Y0515719D01*
X0192445Y0519216D01*
X0192445Y0519217D02*
X0125516Y0586146D01*
X0125228Y0586333D01*
X0124936Y0586513D01*
X0124640Y0586685D01*
X0124339Y0586851D01*
X0124035Y0587009D01*
X0123727Y0587160D01*
X0123415Y0587303D01*
X0123100Y0587439D01*
X0122782Y0587567D01*
X0122461Y0587687D01*
X0122137Y0587800D01*
X0121810Y0587904D01*
X0121481Y0588001D01*
X0121149Y0588090D01*
X0120816Y0588171D01*
X0120481Y0588243D01*
X0120144Y0588308D01*
X0119806Y0588364D01*
X0119466Y0588412D01*
X0119125Y0588452D01*
X0118784Y0588484D01*
X0118441Y0588507D01*
X0118099Y0588523D01*
X0117756Y0588530D01*
X0117413Y0588528D01*
X0117070Y0588518D01*
X0116727Y0588500D01*
X0116385Y0588474D01*
X0116044Y0588440D01*
X0115704Y0588397D01*
X0115364Y0588346D01*
X0115027Y0588287D01*
X0114690Y0588220D01*
X0114356Y0588144D01*
X0114023Y0588061D01*
X0113692Y0587969D01*
X0113364Y0587870D01*
X0113038Y0587763D01*
X0112715Y0587647D01*
X0112395Y0587525D01*
X0112078Y0587394D01*
X0111764Y0587256D01*
X0111453Y0587110D01*
X0111146Y0586957D01*
X0110843Y0586796D01*
X0110544Y0586628D01*
X0110249Y0586453D01*
X0109958Y0586271D01*
X0109672Y0586082D01*
X0109391Y0585886D01*
X0109114Y0585683D01*
X0108842Y0585473D01*
X0108576Y0585257D01*
X0108314Y0585035D01*
X0108059Y0584807D01*
X0107808Y0584572D01*
X0107564Y0584331D01*
X0107325Y0584085D01*
X0107093Y0583833D01*
X0106866Y0583575D01*
X0106646Y0583312D01*
X0106432Y0583044D01*
X0106225Y0582770D01*
X0106025Y0582492D01*
X0105831Y0582209D01*
X0106619Y0582680D02*
X0107018Y0582753D01*
X0107418Y0582815D01*
X0107820Y0582867D01*
X0108224Y0582910D01*
X0108628Y0582943D01*
X0109033Y0582966D01*
X0109438Y0582979D01*
X0109844Y0582982D01*
X0110249Y0582975D01*
X0110654Y0582958D01*
X0111059Y0582931D01*
X0111463Y0582894D01*
X0111866Y0582848D01*
X0112267Y0582791D01*
X0112667Y0582725D01*
X0113066Y0582649D01*
X0113462Y0582563D01*
X0113856Y0582467D01*
X0114248Y0582362D01*
X0114637Y0582248D01*
X0115023Y0582123D01*
X0115405Y0581990D01*
X0115785Y0581847D01*
X0116161Y0581694D01*
X0116533Y0581533D01*
X0116901Y0581362D01*
X0117264Y0581183D01*
X0117623Y0580994D01*
X0117978Y0580797D01*
X0118327Y0580591D01*
X0118672Y0580377D01*
X0119010Y0580155D01*
X0119344Y0579924D01*
X0119671Y0579685D01*
X0119993Y0579438D01*
X0120309Y0579183D01*
X0120618Y0578920D01*
X0120920Y0578651D01*
X0121216Y0578373D01*
X0121505Y0578089D01*
X0121787Y0577797D01*
X0122062Y0577499D01*
X0122329Y0577194D01*
X0122589Y0576883D01*
X0122841Y0576565D01*
X0123086Y0576241D01*
X0123322Y0575912D01*
X0123550Y0575576D01*
X0123769Y0575236D01*
X0123981Y0574890D01*
X0124184Y0574538D01*
X0124378Y0574182D01*
X0124563Y0573822D01*
X0124739Y0573456D01*
X0124907Y0573087D01*
X0125065Y0572714D01*
X0125214Y0572337D01*
X0125354Y0571956D01*
X0125484Y0571572D01*
X0125605Y0571185D01*
X0125717Y0570795D01*
X0125819Y0570402D01*
X0125911Y0570008D01*
X0125993Y0569610D01*
X0126066Y0569212D01*
X0126129Y0568811D01*
X0126182Y0568409D01*
X0126225Y0568006D01*
X0126259Y0567601D01*
X0126282Y0567197D01*
X0126295Y0566791D01*
X0126299Y0566386D01*
X0126292Y0565980D01*
X0126276Y0565575D01*
X0126250Y0565170D01*
X0126213Y0564767D01*
X0126167Y0564364D01*
X0126111Y0563962D01*
X0126046Y0563562D01*
X0125970Y0563163D01*
X0125885Y0562767D01*
X0125789Y0562373D01*
X0125685Y0561981D01*
X0125571Y0561592D01*
X0125447Y0561206D01*
X0125314Y0560823D01*
X0125171Y0560443D01*
X0125019Y0560067D01*
X0124858Y0559695D01*
X0124688Y0559327D01*
X0124509Y0558963D01*
X0124321Y0558604D01*
X0124124Y0558249D01*
X0123919Y0557899D01*
X0123705Y0557555D01*
X0123483Y0557215D01*
X0123252Y0556882D01*
X0123014Y0556554D01*
X0122767Y0556232D01*
X0122513Y0555916D01*
X0122251Y0555607D01*
X0121981Y0555304D01*
X0121704Y0555007D01*
X0121420Y0554718D01*
X0121129Y0554436D01*
X0120831Y0554161D01*
X0120527Y0553893D01*
X0120216Y0553633D01*
X0119898Y0553380D01*
X0119575Y0553136D01*
X0119246Y0552899D01*
X0118910Y0552671D01*
X0118570Y0552450D01*
X0118224Y0552239D01*
X0117873Y0552035D01*
X0117517Y0551841D01*
X0117157Y0551655D01*
X0116792Y0551478D01*
X0116423Y0551310D01*
X0116050Y0551152D01*
X0115673Y0551002D01*
X0115292Y0550862D01*
X0114908Y0550731D01*
X0114521Y0550609D01*
X0114132Y0550498D01*
X0113739Y0550395D01*
X0113344Y0550303D01*
X0112948Y0550220D01*
X0112549Y0550146D01*
X0112148Y0550083D01*
X0111746Y0550029D01*
X0111343Y0549986D01*
X0110939Y0549952D01*
X0110534Y0549928D01*
X0110129Y0549914D01*
X0109723Y0549910D01*
X0109318Y0549916D01*
X0108913Y0549932D01*
X0108508Y0549958D01*
X0108104Y0549993D01*
X0107701Y0550039D01*
X0107299Y0550095D01*
X0106899Y0550160D01*
X0106501Y0550235D01*
X0106104Y0550320D01*
X0105710Y0550414D01*
X0105318Y0550519D01*
X0104928Y0550632D01*
X0104542Y0550756D01*
X0104159Y0550889D01*
X0103779Y0551031D01*
X0103403Y0551182D01*
X0103031Y0551343D01*
X0102662Y0551512D01*
X0102298Y0551691D01*
X0101939Y0551878D01*
X0101584Y0552075D01*
X0101234Y0552279D01*
X0100889Y0552493D01*
X0100549Y0552715D01*
X0100215Y0552945D01*
X0099887Y0553183D01*
X0099565Y0553429D01*
X0099249Y0553683D01*
X0098939Y0553945D01*
X0098636Y0554214D01*
X0098339Y0554490D01*
X0098049Y0554774D01*
X0097767Y0555065D01*
X0097491Y0555363D01*
X0097223Y0555667D01*
X0096963Y0555978D01*
X0096710Y0556295D01*
X0096465Y0556618D01*
X0096228Y0556947D01*
X0095999Y0557282D01*
X0095778Y0557622D01*
X0095566Y0557967D01*
X0095362Y0558318D01*
X0095167Y0558674D01*
X0094981Y0559034D01*
X0094804Y0559399D01*
X0094636Y0559768D01*
X0094476Y0560141D01*
X0094326Y0560517D01*
X0094186Y0560898D01*
X0094054Y0561281D01*
X0093932Y0561668D01*
X0093820Y0562058D01*
X0093717Y0562450D01*
X0093624Y0562845D01*
X0093540Y0563241D01*
X0093467Y0563640D01*
X0093403Y0564041D01*
X0093349Y0564443D01*
X0093305Y0564846D01*
X0093270Y0565250D01*
X0093246Y0565655D01*
X0093232Y0566060D01*
X0093227Y0566465D01*
X0093232Y0566871D01*
X0093248Y0567276D01*
X0093273Y0567681D01*
X0093308Y0568085D01*
X0093354Y0568488D01*
X0093409Y0568890D01*
X0093473Y0569290D01*
X0093548Y0569688D01*
X0094020Y0570398D02*
X0093737Y0570204D01*
X0093459Y0570004D01*
X0093185Y0569797D01*
X0092917Y0569583D01*
X0092654Y0569363D01*
X0092396Y0569136D01*
X0092144Y0568904D01*
X0091898Y0568665D01*
X0091657Y0568421D01*
X0091422Y0568170D01*
X0091194Y0567915D01*
X0090972Y0567653D01*
X0090756Y0567387D01*
X0090546Y0567115D01*
X0090343Y0566838D01*
X0090147Y0566557D01*
X0089958Y0566271D01*
X0089776Y0565980D01*
X0089601Y0565685D01*
X0089433Y0565386D01*
X0089272Y0565083D01*
X0089119Y0564776D01*
X0088973Y0564465D01*
X0088835Y0564151D01*
X0088704Y0563834D01*
X0088582Y0563514D01*
X0088466Y0563191D01*
X0088359Y0562865D01*
X0088260Y0562537D01*
X0088168Y0562206D01*
X0088085Y0561873D01*
X0088009Y0561539D01*
X0087942Y0561202D01*
X0087883Y0560865D01*
X0087832Y0560525D01*
X0087789Y0560185D01*
X0087755Y0559844D01*
X0087729Y0559502D01*
X0087711Y0559159D01*
X0087701Y0558816D01*
X0087699Y0558473D01*
X0087706Y0558130D01*
X0087722Y0557788D01*
X0087745Y0557445D01*
X0087777Y0557104D01*
X0087817Y0556763D01*
X0087865Y0556423D01*
X0087921Y0556085D01*
X0087986Y0555748D01*
X0088058Y0555413D01*
X0088139Y0555080D01*
X0088228Y0554748D01*
X0088325Y0554419D01*
X0088429Y0554092D01*
X0088542Y0553768D01*
X0088662Y0553447D01*
X0088790Y0553129D01*
X0088926Y0552814D01*
X0089069Y0552502D01*
X0089220Y0552194D01*
X0089378Y0551890D01*
X0089544Y0551589D01*
X0089716Y0551293D01*
X0089896Y0551001D01*
X0090083Y0550713D01*
X0157012Y0483783D01*
X0157013Y0483783D02*
X0160510Y0478657D01*
X0163880Y0473447D01*
X0167122Y0468156D01*
X0170235Y0462787D01*
X0173215Y0457344D01*
X0176061Y0451830D01*
X0178771Y0446248D01*
X0181345Y0440601D01*
X0183779Y0434893D01*
X0186074Y0429128D01*
X0188227Y0423308D01*
X0190237Y0417437D01*
X0192103Y0411519D01*
X0193823Y0405556D01*
X0195398Y0399554D01*
X0196826Y0393515D01*
X0198105Y0387443D01*
X0199236Y0381342D01*
X0200218Y0375214D01*
X0201049Y0369065D01*
X0201730Y0362897D01*
X0202260Y0356714D01*
X0202639Y0350520D01*
X0202866Y0344319D01*
X0202942Y0338114D01*
X0202866Y0331909D01*
X0202639Y0325708D01*
X0202260Y0319514D01*
X0201730Y0313331D01*
X0201049Y0307163D01*
X0200218Y0301014D01*
X0199236Y0294886D01*
X0198105Y0288785D01*
X0196826Y0282713D01*
X0195398Y0276674D01*
X0193823Y0270672D01*
X0192103Y0264709D01*
X0190237Y0258791D01*
X0188227Y0252920D01*
X0186074Y0247100D01*
X0183779Y0241335D01*
X0181345Y0235627D01*
X0178771Y0229980D01*
X0176061Y0224398D01*
X0173215Y0218884D01*
X0170235Y0213441D01*
X0167122Y0208072D01*
X0163880Y0202781D01*
X0160510Y0197571D01*
X0157013Y0192445D01*
D11*
X0287917Y0309177D02*
X0287919Y0309282D01*
X0287925Y0309387D01*
X0287935Y0309491D01*
X0287949Y0309595D01*
X0287967Y0309699D01*
X0287989Y0309801D01*
X0288014Y0309903D01*
X0288044Y0310004D01*
X0288077Y0310103D01*
X0288114Y0310201D01*
X0288155Y0310298D01*
X0288200Y0310393D01*
X0288248Y0310486D01*
X0288299Y0310578D01*
X0288355Y0310667D01*
X0288413Y0310754D01*
X0288475Y0310839D01*
X0288539Y0310922D01*
X0288607Y0311002D01*
X0288678Y0311079D01*
X0288752Y0311153D01*
X0288829Y0311225D01*
X0288908Y0311294D01*
X0288990Y0311359D01*
X0289074Y0311422D01*
X0289161Y0311481D01*
X0289250Y0311537D01*
X0289341Y0311590D01*
X0289434Y0311639D01*
X0289528Y0311684D01*
X0289624Y0311726D01*
X0289722Y0311764D01*
X0289821Y0311798D01*
X0289922Y0311829D01*
X0290023Y0311855D01*
X0290126Y0311878D01*
X0290229Y0311897D01*
X0290333Y0311912D01*
X0290437Y0311923D01*
X0290542Y0311930D01*
X0290647Y0311933D01*
X0290752Y0311932D01*
X0290857Y0311927D01*
X0290961Y0311918D01*
X0291065Y0311905D01*
X0291169Y0311888D01*
X0291272Y0311867D01*
X0291374Y0311842D01*
X0291475Y0311814D01*
X0291574Y0311781D01*
X0291673Y0311745D01*
X0291770Y0311705D01*
X0291865Y0311662D01*
X0291959Y0311614D01*
X0292051Y0311564D01*
X0292141Y0311510D01*
X0292229Y0311452D01*
X0292314Y0311391D01*
X0292397Y0311327D01*
X0292478Y0311260D01*
X0292556Y0311190D01*
X0292631Y0311116D01*
X0292703Y0311041D01*
X0292773Y0310962D01*
X0292839Y0310881D01*
X0292903Y0310797D01*
X0292963Y0310711D01*
X0293019Y0310623D01*
X0293073Y0310532D01*
X0293123Y0310440D01*
X0293169Y0310346D01*
X0293212Y0310250D01*
X0293251Y0310152D01*
X0293286Y0310054D01*
X0293317Y0309953D01*
X0293345Y0309852D01*
X0293369Y0309750D01*
X0293389Y0309647D01*
X0293405Y0309543D01*
X0293417Y0309439D01*
X0293425Y0309334D01*
X0293429Y0309229D01*
X0293429Y0309125D01*
X0293425Y0309020D01*
X0293417Y0308915D01*
X0293405Y0308811D01*
X0293389Y0308707D01*
X0293369Y0308604D01*
X0293345Y0308502D01*
X0293317Y0308401D01*
X0293286Y0308300D01*
X0293251Y0308202D01*
X0293212Y0308104D01*
X0293169Y0308008D01*
X0293123Y0307914D01*
X0293073Y0307822D01*
X0293019Y0307731D01*
X0292963Y0307643D01*
X0292903Y0307557D01*
X0292839Y0307473D01*
X0292773Y0307392D01*
X0292703Y0307313D01*
X0292631Y0307238D01*
X0292556Y0307164D01*
X0292478Y0307094D01*
X0292397Y0307027D01*
X0292314Y0306963D01*
X0292229Y0306902D01*
X0292141Y0306844D01*
X0292051Y0306790D01*
X0291959Y0306740D01*
X0291865Y0306692D01*
X0291770Y0306649D01*
X0291673Y0306609D01*
X0291574Y0306573D01*
X0291475Y0306540D01*
X0291374Y0306512D01*
X0291272Y0306487D01*
X0291169Y0306466D01*
X0291065Y0306449D01*
X0290961Y0306436D01*
X0290857Y0306427D01*
X0290752Y0306422D01*
X0290647Y0306421D01*
X0290542Y0306424D01*
X0290437Y0306431D01*
X0290333Y0306442D01*
X0290229Y0306457D01*
X0290126Y0306476D01*
X0290023Y0306499D01*
X0289922Y0306525D01*
X0289821Y0306556D01*
X0289722Y0306590D01*
X0289624Y0306628D01*
X0289528Y0306670D01*
X0289434Y0306715D01*
X0289341Y0306764D01*
X0289250Y0306817D01*
X0289161Y0306873D01*
X0289074Y0306932D01*
X0288990Y0306995D01*
X0288908Y0307060D01*
X0288829Y0307129D01*
X0288752Y0307201D01*
X0288678Y0307275D01*
X0288607Y0307352D01*
X0288539Y0307432D01*
X0288475Y0307515D01*
X0288413Y0307600D01*
X0288355Y0307687D01*
X0288299Y0307776D01*
X0288248Y0307868D01*
X0288200Y0307961D01*
X0288155Y0308056D01*
X0288114Y0308153D01*
X0288077Y0308251D01*
X0288044Y0308350D01*
X0288014Y0308451D01*
X0287989Y0308553D01*
X0287967Y0308655D01*
X0287949Y0308759D01*
X0287935Y0308863D01*
X0287925Y0308967D01*
X0287919Y0309072D01*
X0287917Y0309177D01*
X0246579Y0330240D02*
X0246581Y0330380D01*
X0246587Y0330520D01*
X0246597Y0330659D01*
X0246611Y0330798D01*
X0246629Y0330937D01*
X0246650Y0331075D01*
X0246676Y0331213D01*
X0246706Y0331350D01*
X0246739Y0331485D01*
X0246777Y0331620D01*
X0246818Y0331754D01*
X0246863Y0331887D01*
X0246911Y0332018D01*
X0246964Y0332147D01*
X0247020Y0332276D01*
X0247079Y0332402D01*
X0247143Y0332527D01*
X0247209Y0332650D01*
X0247280Y0332771D01*
X0247353Y0332890D01*
X0247430Y0333007D01*
X0247511Y0333121D01*
X0247594Y0333233D01*
X0247681Y0333343D01*
X0247771Y0333451D01*
X0247863Y0333555D01*
X0247959Y0333657D01*
X0248058Y0333757D01*
X0248159Y0333853D01*
X0248263Y0333947D01*
X0248370Y0334037D01*
X0248479Y0334124D01*
X0248591Y0334209D01*
X0248705Y0334290D01*
X0248821Y0334368D01*
X0248939Y0334442D01*
X0249060Y0334513D01*
X0249182Y0334581D01*
X0249307Y0334645D01*
X0249433Y0334706D01*
X0249560Y0334763D01*
X0249690Y0334816D01*
X0249821Y0334866D01*
X0249953Y0334911D01*
X0250086Y0334954D01*
X0250221Y0334992D01*
X0250356Y0335026D01*
X0250493Y0335057D01*
X0250630Y0335084D01*
X0250768Y0335106D01*
X0250907Y0335125D01*
X0251046Y0335140D01*
X0251185Y0335151D01*
X0251325Y0335158D01*
X0251465Y0335161D01*
X0251605Y0335160D01*
X0251745Y0335155D01*
X0251884Y0335146D01*
X0252024Y0335133D01*
X0252163Y0335116D01*
X0252301Y0335095D01*
X0252439Y0335071D01*
X0252576Y0335042D01*
X0252712Y0335010D01*
X0252847Y0334973D01*
X0252981Y0334933D01*
X0253114Y0334889D01*
X0253245Y0334841D01*
X0253375Y0334790D01*
X0253504Y0334735D01*
X0253631Y0334676D01*
X0253756Y0334613D01*
X0253879Y0334548D01*
X0254001Y0334478D01*
X0254120Y0334405D01*
X0254238Y0334329D01*
X0254353Y0334250D01*
X0254466Y0334167D01*
X0254576Y0334081D01*
X0254684Y0333992D01*
X0254789Y0333900D01*
X0254892Y0333805D01*
X0254992Y0333707D01*
X0255089Y0333607D01*
X0255183Y0333503D01*
X0255275Y0333397D01*
X0255363Y0333289D01*
X0255448Y0333178D01*
X0255530Y0333064D01*
X0255609Y0332948D01*
X0255684Y0332831D01*
X0255756Y0332711D01*
X0255824Y0332589D01*
X0255889Y0332465D01*
X0255951Y0332339D01*
X0256009Y0332212D01*
X0256063Y0332083D01*
X0256114Y0331952D01*
X0256160Y0331820D01*
X0256203Y0331687D01*
X0256243Y0331553D01*
X0256278Y0331418D01*
X0256310Y0331281D01*
X0256337Y0331144D01*
X0256361Y0331006D01*
X0256381Y0330868D01*
X0256397Y0330729D01*
X0256409Y0330589D01*
X0256417Y0330450D01*
X0256421Y0330310D01*
X0256421Y0330170D01*
X0256417Y0330030D01*
X0256409Y0329891D01*
X0256397Y0329751D01*
X0256381Y0329612D01*
X0256361Y0329474D01*
X0256337Y0329336D01*
X0256310Y0329199D01*
X0256278Y0329062D01*
X0256243Y0328927D01*
X0256203Y0328793D01*
X0256160Y0328660D01*
X0256114Y0328528D01*
X0256063Y0328397D01*
X0256009Y0328268D01*
X0255951Y0328141D01*
X0255889Y0328015D01*
X0255824Y0327891D01*
X0255756Y0327769D01*
X0255684Y0327649D01*
X0255609Y0327532D01*
X0255530Y0327416D01*
X0255448Y0327302D01*
X0255363Y0327191D01*
X0255275Y0327083D01*
X0255183Y0326977D01*
X0255089Y0326873D01*
X0254992Y0326773D01*
X0254892Y0326675D01*
X0254789Y0326580D01*
X0254684Y0326488D01*
X0254576Y0326399D01*
X0254466Y0326313D01*
X0254353Y0326230D01*
X0254238Y0326151D01*
X0254120Y0326075D01*
X0254001Y0326002D01*
X0253879Y0325932D01*
X0253756Y0325867D01*
X0253631Y0325804D01*
X0253504Y0325745D01*
X0253375Y0325690D01*
X0253245Y0325639D01*
X0253114Y0325591D01*
X0252981Y0325547D01*
X0252847Y0325507D01*
X0252712Y0325470D01*
X0252576Y0325438D01*
X0252439Y0325409D01*
X0252301Y0325385D01*
X0252163Y0325364D01*
X0252024Y0325347D01*
X0251884Y0325334D01*
X0251745Y0325325D01*
X0251605Y0325320D01*
X0251465Y0325319D01*
X0251325Y0325322D01*
X0251185Y0325329D01*
X0251046Y0325340D01*
X0250907Y0325355D01*
X0250768Y0325374D01*
X0250630Y0325396D01*
X0250493Y0325423D01*
X0250356Y0325454D01*
X0250221Y0325488D01*
X0250086Y0325526D01*
X0249953Y0325569D01*
X0249821Y0325614D01*
X0249690Y0325664D01*
X0249560Y0325717D01*
X0249433Y0325774D01*
X0249307Y0325835D01*
X0249182Y0325899D01*
X0249060Y0325967D01*
X0248939Y0326038D01*
X0248821Y0326112D01*
X0248705Y0326190D01*
X0248591Y0326271D01*
X0248479Y0326356D01*
X0248370Y0326443D01*
X0248263Y0326533D01*
X0248159Y0326627D01*
X0248058Y0326723D01*
X0247959Y0326823D01*
X0247863Y0326925D01*
X0247771Y0327029D01*
X0247681Y0327137D01*
X0247594Y0327247D01*
X0247511Y0327359D01*
X0247430Y0327473D01*
X0247353Y0327590D01*
X0247280Y0327709D01*
X0247209Y0327830D01*
X0247143Y0327953D01*
X0247079Y0328078D01*
X0247020Y0328204D01*
X0246964Y0328333D01*
X0246911Y0328462D01*
X0246863Y0328593D01*
X0246818Y0328726D01*
X0246777Y0328860D01*
X0246739Y0328995D01*
X0246706Y0329130D01*
X0246676Y0329267D01*
X0246650Y0329405D01*
X0246629Y0329543D01*
X0246611Y0329682D01*
X0246597Y0329821D01*
X0246587Y0329960D01*
X0246581Y0330100D01*
X0246579Y0330240D01*
X0246579Y0345988D02*
X0246581Y0346128D01*
X0246587Y0346268D01*
X0246597Y0346407D01*
X0246611Y0346546D01*
X0246629Y0346685D01*
X0246650Y0346823D01*
X0246676Y0346961D01*
X0246706Y0347098D01*
X0246739Y0347233D01*
X0246777Y0347368D01*
X0246818Y0347502D01*
X0246863Y0347635D01*
X0246911Y0347766D01*
X0246964Y0347895D01*
X0247020Y0348024D01*
X0247079Y0348150D01*
X0247143Y0348275D01*
X0247209Y0348398D01*
X0247280Y0348519D01*
X0247353Y0348638D01*
X0247430Y0348755D01*
X0247511Y0348869D01*
X0247594Y0348981D01*
X0247681Y0349091D01*
X0247771Y0349199D01*
X0247863Y0349303D01*
X0247959Y0349405D01*
X0248058Y0349505D01*
X0248159Y0349601D01*
X0248263Y0349695D01*
X0248370Y0349785D01*
X0248479Y0349872D01*
X0248591Y0349957D01*
X0248705Y0350038D01*
X0248821Y0350116D01*
X0248939Y0350190D01*
X0249060Y0350261D01*
X0249182Y0350329D01*
X0249307Y0350393D01*
X0249433Y0350454D01*
X0249560Y0350511D01*
X0249690Y0350564D01*
X0249821Y0350614D01*
X0249953Y0350659D01*
X0250086Y0350702D01*
X0250221Y0350740D01*
X0250356Y0350774D01*
X0250493Y0350805D01*
X0250630Y0350832D01*
X0250768Y0350854D01*
X0250907Y0350873D01*
X0251046Y0350888D01*
X0251185Y0350899D01*
X0251325Y0350906D01*
X0251465Y0350909D01*
X0251605Y0350908D01*
X0251745Y0350903D01*
X0251884Y0350894D01*
X0252024Y0350881D01*
X0252163Y0350864D01*
X0252301Y0350843D01*
X0252439Y0350819D01*
X0252576Y0350790D01*
X0252712Y0350758D01*
X0252847Y0350721D01*
X0252981Y0350681D01*
X0253114Y0350637D01*
X0253245Y0350589D01*
X0253375Y0350538D01*
X0253504Y0350483D01*
X0253631Y0350424D01*
X0253756Y0350361D01*
X0253879Y0350296D01*
X0254001Y0350226D01*
X0254120Y0350153D01*
X0254238Y0350077D01*
X0254353Y0349998D01*
X0254466Y0349915D01*
X0254576Y0349829D01*
X0254684Y0349740D01*
X0254789Y0349648D01*
X0254892Y0349553D01*
X0254992Y0349455D01*
X0255089Y0349355D01*
X0255183Y0349251D01*
X0255275Y0349145D01*
X0255363Y0349037D01*
X0255448Y0348926D01*
X0255530Y0348812D01*
X0255609Y0348696D01*
X0255684Y0348579D01*
X0255756Y0348459D01*
X0255824Y0348337D01*
X0255889Y0348213D01*
X0255951Y0348087D01*
X0256009Y0347960D01*
X0256063Y0347831D01*
X0256114Y0347700D01*
X0256160Y0347568D01*
X0256203Y0347435D01*
X0256243Y0347301D01*
X0256278Y0347166D01*
X0256310Y0347029D01*
X0256337Y0346892D01*
X0256361Y0346754D01*
X0256381Y0346616D01*
X0256397Y0346477D01*
X0256409Y0346337D01*
X0256417Y0346198D01*
X0256421Y0346058D01*
X0256421Y0345918D01*
X0256417Y0345778D01*
X0256409Y0345639D01*
X0256397Y0345499D01*
X0256381Y0345360D01*
X0256361Y0345222D01*
X0256337Y0345084D01*
X0256310Y0344947D01*
X0256278Y0344810D01*
X0256243Y0344675D01*
X0256203Y0344541D01*
X0256160Y0344408D01*
X0256114Y0344276D01*
X0256063Y0344145D01*
X0256009Y0344016D01*
X0255951Y0343889D01*
X0255889Y0343763D01*
X0255824Y0343639D01*
X0255756Y0343517D01*
X0255684Y0343397D01*
X0255609Y0343280D01*
X0255530Y0343164D01*
X0255448Y0343050D01*
X0255363Y0342939D01*
X0255275Y0342831D01*
X0255183Y0342725D01*
X0255089Y0342621D01*
X0254992Y0342521D01*
X0254892Y0342423D01*
X0254789Y0342328D01*
X0254684Y0342236D01*
X0254576Y0342147D01*
X0254466Y0342061D01*
X0254353Y0341978D01*
X0254238Y0341899D01*
X0254120Y0341823D01*
X0254001Y0341750D01*
X0253879Y0341680D01*
X0253756Y0341615D01*
X0253631Y0341552D01*
X0253504Y0341493D01*
X0253375Y0341438D01*
X0253245Y0341387D01*
X0253114Y0341339D01*
X0252981Y0341295D01*
X0252847Y0341255D01*
X0252712Y0341218D01*
X0252576Y0341186D01*
X0252439Y0341157D01*
X0252301Y0341133D01*
X0252163Y0341112D01*
X0252024Y0341095D01*
X0251884Y0341082D01*
X0251745Y0341073D01*
X0251605Y0341068D01*
X0251465Y0341067D01*
X0251325Y0341070D01*
X0251185Y0341077D01*
X0251046Y0341088D01*
X0250907Y0341103D01*
X0250768Y0341122D01*
X0250630Y0341144D01*
X0250493Y0341171D01*
X0250356Y0341202D01*
X0250221Y0341236D01*
X0250086Y0341274D01*
X0249953Y0341317D01*
X0249821Y0341362D01*
X0249690Y0341412D01*
X0249560Y0341465D01*
X0249433Y0341522D01*
X0249307Y0341583D01*
X0249182Y0341647D01*
X0249060Y0341715D01*
X0248939Y0341786D01*
X0248821Y0341860D01*
X0248705Y0341938D01*
X0248591Y0342019D01*
X0248479Y0342104D01*
X0248370Y0342191D01*
X0248263Y0342281D01*
X0248159Y0342375D01*
X0248058Y0342471D01*
X0247959Y0342571D01*
X0247863Y0342673D01*
X0247771Y0342777D01*
X0247681Y0342885D01*
X0247594Y0342995D01*
X0247511Y0343107D01*
X0247430Y0343221D01*
X0247353Y0343338D01*
X0247280Y0343457D01*
X0247209Y0343578D01*
X0247143Y0343701D01*
X0247079Y0343826D01*
X0247020Y0343952D01*
X0246964Y0344081D01*
X0246911Y0344210D01*
X0246863Y0344341D01*
X0246818Y0344474D01*
X0246777Y0344608D01*
X0246739Y0344743D01*
X0246706Y0344878D01*
X0246676Y0345015D01*
X0246650Y0345153D01*
X0246629Y0345291D01*
X0246611Y0345430D01*
X0246597Y0345569D01*
X0246587Y0345708D01*
X0246581Y0345848D01*
X0246579Y0345988D01*
X0287917Y0367051D02*
X0287919Y0367156D01*
X0287925Y0367261D01*
X0287935Y0367365D01*
X0287949Y0367469D01*
X0287967Y0367573D01*
X0287989Y0367675D01*
X0288014Y0367777D01*
X0288044Y0367878D01*
X0288077Y0367977D01*
X0288114Y0368075D01*
X0288155Y0368172D01*
X0288200Y0368267D01*
X0288248Y0368360D01*
X0288299Y0368452D01*
X0288355Y0368541D01*
X0288413Y0368628D01*
X0288475Y0368713D01*
X0288539Y0368796D01*
X0288607Y0368876D01*
X0288678Y0368953D01*
X0288752Y0369027D01*
X0288829Y0369099D01*
X0288908Y0369168D01*
X0288990Y0369233D01*
X0289074Y0369296D01*
X0289161Y0369355D01*
X0289250Y0369411D01*
X0289341Y0369464D01*
X0289434Y0369513D01*
X0289528Y0369558D01*
X0289624Y0369600D01*
X0289722Y0369638D01*
X0289821Y0369672D01*
X0289922Y0369703D01*
X0290023Y0369729D01*
X0290126Y0369752D01*
X0290229Y0369771D01*
X0290333Y0369786D01*
X0290437Y0369797D01*
X0290542Y0369804D01*
X0290647Y0369807D01*
X0290752Y0369806D01*
X0290857Y0369801D01*
X0290961Y0369792D01*
X0291065Y0369779D01*
X0291169Y0369762D01*
X0291272Y0369741D01*
X0291374Y0369716D01*
X0291475Y0369688D01*
X0291574Y0369655D01*
X0291673Y0369619D01*
X0291770Y0369579D01*
X0291865Y0369536D01*
X0291959Y0369488D01*
X0292051Y0369438D01*
X0292141Y0369384D01*
X0292229Y0369326D01*
X0292314Y0369265D01*
X0292397Y0369201D01*
X0292478Y0369134D01*
X0292556Y0369064D01*
X0292631Y0368990D01*
X0292703Y0368915D01*
X0292773Y0368836D01*
X0292839Y0368755D01*
X0292903Y0368671D01*
X0292963Y0368585D01*
X0293019Y0368497D01*
X0293073Y0368406D01*
X0293123Y0368314D01*
X0293169Y0368220D01*
X0293212Y0368124D01*
X0293251Y0368026D01*
X0293286Y0367928D01*
X0293317Y0367827D01*
X0293345Y0367726D01*
X0293369Y0367624D01*
X0293389Y0367521D01*
X0293405Y0367417D01*
X0293417Y0367313D01*
X0293425Y0367208D01*
X0293429Y0367103D01*
X0293429Y0366999D01*
X0293425Y0366894D01*
X0293417Y0366789D01*
X0293405Y0366685D01*
X0293389Y0366581D01*
X0293369Y0366478D01*
X0293345Y0366376D01*
X0293317Y0366275D01*
X0293286Y0366174D01*
X0293251Y0366076D01*
X0293212Y0365978D01*
X0293169Y0365882D01*
X0293123Y0365788D01*
X0293073Y0365696D01*
X0293019Y0365605D01*
X0292963Y0365517D01*
X0292903Y0365431D01*
X0292839Y0365347D01*
X0292773Y0365266D01*
X0292703Y0365187D01*
X0292631Y0365112D01*
X0292556Y0365038D01*
X0292478Y0364968D01*
X0292397Y0364901D01*
X0292314Y0364837D01*
X0292229Y0364776D01*
X0292141Y0364718D01*
X0292051Y0364664D01*
X0291959Y0364614D01*
X0291865Y0364566D01*
X0291770Y0364523D01*
X0291673Y0364483D01*
X0291574Y0364447D01*
X0291475Y0364414D01*
X0291374Y0364386D01*
X0291272Y0364361D01*
X0291169Y0364340D01*
X0291065Y0364323D01*
X0290961Y0364310D01*
X0290857Y0364301D01*
X0290752Y0364296D01*
X0290647Y0364295D01*
X0290542Y0364298D01*
X0290437Y0364305D01*
X0290333Y0364316D01*
X0290229Y0364331D01*
X0290126Y0364350D01*
X0290023Y0364373D01*
X0289922Y0364399D01*
X0289821Y0364430D01*
X0289722Y0364464D01*
X0289624Y0364502D01*
X0289528Y0364544D01*
X0289434Y0364589D01*
X0289341Y0364638D01*
X0289250Y0364691D01*
X0289161Y0364747D01*
X0289074Y0364806D01*
X0288990Y0364869D01*
X0288908Y0364934D01*
X0288829Y0365003D01*
X0288752Y0365075D01*
X0288678Y0365149D01*
X0288607Y0365226D01*
X0288539Y0365306D01*
X0288475Y0365389D01*
X0288413Y0365474D01*
X0288355Y0365561D01*
X0288299Y0365650D01*
X0288248Y0365742D01*
X0288200Y0365835D01*
X0288155Y0365930D01*
X0288114Y0366027D01*
X0288077Y0366125D01*
X0288044Y0366224D01*
X0288014Y0366325D01*
X0287989Y0366427D01*
X0287967Y0366529D01*
X0287949Y0366633D01*
X0287935Y0366737D01*
X0287925Y0366841D01*
X0287919Y0366946D01*
X0287917Y0367051D01*
X0382799Y0367051D02*
X0382801Y0367156D01*
X0382807Y0367261D01*
X0382817Y0367365D01*
X0382831Y0367469D01*
X0382849Y0367573D01*
X0382871Y0367675D01*
X0382896Y0367777D01*
X0382926Y0367878D01*
X0382959Y0367977D01*
X0382996Y0368075D01*
X0383037Y0368172D01*
X0383082Y0368267D01*
X0383130Y0368360D01*
X0383181Y0368452D01*
X0383237Y0368541D01*
X0383295Y0368628D01*
X0383357Y0368713D01*
X0383421Y0368796D01*
X0383489Y0368876D01*
X0383560Y0368953D01*
X0383634Y0369027D01*
X0383711Y0369099D01*
X0383790Y0369168D01*
X0383872Y0369233D01*
X0383956Y0369296D01*
X0384043Y0369355D01*
X0384132Y0369411D01*
X0384223Y0369464D01*
X0384316Y0369513D01*
X0384410Y0369558D01*
X0384506Y0369600D01*
X0384604Y0369638D01*
X0384703Y0369672D01*
X0384804Y0369703D01*
X0384905Y0369729D01*
X0385008Y0369752D01*
X0385111Y0369771D01*
X0385215Y0369786D01*
X0385319Y0369797D01*
X0385424Y0369804D01*
X0385529Y0369807D01*
X0385634Y0369806D01*
X0385739Y0369801D01*
X0385843Y0369792D01*
X0385947Y0369779D01*
X0386051Y0369762D01*
X0386154Y0369741D01*
X0386256Y0369716D01*
X0386357Y0369688D01*
X0386456Y0369655D01*
X0386555Y0369619D01*
X0386652Y0369579D01*
X0386747Y0369536D01*
X0386841Y0369488D01*
X0386933Y0369438D01*
X0387023Y0369384D01*
X0387111Y0369326D01*
X0387196Y0369265D01*
X0387279Y0369201D01*
X0387360Y0369134D01*
X0387438Y0369064D01*
X0387513Y0368990D01*
X0387585Y0368915D01*
X0387655Y0368836D01*
X0387721Y0368755D01*
X0387785Y0368671D01*
X0387845Y0368585D01*
X0387901Y0368497D01*
X0387955Y0368406D01*
X0388005Y0368314D01*
X0388051Y0368220D01*
X0388094Y0368124D01*
X0388133Y0368026D01*
X0388168Y0367928D01*
X0388199Y0367827D01*
X0388227Y0367726D01*
X0388251Y0367624D01*
X0388271Y0367521D01*
X0388287Y0367417D01*
X0388299Y0367313D01*
X0388307Y0367208D01*
X0388311Y0367103D01*
X0388311Y0366999D01*
X0388307Y0366894D01*
X0388299Y0366789D01*
X0388287Y0366685D01*
X0388271Y0366581D01*
X0388251Y0366478D01*
X0388227Y0366376D01*
X0388199Y0366275D01*
X0388168Y0366174D01*
X0388133Y0366076D01*
X0388094Y0365978D01*
X0388051Y0365882D01*
X0388005Y0365788D01*
X0387955Y0365696D01*
X0387901Y0365605D01*
X0387845Y0365517D01*
X0387785Y0365431D01*
X0387721Y0365347D01*
X0387655Y0365266D01*
X0387585Y0365187D01*
X0387513Y0365112D01*
X0387438Y0365038D01*
X0387360Y0364968D01*
X0387279Y0364901D01*
X0387196Y0364837D01*
X0387111Y0364776D01*
X0387023Y0364718D01*
X0386933Y0364664D01*
X0386841Y0364614D01*
X0386747Y0364566D01*
X0386652Y0364523D01*
X0386555Y0364483D01*
X0386456Y0364447D01*
X0386357Y0364414D01*
X0386256Y0364386D01*
X0386154Y0364361D01*
X0386051Y0364340D01*
X0385947Y0364323D01*
X0385843Y0364310D01*
X0385739Y0364301D01*
X0385634Y0364296D01*
X0385529Y0364295D01*
X0385424Y0364298D01*
X0385319Y0364305D01*
X0385215Y0364316D01*
X0385111Y0364331D01*
X0385008Y0364350D01*
X0384905Y0364373D01*
X0384804Y0364399D01*
X0384703Y0364430D01*
X0384604Y0364464D01*
X0384506Y0364502D01*
X0384410Y0364544D01*
X0384316Y0364589D01*
X0384223Y0364638D01*
X0384132Y0364691D01*
X0384043Y0364747D01*
X0383956Y0364806D01*
X0383872Y0364869D01*
X0383790Y0364934D01*
X0383711Y0365003D01*
X0383634Y0365075D01*
X0383560Y0365149D01*
X0383489Y0365226D01*
X0383421Y0365306D01*
X0383357Y0365389D01*
X0383295Y0365474D01*
X0383237Y0365561D01*
X0383181Y0365650D01*
X0383130Y0365742D01*
X0383082Y0365835D01*
X0383037Y0365930D01*
X0382996Y0366027D01*
X0382959Y0366125D01*
X0382926Y0366224D01*
X0382896Y0366325D01*
X0382871Y0366427D01*
X0382849Y0366529D01*
X0382831Y0366633D01*
X0382817Y0366737D01*
X0382807Y0366841D01*
X0382801Y0366946D01*
X0382799Y0367051D01*
X0419807Y0345988D02*
X0419809Y0346128D01*
X0419815Y0346268D01*
X0419825Y0346407D01*
X0419839Y0346546D01*
X0419857Y0346685D01*
X0419878Y0346823D01*
X0419904Y0346961D01*
X0419934Y0347098D01*
X0419967Y0347233D01*
X0420005Y0347368D01*
X0420046Y0347502D01*
X0420091Y0347635D01*
X0420139Y0347766D01*
X0420192Y0347895D01*
X0420248Y0348024D01*
X0420307Y0348150D01*
X0420371Y0348275D01*
X0420437Y0348398D01*
X0420508Y0348519D01*
X0420581Y0348638D01*
X0420658Y0348755D01*
X0420739Y0348869D01*
X0420822Y0348981D01*
X0420909Y0349091D01*
X0420999Y0349199D01*
X0421091Y0349303D01*
X0421187Y0349405D01*
X0421286Y0349505D01*
X0421387Y0349601D01*
X0421491Y0349695D01*
X0421598Y0349785D01*
X0421707Y0349872D01*
X0421819Y0349957D01*
X0421933Y0350038D01*
X0422049Y0350116D01*
X0422167Y0350190D01*
X0422288Y0350261D01*
X0422410Y0350329D01*
X0422535Y0350393D01*
X0422661Y0350454D01*
X0422788Y0350511D01*
X0422918Y0350564D01*
X0423049Y0350614D01*
X0423181Y0350659D01*
X0423314Y0350702D01*
X0423449Y0350740D01*
X0423584Y0350774D01*
X0423721Y0350805D01*
X0423858Y0350832D01*
X0423996Y0350854D01*
X0424135Y0350873D01*
X0424274Y0350888D01*
X0424413Y0350899D01*
X0424553Y0350906D01*
X0424693Y0350909D01*
X0424833Y0350908D01*
X0424973Y0350903D01*
X0425112Y0350894D01*
X0425252Y0350881D01*
X0425391Y0350864D01*
X0425529Y0350843D01*
X0425667Y0350819D01*
X0425804Y0350790D01*
X0425940Y0350758D01*
X0426075Y0350721D01*
X0426209Y0350681D01*
X0426342Y0350637D01*
X0426473Y0350589D01*
X0426603Y0350538D01*
X0426732Y0350483D01*
X0426859Y0350424D01*
X0426984Y0350361D01*
X0427107Y0350296D01*
X0427229Y0350226D01*
X0427348Y0350153D01*
X0427466Y0350077D01*
X0427581Y0349998D01*
X0427694Y0349915D01*
X0427804Y0349829D01*
X0427912Y0349740D01*
X0428017Y0349648D01*
X0428120Y0349553D01*
X0428220Y0349455D01*
X0428317Y0349355D01*
X0428411Y0349251D01*
X0428503Y0349145D01*
X0428591Y0349037D01*
X0428676Y0348926D01*
X0428758Y0348812D01*
X0428837Y0348696D01*
X0428912Y0348579D01*
X0428984Y0348459D01*
X0429052Y0348337D01*
X0429117Y0348213D01*
X0429179Y0348087D01*
X0429237Y0347960D01*
X0429291Y0347831D01*
X0429342Y0347700D01*
X0429388Y0347568D01*
X0429431Y0347435D01*
X0429471Y0347301D01*
X0429506Y0347166D01*
X0429538Y0347029D01*
X0429565Y0346892D01*
X0429589Y0346754D01*
X0429609Y0346616D01*
X0429625Y0346477D01*
X0429637Y0346337D01*
X0429645Y0346198D01*
X0429649Y0346058D01*
X0429649Y0345918D01*
X0429645Y0345778D01*
X0429637Y0345639D01*
X0429625Y0345499D01*
X0429609Y0345360D01*
X0429589Y0345222D01*
X0429565Y0345084D01*
X0429538Y0344947D01*
X0429506Y0344810D01*
X0429471Y0344675D01*
X0429431Y0344541D01*
X0429388Y0344408D01*
X0429342Y0344276D01*
X0429291Y0344145D01*
X0429237Y0344016D01*
X0429179Y0343889D01*
X0429117Y0343763D01*
X0429052Y0343639D01*
X0428984Y0343517D01*
X0428912Y0343397D01*
X0428837Y0343280D01*
X0428758Y0343164D01*
X0428676Y0343050D01*
X0428591Y0342939D01*
X0428503Y0342831D01*
X0428411Y0342725D01*
X0428317Y0342621D01*
X0428220Y0342521D01*
X0428120Y0342423D01*
X0428017Y0342328D01*
X0427912Y0342236D01*
X0427804Y0342147D01*
X0427694Y0342061D01*
X0427581Y0341978D01*
X0427466Y0341899D01*
X0427348Y0341823D01*
X0427229Y0341750D01*
X0427107Y0341680D01*
X0426984Y0341615D01*
X0426859Y0341552D01*
X0426732Y0341493D01*
X0426603Y0341438D01*
X0426473Y0341387D01*
X0426342Y0341339D01*
X0426209Y0341295D01*
X0426075Y0341255D01*
X0425940Y0341218D01*
X0425804Y0341186D01*
X0425667Y0341157D01*
X0425529Y0341133D01*
X0425391Y0341112D01*
X0425252Y0341095D01*
X0425112Y0341082D01*
X0424973Y0341073D01*
X0424833Y0341068D01*
X0424693Y0341067D01*
X0424553Y0341070D01*
X0424413Y0341077D01*
X0424274Y0341088D01*
X0424135Y0341103D01*
X0423996Y0341122D01*
X0423858Y0341144D01*
X0423721Y0341171D01*
X0423584Y0341202D01*
X0423449Y0341236D01*
X0423314Y0341274D01*
X0423181Y0341317D01*
X0423049Y0341362D01*
X0422918Y0341412D01*
X0422788Y0341465D01*
X0422661Y0341522D01*
X0422535Y0341583D01*
X0422410Y0341647D01*
X0422288Y0341715D01*
X0422167Y0341786D01*
X0422049Y0341860D01*
X0421933Y0341938D01*
X0421819Y0342019D01*
X0421707Y0342104D01*
X0421598Y0342191D01*
X0421491Y0342281D01*
X0421387Y0342375D01*
X0421286Y0342471D01*
X0421187Y0342571D01*
X0421091Y0342673D01*
X0420999Y0342777D01*
X0420909Y0342885D01*
X0420822Y0342995D01*
X0420739Y0343107D01*
X0420658Y0343221D01*
X0420581Y0343338D01*
X0420508Y0343457D01*
X0420437Y0343578D01*
X0420371Y0343701D01*
X0420307Y0343826D01*
X0420248Y0343952D01*
X0420192Y0344081D01*
X0420139Y0344210D01*
X0420091Y0344341D01*
X0420046Y0344474D01*
X0420005Y0344608D01*
X0419967Y0344743D01*
X0419934Y0344878D01*
X0419904Y0345015D01*
X0419878Y0345153D01*
X0419857Y0345291D01*
X0419839Y0345430D01*
X0419825Y0345569D01*
X0419815Y0345708D01*
X0419809Y0345848D01*
X0419807Y0345988D01*
X0419807Y0330240D02*
X0419809Y0330380D01*
X0419815Y0330520D01*
X0419825Y0330659D01*
X0419839Y0330798D01*
X0419857Y0330937D01*
X0419878Y0331075D01*
X0419904Y0331213D01*
X0419934Y0331350D01*
X0419967Y0331485D01*
X0420005Y0331620D01*
X0420046Y0331754D01*
X0420091Y0331887D01*
X0420139Y0332018D01*
X0420192Y0332147D01*
X0420248Y0332276D01*
X0420307Y0332402D01*
X0420371Y0332527D01*
X0420437Y0332650D01*
X0420508Y0332771D01*
X0420581Y0332890D01*
X0420658Y0333007D01*
X0420739Y0333121D01*
X0420822Y0333233D01*
X0420909Y0333343D01*
X0420999Y0333451D01*
X0421091Y0333555D01*
X0421187Y0333657D01*
X0421286Y0333757D01*
X0421387Y0333853D01*
X0421491Y0333947D01*
X0421598Y0334037D01*
X0421707Y0334124D01*
X0421819Y0334209D01*
X0421933Y0334290D01*
X0422049Y0334368D01*
X0422167Y0334442D01*
X0422288Y0334513D01*
X0422410Y0334581D01*
X0422535Y0334645D01*
X0422661Y0334706D01*
X0422788Y0334763D01*
X0422918Y0334816D01*
X0423049Y0334866D01*
X0423181Y0334911D01*
X0423314Y0334954D01*
X0423449Y0334992D01*
X0423584Y0335026D01*
X0423721Y0335057D01*
X0423858Y0335084D01*
X0423996Y0335106D01*
X0424135Y0335125D01*
X0424274Y0335140D01*
X0424413Y0335151D01*
X0424553Y0335158D01*
X0424693Y0335161D01*
X0424833Y0335160D01*
X0424973Y0335155D01*
X0425112Y0335146D01*
X0425252Y0335133D01*
X0425391Y0335116D01*
X0425529Y0335095D01*
X0425667Y0335071D01*
X0425804Y0335042D01*
X0425940Y0335010D01*
X0426075Y0334973D01*
X0426209Y0334933D01*
X0426342Y0334889D01*
X0426473Y0334841D01*
X0426603Y0334790D01*
X0426732Y0334735D01*
X0426859Y0334676D01*
X0426984Y0334613D01*
X0427107Y0334548D01*
X0427229Y0334478D01*
X0427348Y0334405D01*
X0427466Y0334329D01*
X0427581Y0334250D01*
X0427694Y0334167D01*
X0427804Y0334081D01*
X0427912Y0333992D01*
X0428017Y0333900D01*
X0428120Y0333805D01*
X0428220Y0333707D01*
X0428317Y0333607D01*
X0428411Y0333503D01*
X0428503Y0333397D01*
X0428591Y0333289D01*
X0428676Y0333178D01*
X0428758Y0333064D01*
X0428837Y0332948D01*
X0428912Y0332831D01*
X0428984Y0332711D01*
X0429052Y0332589D01*
X0429117Y0332465D01*
X0429179Y0332339D01*
X0429237Y0332212D01*
X0429291Y0332083D01*
X0429342Y0331952D01*
X0429388Y0331820D01*
X0429431Y0331687D01*
X0429471Y0331553D01*
X0429506Y0331418D01*
X0429538Y0331281D01*
X0429565Y0331144D01*
X0429589Y0331006D01*
X0429609Y0330868D01*
X0429625Y0330729D01*
X0429637Y0330589D01*
X0429645Y0330450D01*
X0429649Y0330310D01*
X0429649Y0330170D01*
X0429645Y0330030D01*
X0429637Y0329891D01*
X0429625Y0329751D01*
X0429609Y0329612D01*
X0429589Y0329474D01*
X0429565Y0329336D01*
X0429538Y0329199D01*
X0429506Y0329062D01*
X0429471Y0328927D01*
X0429431Y0328793D01*
X0429388Y0328660D01*
X0429342Y0328528D01*
X0429291Y0328397D01*
X0429237Y0328268D01*
X0429179Y0328141D01*
X0429117Y0328015D01*
X0429052Y0327891D01*
X0428984Y0327769D01*
X0428912Y0327649D01*
X0428837Y0327532D01*
X0428758Y0327416D01*
X0428676Y0327302D01*
X0428591Y0327191D01*
X0428503Y0327083D01*
X0428411Y0326977D01*
X0428317Y0326873D01*
X0428220Y0326773D01*
X0428120Y0326675D01*
X0428017Y0326580D01*
X0427912Y0326488D01*
X0427804Y0326399D01*
X0427694Y0326313D01*
X0427581Y0326230D01*
X0427466Y0326151D01*
X0427348Y0326075D01*
X0427229Y0326002D01*
X0427107Y0325932D01*
X0426984Y0325867D01*
X0426859Y0325804D01*
X0426732Y0325745D01*
X0426603Y0325690D01*
X0426473Y0325639D01*
X0426342Y0325591D01*
X0426209Y0325547D01*
X0426075Y0325507D01*
X0425940Y0325470D01*
X0425804Y0325438D01*
X0425667Y0325409D01*
X0425529Y0325385D01*
X0425391Y0325364D01*
X0425252Y0325347D01*
X0425112Y0325334D01*
X0424973Y0325325D01*
X0424833Y0325320D01*
X0424693Y0325319D01*
X0424553Y0325322D01*
X0424413Y0325329D01*
X0424274Y0325340D01*
X0424135Y0325355D01*
X0423996Y0325374D01*
X0423858Y0325396D01*
X0423721Y0325423D01*
X0423584Y0325454D01*
X0423449Y0325488D01*
X0423314Y0325526D01*
X0423181Y0325569D01*
X0423049Y0325614D01*
X0422918Y0325664D01*
X0422788Y0325717D01*
X0422661Y0325774D01*
X0422535Y0325835D01*
X0422410Y0325899D01*
X0422288Y0325967D01*
X0422167Y0326038D01*
X0422049Y0326112D01*
X0421933Y0326190D01*
X0421819Y0326271D01*
X0421707Y0326356D01*
X0421598Y0326443D01*
X0421491Y0326533D01*
X0421387Y0326627D01*
X0421286Y0326723D01*
X0421187Y0326823D01*
X0421091Y0326925D01*
X0420999Y0327029D01*
X0420909Y0327137D01*
X0420822Y0327247D01*
X0420739Y0327359D01*
X0420658Y0327473D01*
X0420581Y0327590D01*
X0420508Y0327709D01*
X0420437Y0327830D01*
X0420371Y0327953D01*
X0420307Y0328078D01*
X0420248Y0328204D01*
X0420192Y0328333D01*
X0420139Y0328462D01*
X0420091Y0328593D01*
X0420046Y0328726D01*
X0420005Y0328860D01*
X0419967Y0328995D01*
X0419934Y0329130D01*
X0419904Y0329267D01*
X0419878Y0329405D01*
X0419857Y0329543D01*
X0419839Y0329682D01*
X0419825Y0329821D01*
X0419815Y0329960D01*
X0419809Y0330100D01*
X0419807Y0330240D01*
X0382799Y0309177D02*
X0382801Y0309282D01*
X0382807Y0309387D01*
X0382817Y0309491D01*
X0382831Y0309595D01*
X0382849Y0309699D01*
X0382871Y0309801D01*
X0382896Y0309903D01*
X0382926Y0310004D01*
X0382959Y0310103D01*
X0382996Y0310201D01*
X0383037Y0310298D01*
X0383082Y0310393D01*
X0383130Y0310486D01*
X0383181Y0310578D01*
X0383237Y0310667D01*
X0383295Y0310754D01*
X0383357Y0310839D01*
X0383421Y0310922D01*
X0383489Y0311002D01*
X0383560Y0311079D01*
X0383634Y0311153D01*
X0383711Y0311225D01*
X0383790Y0311294D01*
X0383872Y0311359D01*
X0383956Y0311422D01*
X0384043Y0311481D01*
X0384132Y0311537D01*
X0384223Y0311590D01*
X0384316Y0311639D01*
X0384410Y0311684D01*
X0384506Y0311726D01*
X0384604Y0311764D01*
X0384703Y0311798D01*
X0384804Y0311829D01*
X0384905Y0311855D01*
X0385008Y0311878D01*
X0385111Y0311897D01*
X0385215Y0311912D01*
X0385319Y0311923D01*
X0385424Y0311930D01*
X0385529Y0311933D01*
X0385634Y0311932D01*
X0385739Y0311927D01*
X0385843Y0311918D01*
X0385947Y0311905D01*
X0386051Y0311888D01*
X0386154Y0311867D01*
X0386256Y0311842D01*
X0386357Y0311814D01*
X0386456Y0311781D01*
X0386555Y0311745D01*
X0386652Y0311705D01*
X0386747Y0311662D01*
X0386841Y0311614D01*
X0386933Y0311564D01*
X0387023Y0311510D01*
X0387111Y0311452D01*
X0387196Y0311391D01*
X0387279Y0311327D01*
X0387360Y0311260D01*
X0387438Y0311190D01*
X0387513Y0311116D01*
X0387585Y0311041D01*
X0387655Y0310962D01*
X0387721Y0310881D01*
X0387785Y0310797D01*
X0387845Y0310711D01*
X0387901Y0310623D01*
X0387955Y0310532D01*
X0388005Y0310440D01*
X0388051Y0310346D01*
X0388094Y0310250D01*
X0388133Y0310152D01*
X0388168Y0310054D01*
X0388199Y0309953D01*
X0388227Y0309852D01*
X0388251Y0309750D01*
X0388271Y0309647D01*
X0388287Y0309543D01*
X0388299Y0309439D01*
X0388307Y0309334D01*
X0388311Y0309229D01*
X0388311Y0309125D01*
X0388307Y0309020D01*
X0388299Y0308915D01*
X0388287Y0308811D01*
X0388271Y0308707D01*
X0388251Y0308604D01*
X0388227Y0308502D01*
X0388199Y0308401D01*
X0388168Y0308300D01*
X0388133Y0308202D01*
X0388094Y0308104D01*
X0388051Y0308008D01*
X0388005Y0307914D01*
X0387955Y0307822D01*
X0387901Y0307731D01*
X0387845Y0307643D01*
X0387785Y0307557D01*
X0387721Y0307473D01*
X0387655Y0307392D01*
X0387585Y0307313D01*
X0387513Y0307238D01*
X0387438Y0307164D01*
X0387360Y0307094D01*
X0387279Y0307027D01*
X0387196Y0306963D01*
X0387111Y0306902D01*
X0387023Y0306844D01*
X0386933Y0306790D01*
X0386841Y0306740D01*
X0386747Y0306692D01*
X0386652Y0306649D01*
X0386555Y0306609D01*
X0386456Y0306573D01*
X0386357Y0306540D01*
X0386256Y0306512D01*
X0386154Y0306487D01*
X0386051Y0306466D01*
X0385947Y0306449D01*
X0385843Y0306436D01*
X0385739Y0306427D01*
X0385634Y0306422D01*
X0385529Y0306421D01*
X0385424Y0306424D01*
X0385319Y0306431D01*
X0385215Y0306442D01*
X0385111Y0306457D01*
X0385008Y0306476D01*
X0384905Y0306499D01*
X0384804Y0306525D01*
X0384703Y0306556D01*
X0384604Y0306590D01*
X0384506Y0306628D01*
X0384410Y0306670D01*
X0384316Y0306715D01*
X0384223Y0306764D01*
X0384132Y0306817D01*
X0384043Y0306873D01*
X0383956Y0306932D01*
X0383872Y0306995D01*
X0383790Y0307060D01*
X0383711Y0307129D01*
X0383634Y0307201D01*
X0383560Y0307275D01*
X0383489Y0307352D01*
X0383421Y0307432D01*
X0383357Y0307515D01*
X0383295Y0307600D01*
X0383237Y0307687D01*
X0383181Y0307776D01*
X0383130Y0307868D01*
X0383082Y0307961D01*
X0383037Y0308056D01*
X0382996Y0308153D01*
X0382959Y0308251D01*
X0382926Y0308350D01*
X0382896Y0308451D01*
X0382871Y0308553D01*
X0382849Y0308655D01*
X0382831Y0308759D01*
X0382817Y0308863D01*
X0382807Y0308967D01*
X0382801Y0309072D01*
X0382799Y0309177D01*
D12*
X0381421Y0310555D02*
X0381421Y0304650D01*
X0385358Y0304650D01*
X0381421Y0304650D02*
X0381421Y0257937D01*
X0381419Y0257839D01*
X0381413Y0257741D01*
X0381404Y0257643D01*
X0381390Y0257546D01*
X0381373Y0257449D01*
X0381352Y0257353D01*
X0381327Y0257258D01*
X0381299Y0257164D01*
X0381266Y0257072D01*
X0381231Y0256980D01*
X0381191Y0256890D01*
X0381149Y0256802D01*
X0381102Y0256715D01*
X0381053Y0256631D01*
X0381000Y0256548D01*
X0380944Y0256468D01*
X0380884Y0256389D01*
X0380822Y0256313D01*
X0380757Y0256240D01*
X0380689Y0256169D01*
X0380618Y0256101D01*
X0380545Y0256036D01*
X0380469Y0255974D01*
X0380390Y0255914D01*
X0380310Y0255858D01*
X0380227Y0255805D01*
X0380143Y0255756D01*
X0380056Y0255709D01*
X0379968Y0255667D01*
X0379878Y0255627D01*
X0379786Y0255592D01*
X0379694Y0255559D01*
X0379600Y0255531D01*
X0379505Y0255506D01*
X0379409Y0255485D01*
X0379312Y0255468D01*
X0379215Y0255454D01*
X0379117Y0255445D01*
X0379019Y0255439D01*
X0378921Y0255437D01*
X0357799Y0255437D01*
X0357799Y0245594D01*
X0344020Y0245594D01*
X0344020Y0241657D01*
X0332209Y0241657D01*
X0332209Y0245594D01*
X0318429Y0245594D01*
X0318429Y0255437D01*
X0297307Y0255437D01*
X0297209Y0255439D01*
X0297111Y0255445D01*
X0297013Y0255454D01*
X0296916Y0255468D01*
X0296819Y0255485D01*
X0296723Y0255506D01*
X0296628Y0255531D01*
X0296534Y0255559D01*
X0296442Y0255592D01*
X0296350Y0255627D01*
X0296260Y0255667D01*
X0296172Y0255709D01*
X0296085Y0255756D01*
X0296001Y0255805D01*
X0295918Y0255858D01*
X0295838Y0255914D01*
X0295759Y0255974D01*
X0295683Y0256036D01*
X0295610Y0256101D01*
X0295539Y0256169D01*
X0295471Y0256240D01*
X0295406Y0256313D01*
X0295344Y0256389D01*
X0295284Y0256468D01*
X0295228Y0256548D01*
X0295175Y0256631D01*
X0295126Y0256715D01*
X0295079Y0256802D01*
X0295037Y0256890D01*
X0294997Y0256980D01*
X0294962Y0257072D01*
X0294929Y0257164D01*
X0294901Y0257258D01*
X0294876Y0257353D01*
X0294855Y0257449D01*
X0294838Y0257546D01*
X0294824Y0257643D01*
X0294815Y0257741D01*
X0294809Y0257839D01*
X0294807Y0257937D01*
X0294807Y0304650D01*
X0290870Y0304650D01*
X0294807Y0304650D02*
X0294807Y0310555D01*
X0294807Y0313508D01*
X0290870Y0313508D01*
X0294807Y0313508D02*
X0294807Y0326303D01*
X0328272Y0314492D01*
X0328272Y0357799D01*
X0294807Y0369610D01*
X0294807Y0371579D02*
X0290870Y0371579D01*
X0294807Y0371579D02*
X0294807Y0403075D01*
X0300713Y0416854D01*
X0321382Y0416854D01*
X0321382Y0399138D01*
X0322366Y0399138D01*
X0322366Y0428134D01*
X0322368Y0428232D01*
X0322374Y0428330D01*
X0322383Y0428428D01*
X0322397Y0428525D01*
X0322414Y0428622D01*
X0322435Y0428718D01*
X0322460Y0428813D01*
X0322488Y0428907D01*
X0322521Y0428999D01*
X0322556Y0429091D01*
X0322596Y0429181D01*
X0322638Y0429269D01*
X0322685Y0429356D01*
X0322734Y0429440D01*
X0322787Y0429523D01*
X0322843Y0429603D01*
X0322903Y0429682D01*
X0322965Y0429758D01*
X0323030Y0429831D01*
X0323098Y0429902D01*
X0323169Y0429970D01*
X0323242Y0430035D01*
X0323318Y0430097D01*
X0323397Y0430157D01*
X0323477Y0430213D01*
X0323560Y0430266D01*
X0323644Y0430315D01*
X0323731Y0430362D01*
X0323819Y0430404D01*
X0323909Y0430444D01*
X0324001Y0430479D01*
X0324093Y0430512D01*
X0324187Y0430540D01*
X0324282Y0430565D01*
X0324378Y0430586D01*
X0324475Y0430603D01*
X0324572Y0430617D01*
X0324670Y0430626D01*
X0324768Y0430632D01*
X0324866Y0430634D01*
X0351362Y0430634D01*
X0351460Y0430632D01*
X0351558Y0430626D01*
X0351656Y0430617D01*
X0351753Y0430603D01*
X0351850Y0430586D01*
X0351946Y0430565D01*
X0352041Y0430540D01*
X0352135Y0430512D01*
X0352227Y0430479D01*
X0352319Y0430444D01*
X0352409Y0430404D01*
X0352497Y0430362D01*
X0352584Y0430315D01*
X0352668Y0430266D01*
X0352751Y0430213D01*
X0352831Y0430157D01*
X0352910Y0430097D01*
X0352986Y0430035D01*
X0353059Y0429970D01*
X0353130Y0429902D01*
X0353198Y0429831D01*
X0353263Y0429758D01*
X0353325Y0429682D01*
X0353385Y0429603D01*
X0353441Y0429523D01*
X0353494Y0429440D01*
X0353543Y0429356D01*
X0353590Y0429269D01*
X0353632Y0429181D01*
X0353672Y0429091D01*
X0353707Y0428999D01*
X0353740Y0428907D01*
X0353768Y0428813D01*
X0353793Y0428718D01*
X0353814Y0428622D01*
X0353831Y0428525D01*
X0353845Y0428428D01*
X0353854Y0428330D01*
X0353860Y0428232D01*
X0353862Y0428134D01*
X0353862Y0399138D01*
X0354846Y0399138D01*
X0354846Y0416854D01*
X0375516Y0416854D01*
X0381421Y0403075D01*
X0381421Y0371579D01*
X0385358Y0371579D01*
X0381421Y0371579D02*
X0381421Y0362720D01*
X0385358Y0362720D01*
X0381421Y0362720D02*
X0381421Y0326303D01*
X0347957Y0314492D01*
X0347957Y0357799D01*
X0381421Y0369610D01*
X0385358Y0371579D02*
X0385489Y0371577D01*
X0385620Y0371571D01*
X0385751Y0371562D01*
X0385882Y0371548D01*
X0386012Y0371530D01*
X0386141Y0371509D01*
X0386270Y0371484D01*
X0386398Y0371455D01*
X0386525Y0371422D01*
X0386652Y0371386D01*
X0386776Y0371346D01*
X0386900Y0371302D01*
X0387023Y0371254D01*
X0387143Y0371203D01*
X0387263Y0371148D01*
X0387380Y0371090D01*
X0387496Y0371029D01*
X0387610Y0370964D01*
X0387722Y0370895D01*
X0387832Y0370823D01*
X0387940Y0370749D01*
X0388046Y0370670D01*
X0388149Y0370589D01*
X0388249Y0370505D01*
X0388347Y0370418D01*
X0388443Y0370328D01*
X0388536Y0370235D01*
X0388626Y0370139D01*
X0388713Y0370041D01*
X0388797Y0369941D01*
X0388878Y0369838D01*
X0388957Y0369732D01*
X0389031Y0369624D01*
X0389103Y0369514D01*
X0389172Y0369402D01*
X0389237Y0369288D01*
X0389298Y0369172D01*
X0389356Y0369055D01*
X0389411Y0368935D01*
X0389462Y0368815D01*
X0389510Y0368692D01*
X0389554Y0368568D01*
X0389594Y0368444D01*
X0389630Y0368317D01*
X0389663Y0368190D01*
X0389692Y0368062D01*
X0389717Y0367933D01*
X0389738Y0367804D01*
X0389756Y0367674D01*
X0389770Y0367543D01*
X0389779Y0367412D01*
X0389785Y0367281D01*
X0389787Y0367150D01*
X0389785Y0367019D01*
X0389779Y0366888D01*
X0389770Y0366757D01*
X0389756Y0366626D01*
X0389738Y0366496D01*
X0389717Y0366367D01*
X0389692Y0366238D01*
X0389663Y0366110D01*
X0389630Y0365983D01*
X0389594Y0365856D01*
X0389554Y0365732D01*
X0389510Y0365608D01*
X0389462Y0365485D01*
X0389411Y0365365D01*
X0389356Y0365245D01*
X0389298Y0365128D01*
X0389237Y0365012D01*
X0389172Y0364898D01*
X0389103Y0364786D01*
X0389031Y0364676D01*
X0388957Y0364568D01*
X0388878Y0364462D01*
X0388797Y0364359D01*
X0388713Y0364259D01*
X0388626Y0364161D01*
X0388536Y0364065D01*
X0388443Y0363972D01*
X0388347Y0363882D01*
X0388249Y0363795D01*
X0388149Y0363711D01*
X0388046Y0363630D01*
X0387940Y0363551D01*
X0387832Y0363477D01*
X0387722Y0363405D01*
X0387610Y0363336D01*
X0387496Y0363271D01*
X0387380Y0363210D01*
X0387263Y0363152D01*
X0387143Y0363097D01*
X0387023Y0363046D01*
X0386900Y0362998D01*
X0386776Y0362954D01*
X0386652Y0362914D01*
X0386525Y0362878D01*
X0386398Y0362845D01*
X0386270Y0362816D01*
X0386141Y0362791D01*
X0386012Y0362770D01*
X0385882Y0362752D01*
X0385751Y0362738D01*
X0385620Y0362729D01*
X0385489Y0362723D01*
X0385358Y0362721D01*
X0381421Y0385358D02*
X0347957Y0373547D01*
X0328272Y0373547D01*
X0294807Y0385358D01*
X0294807Y0371579D02*
X0294807Y0362720D01*
X0294807Y0326303D01*
X0294807Y0310555D02*
X0328272Y0298744D01*
X0347957Y0298744D01*
X0381421Y0310555D01*
X0381421Y0313508D01*
X0385358Y0313508D01*
X0381421Y0313508D02*
X0381421Y0326303D01*
X0385358Y0313508D02*
X0385489Y0313506D01*
X0385620Y0313500D01*
X0385751Y0313491D01*
X0385882Y0313477D01*
X0386012Y0313459D01*
X0386141Y0313438D01*
X0386270Y0313413D01*
X0386398Y0313384D01*
X0386525Y0313351D01*
X0386652Y0313315D01*
X0386776Y0313275D01*
X0386900Y0313231D01*
X0387023Y0313183D01*
X0387143Y0313132D01*
X0387263Y0313077D01*
X0387380Y0313019D01*
X0387496Y0312958D01*
X0387610Y0312893D01*
X0387722Y0312824D01*
X0387832Y0312752D01*
X0387940Y0312678D01*
X0388046Y0312599D01*
X0388149Y0312518D01*
X0388249Y0312434D01*
X0388347Y0312347D01*
X0388443Y0312257D01*
X0388536Y0312164D01*
X0388626Y0312068D01*
X0388713Y0311970D01*
X0388797Y0311870D01*
X0388878Y0311767D01*
X0388957Y0311661D01*
X0389031Y0311553D01*
X0389103Y0311443D01*
X0389172Y0311331D01*
X0389237Y0311217D01*
X0389298Y0311101D01*
X0389356Y0310984D01*
X0389411Y0310864D01*
X0389462Y0310744D01*
X0389510Y0310621D01*
X0389554Y0310497D01*
X0389594Y0310373D01*
X0389630Y0310246D01*
X0389663Y0310119D01*
X0389692Y0309991D01*
X0389717Y0309862D01*
X0389738Y0309733D01*
X0389756Y0309603D01*
X0389770Y0309472D01*
X0389779Y0309341D01*
X0389785Y0309210D01*
X0389787Y0309079D01*
X0389785Y0308948D01*
X0389779Y0308817D01*
X0389770Y0308686D01*
X0389756Y0308555D01*
X0389738Y0308425D01*
X0389717Y0308296D01*
X0389692Y0308167D01*
X0389663Y0308039D01*
X0389630Y0307912D01*
X0389594Y0307785D01*
X0389554Y0307661D01*
X0389510Y0307537D01*
X0389462Y0307414D01*
X0389411Y0307294D01*
X0389356Y0307174D01*
X0389298Y0307057D01*
X0389237Y0306941D01*
X0389172Y0306827D01*
X0389103Y0306715D01*
X0389031Y0306605D01*
X0388957Y0306497D01*
X0388878Y0306391D01*
X0388797Y0306288D01*
X0388713Y0306188D01*
X0388626Y0306090D01*
X0388536Y0305994D01*
X0388443Y0305901D01*
X0388347Y0305811D01*
X0388249Y0305724D01*
X0388149Y0305640D01*
X0388046Y0305559D01*
X0387940Y0305480D01*
X0387832Y0305406D01*
X0387722Y0305334D01*
X0387610Y0305265D01*
X0387496Y0305200D01*
X0387380Y0305139D01*
X0387263Y0305081D01*
X0387143Y0305026D01*
X0387023Y0304975D01*
X0386900Y0304927D01*
X0386776Y0304883D01*
X0386652Y0304843D01*
X0386525Y0304807D01*
X0386398Y0304774D01*
X0386270Y0304745D01*
X0386141Y0304720D01*
X0386012Y0304699D01*
X0385882Y0304681D01*
X0385751Y0304667D01*
X0385620Y0304658D01*
X0385489Y0304652D01*
X0385358Y0304650D01*
X0386105Y0283537D02*
X0385400Y0282832D01*
X0385400Y0282128D01*
X0388219Y0279309D01*
X0385400Y0279309D01*
X0386105Y0283537D02*
X0387514Y0283537D01*
X0388219Y0282832D01*
X0389750Y0283537D02*
X0389750Y0279309D01*
X0391160Y0280718D01*
X0392569Y0279309D01*
X0392569Y0283537D01*
X0394101Y0282832D02*
X0394805Y0283537D01*
X0396215Y0283537D01*
X0396919Y0282832D01*
X0396919Y0282128D01*
X0396215Y0281423D01*
X0394805Y0281423D01*
X0394101Y0280718D01*
X0394101Y0280014D01*
X0394805Y0279309D01*
X0396215Y0279309D01*
X0396919Y0280014D01*
X0379453Y0269217D02*
X0379453Y0259906D01*
X0379451Y0259808D01*
X0379445Y0259710D01*
X0379436Y0259612D01*
X0379422Y0259515D01*
X0379405Y0259418D01*
X0379384Y0259322D01*
X0379359Y0259227D01*
X0379331Y0259133D01*
X0379298Y0259041D01*
X0379263Y0258949D01*
X0379223Y0258859D01*
X0379181Y0258771D01*
X0379134Y0258684D01*
X0379085Y0258600D01*
X0379032Y0258517D01*
X0378976Y0258437D01*
X0378916Y0258358D01*
X0378854Y0258282D01*
X0378789Y0258209D01*
X0378721Y0258138D01*
X0378650Y0258070D01*
X0378577Y0258005D01*
X0378501Y0257943D01*
X0378422Y0257883D01*
X0378342Y0257827D01*
X0378259Y0257774D01*
X0378175Y0257725D01*
X0378088Y0257678D01*
X0378000Y0257636D01*
X0377910Y0257596D01*
X0377818Y0257561D01*
X0377726Y0257528D01*
X0377632Y0257500D01*
X0377537Y0257475D01*
X0377441Y0257454D01*
X0377344Y0257437D01*
X0377247Y0257423D01*
X0377149Y0257414D01*
X0377051Y0257408D01*
X0376953Y0257406D01*
X0367642Y0257406D01*
X0379453Y0269217D01*
X0357799Y0255437D02*
X0318429Y0255437D01*
X0308587Y0257406D02*
X0299276Y0257406D01*
X0299178Y0257408D01*
X0299080Y0257414D01*
X0298982Y0257423D01*
X0298885Y0257437D01*
X0298788Y0257454D01*
X0298692Y0257475D01*
X0298597Y0257500D01*
X0298503Y0257528D01*
X0298411Y0257561D01*
X0298319Y0257596D01*
X0298229Y0257636D01*
X0298141Y0257678D01*
X0298054Y0257725D01*
X0297970Y0257774D01*
X0297887Y0257827D01*
X0297807Y0257883D01*
X0297728Y0257943D01*
X0297652Y0258005D01*
X0297579Y0258070D01*
X0297508Y0258138D01*
X0297440Y0258209D01*
X0297375Y0258282D01*
X0297313Y0258358D01*
X0297253Y0258437D01*
X0297197Y0258517D01*
X0297144Y0258600D01*
X0297095Y0258684D01*
X0297048Y0258771D01*
X0297006Y0258859D01*
X0296966Y0258949D01*
X0296931Y0259041D01*
X0296898Y0259133D01*
X0296870Y0259227D01*
X0296845Y0259322D01*
X0296824Y0259418D01*
X0296807Y0259515D01*
X0296793Y0259612D01*
X0296784Y0259710D01*
X0296778Y0259808D01*
X0296776Y0259906D01*
X0296776Y0269217D01*
X0308587Y0257406D01*
X0291155Y0274585D02*
X0291860Y0275289D01*
X0291155Y0274585D02*
X0289746Y0274585D01*
X0289041Y0275289D01*
X0289041Y0275994D01*
X0289746Y0276699D01*
X0291155Y0276699D01*
X0291860Y0277403D01*
X0291860Y0278108D01*
X0291155Y0278813D01*
X0289746Y0278813D01*
X0289041Y0278108D01*
X0287509Y0278813D02*
X0287509Y0274585D01*
X0286100Y0275994D01*
X0284691Y0274585D01*
X0284691Y0278813D01*
X0283159Y0277403D02*
X0281750Y0278813D01*
X0281750Y0274585D01*
X0283159Y0274585D02*
X0280341Y0274585D01*
X0290870Y0304650D02*
X0290739Y0304652D01*
X0290608Y0304658D01*
X0290477Y0304667D01*
X0290346Y0304681D01*
X0290216Y0304699D01*
X0290087Y0304720D01*
X0289958Y0304745D01*
X0289830Y0304774D01*
X0289703Y0304807D01*
X0289576Y0304843D01*
X0289452Y0304883D01*
X0289328Y0304927D01*
X0289205Y0304975D01*
X0289085Y0305026D01*
X0288965Y0305081D01*
X0288848Y0305139D01*
X0288732Y0305200D01*
X0288618Y0305265D01*
X0288506Y0305334D01*
X0288396Y0305406D01*
X0288288Y0305480D01*
X0288182Y0305559D01*
X0288079Y0305640D01*
X0287979Y0305724D01*
X0287881Y0305811D01*
X0287785Y0305901D01*
X0287692Y0305994D01*
X0287602Y0306090D01*
X0287515Y0306188D01*
X0287431Y0306288D01*
X0287350Y0306391D01*
X0287271Y0306497D01*
X0287197Y0306605D01*
X0287125Y0306715D01*
X0287056Y0306827D01*
X0286991Y0306941D01*
X0286930Y0307057D01*
X0286872Y0307174D01*
X0286817Y0307294D01*
X0286766Y0307414D01*
X0286718Y0307537D01*
X0286674Y0307661D01*
X0286634Y0307785D01*
X0286598Y0307912D01*
X0286565Y0308039D01*
X0286536Y0308167D01*
X0286511Y0308296D01*
X0286490Y0308425D01*
X0286472Y0308555D01*
X0286458Y0308686D01*
X0286449Y0308817D01*
X0286443Y0308948D01*
X0286441Y0309079D01*
X0286443Y0309210D01*
X0286449Y0309341D01*
X0286458Y0309472D01*
X0286472Y0309603D01*
X0286490Y0309733D01*
X0286511Y0309862D01*
X0286536Y0309991D01*
X0286565Y0310119D01*
X0286598Y0310246D01*
X0286634Y0310373D01*
X0286674Y0310497D01*
X0286718Y0310621D01*
X0286766Y0310744D01*
X0286817Y0310864D01*
X0286872Y0310984D01*
X0286930Y0311101D01*
X0286991Y0311217D01*
X0287056Y0311331D01*
X0287125Y0311443D01*
X0287197Y0311553D01*
X0287271Y0311661D01*
X0287350Y0311767D01*
X0287431Y0311870D01*
X0287515Y0311970D01*
X0287602Y0312068D01*
X0287692Y0312164D01*
X0287785Y0312257D01*
X0287881Y0312347D01*
X0287979Y0312434D01*
X0288079Y0312518D01*
X0288182Y0312599D01*
X0288288Y0312678D01*
X0288396Y0312752D01*
X0288506Y0312824D01*
X0288618Y0312893D01*
X0288732Y0312958D01*
X0288848Y0313019D01*
X0288965Y0313077D01*
X0289085Y0313132D01*
X0289205Y0313183D01*
X0289328Y0313231D01*
X0289452Y0313275D01*
X0289576Y0313315D01*
X0289703Y0313351D01*
X0289830Y0313384D01*
X0289958Y0313413D01*
X0290087Y0313438D01*
X0290216Y0313459D01*
X0290346Y0313477D01*
X0290477Y0313491D01*
X0290608Y0313500D01*
X0290739Y0313506D01*
X0290870Y0313508D01*
X0290870Y0362720D02*
X0294807Y0362720D01*
X0290870Y0362721D02*
X0290739Y0362723D01*
X0290608Y0362729D01*
X0290477Y0362738D01*
X0290346Y0362752D01*
X0290216Y0362770D01*
X0290087Y0362791D01*
X0289958Y0362816D01*
X0289830Y0362845D01*
X0289703Y0362878D01*
X0289576Y0362914D01*
X0289452Y0362954D01*
X0289328Y0362998D01*
X0289205Y0363046D01*
X0289085Y0363097D01*
X0288965Y0363152D01*
X0288848Y0363210D01*
X0288732Y0363271D01*
X0288618Y0363336D01*
X0288506Y0363405D01*
X0288396Y0363477D01*
X0288288Y0363551D01*
X0288182Y0363630D01*
X0288079Y0363711D01*
X0287979Y0363795D01*
X0287881Y0363882D01*
X0287785Y0363972D01*
X0287692Y0364065D01*
X0287602Y0364161D01*
X0287515Y0364259D01*
X0287431Y0364359D01*
X0287350Y0364462D01*
X0287271Y0364568D01*
X0287197Y0364676D01*
X0287125Y0364786D01*
X0287056Y0364898D01*
X0286991Y0365012D01*
X0286930Y0365128D01*
X0286872Y0365245D01*
X0286817Y0365365D01*
X0286766Y0365485D01*
X0286718Y0365608D01*
X0286674Y0365732D01*
X0286634Y0365856D01*
X0286598Y0365983D01*
X0286565Y0366110D01*
X0286536Y0366238D01*
X0286511Y0366367D01*
X0286490Y0366496D01*
X0286472Y0366626D01*
X0286458Y0366757D01*
X0286449Y0366888D01*
X0286443Y0367019D01*
X0286441Y0367150D01*
X0286443Y0367281D01*
X0286449Y0367412D01*
X0286458Y0367543D01*
X0286472Y0367674D01*
X0286490Y0367804D01*
X0286511Y0367933D01*
X0286536Y0368062D01*
X0286565Y0368190D01*
X0286598Y0368317D01*
X0286634Y0368444D01*
X0286674Y0368568D01*
X0286718Y0368692D01*
X0286766Y0368815D01*
X0286817Y0368935D01*
X0286872Y0369055D01*
X0286930Y0369172D01*
X0286991Y0369288D01*
X0287056Y0369402D01*
X0287125Y0369514D01*
X0287197Y0369624D01*
X0287271Y0369732D01*
X0287350Y0369838D01*
X0287431Y0369941D01*
X0287515Y0370041D01*
X0287602Y0370139D01*
X0287692Y0370235D01*
X0287785Y0370328D01*
X0287881Y0370418D01*
X0287979Y0370505D01*
X0288079Y0370589D01*
X0288182Y0370670D01*
X0288288Y0370749D01*
X0288396Y0370823D01*
X0288506Y0370895D01*
X0288618Y0370964D01*
X0288732Y0371029D01*
X0288848Y0371090D01*
X0288965Y0371148D01*
X0289085Y0371203D01*
X0289205Y0371254D01*
X0289328Y0371302D01*
X0289452Y0371346D01*
X0289576Y0371386D01*
X0289703Y0371422D01*
X0289830Y0371455D01*
X0289958Y0371484D01*
X0290087Y0371509D01*
X0290216Y0371530D01*
X0290346Y0371548D01*
X0290477Y0371562D01*
X0290608Y0371571D01*
X0290739Y0371577D01*
X0290870Y0371579D01*
X0332209Y0245594D02*
X0344020Y0245594D01*
D13*
X0385814Y0326804D02*
X0385814Y0329106D01*
X0386581Y0329874D01*
X0387349Y0329874D01*
X0388116Y0329106D01*
X0388116Y0326804D01*
X0385814Y0326804D02*
X0390418Y0326804D01*
X0390418Y0329106D01*
X0389651Y0329874D01*
X0388883Y0329874D01*
X0388116Y0329106D01*
X0388116Y0331408D02*
X0388116Y0334478D01*
X0388883Y0334478D02*
X0385814Y0334478D01*
X0385814Y0337547D02*
X0390418Y0337547D01*
X0390418Y0339081D02*
X0390418Y0336012D01*
X0388883Y0334478D02*
X0390418Y0332943D01*
X0388883Y0331408D01*
X0385814Y0331408D01*
X0390418Y0340616D02*
X0390418Y0343685D01*
X0390418Y0342151D02*
X0385814Y0342151D01*
X0385814Y0345220D02*
X0385814Y0348289D01*
X0385814Y0346755D02*
X0390418Y0346755D01*
X0388883Y0345220D01*
X0272151Y0347745D02*
X0269081Y0347745D01*
X0270616Y0346210D02*
X0270616Y0349280D01*
X0270616Y0336780D02*
X0270616Y0333710D01*
D14*
X0267012Y0291106D02*
X0291106Y0291106D01*
X0291106Y0267012D01*
X0275043Y0267012D01*
X0267012Y0275043D02*
X0267012Y0291106D01*
X0385122Y0291106D02*
X0385122Y0267012D01*
X0409217Y0267012D01*
X0409217Y0283075D01*
X0401185Y0291106D02*
X0385122Y0291106D01*
D15*
X0410359Y0296776D02*
X0410361Y0296832D01*
X0410367Y0296887D01*
X0410377Y0296941D01*
X0410390Y0296995D01*
X0410408Y0297048D01*
X0410429Y0297099D01*
X0410453Y0297149D01*
X0410481Y0297197D01*
X0410513Y0297243D01*
X0410547Y0297287D01*
X0410585Y0297328D01*
X0410625Y0297366D01*
X0410668Y0297401D01*
X0410713Y0297433D01*
X0410761Y0297462D01*
X0410810Y0297488D01*
X0410861Y0297510D01*
X0410913Y0297528D01*
X0410967Y0297542D01*
X0411022Y0297553D01*
X0411077Y0297560D01*
X0411132Y0297563D01*
X0411188Y0297562D01*
X0411243Y0297557D01*
X0411298Y0297548D01*
X0411352Y0297536D01*
X0411405Y0297519D01*
X0411457Y0297499D01*
X0411507Y0297475D01*
X0411555Y0297448D01*
X0411602Y0297418D01*
X0411646Y0297384D01*
X0411688Y0297347D01*
X0411726Y0297307D01*
X0411763Y0297265D01*
X0411796Y0297220D01*
X0411825Y0297174D01*
X0411852Y0297125D01*
X0411874Y0297074D01*
X0411894Y0297022D01*
X0411909Y0296968D01*
X0411921Y0296914D01*
X0411929Y0296859D01*
X0411933Y0296804D01*
X0411933Y0296748D01*
X0411929Y0296693D01*
X0411921Y0296638D01*
X0411909Y0296584D01*
X0411894Y0296530D01*
X0411874Y0296478D01*
X0411852Y0296427D01*
X0411825Y0296378D01*
X0411796Y0296332D01*
X0411763Y0296287D01*
X0411726Y0296245D01*
X0411688Y0296205D01*
X0411646Y0296168D01*
X0411602Y0296134D01*
X0411555Y0296104D01*
X0411507Y0296077D01*
X0411457Y0296053D01*
X0411405Y0296033D01*
X0411352Y0296016D01*
X0411298Y0296004D01*
X0411243Y0295995D01*
X0411188Y0295990D01*
X0411132Y0295989D01*
X0411077Y0295992D01*
X0411022Y0295999D01*
X0410967Y0296010D01*
X0410913Y0296024D01*
X0410861Y0296042D01*
X0410810Y0296064D01*
X0410761Y0296090D01*
X0410713Y0296119D01*
X0410668Y0296151D01*
X0410625Y0296186D01*
X0410585Y0296224D01*
X0410547Y0296265D01*
X0410513Y0296309D01*
X0410481Y0296355D01*
X0410453Y0296403D01*
X0410429Y0296453D01*
X0410408Y0296504D01*
X0410390Y0296557D01*
X0410377Y0296611D01*
X0410367Y0296665D01*
X0410361Y0296720D01*
X0410359Y0296776D01*
X0264296Y0261343D02*
X0264298Y0261399D01*
X0264304Y0261454D01*
X0264314Y0261508D01*
X0264327Y0261562D01*
X0264345Y0261615D01*
X0264366Y0261666D01*
X0264390Y0261716D01*
X0264418Y0261764D01*
X0264450Y0261810D01*
X0264484Y0261854D01*
X0264522Y0261895D01*
X0264562Y0261933D01*
X0264605Y0261968D01*
X0264650Y0262000D01*
X0264698Y0262029D01*
X0264747Y0262055D01*
X0264798Y0262077D01*
X0264850Y0262095D01*
X0264904Y0262109D01*
X0264959Y0262120D01*
X0265014Y0262127D01*
X0265069Y0262130D01*
X0265125Y0262129D01*
X0265180Y0262124D01*
X0265235Y0262115D01*
X0265289Y0262103D01*
X0265342Y0262086D01*
X0265394Y0262066D01*
X0265444Y0262042D01*
X0265492Y0262015D01*
X0265539Y0261985D01*
X0265583Y0261951D01*
X0265625Y0261914D01*
X0265663Y0261874D01*
X0265700Y0261832D01*
X0265733Y0261787D01*
X0265762Y0261741D01*
X0265789Y0261692D01*
X0265811Y0261641D01*
X0265831Y0261589D01*
X0265846Y0261535D01*
X0265858Y0261481D01*
X0265866Y0261426D01*
X0265870Y0261371D01*
X0265870Y0261315D01*
X0265866Y0261260D01*
X0265858Y0261205D01*
X0265846Y0261151D01*
X0265831Y0261097D01*
X0265811Y0261045D01*
X0265789Y0260994D01*
X0265762Y0260945D01*
X0265733Y0260899D01*
X0265700Y0260854D01*
X0265663Y0260812D01*
X0265625Y0260772D01*
X0265583Y0260735D01*
X0265539Y0260701D01*
X0265492Y0260671D01*
X0265444Y0260644D01*
X0265394Y0260620D01*
X0265342Y0260600D01*
X0265289Y0260583D01*
X0265235Y0260571D01*
X0265180Y0260562D01*
X0265125Y0260557D01*
X0265069Y0260556D01*
X0265014Y0260559D01*
X0264959Y0260566D01*
X0264904Y0260577D01*
X0264850Y0260591D01*
X0264798Y0260609D01*
X0264747Y0260631D01*
X0264698Y0260657D01*
X0264650Y0260686D01*
X0264605Y0260718D01*
X0264562Y0260753D01*
X0264522Y0260791D01*
X0264484Y0260832D01*
X0264450Y0260876D01*
X0264418Y0260922D01*
X0264390Y0260970D01*
X0264366Y0261020D01*
X0264345Y0261071D01*
X0264327Y0261124D01*
X0264314Y0261178D01*
X0264304Y0261232D01*
X0264298Y0261287D01*
X0264296Y0261343D01*
D16*
X0272169Y0279059D02*
X0272171Y0279228D01*
X0272177Y0279397D01*
X0272188Y0279566D01*
X0272202Y0279734D01*
X0272221Y0279902D01*
X0272244Y0280070D01*
X0272270Y0280237D01*
X0272301Y0280403D01*
X0272336Y0280569D01*
X0272375Y0280733D01*
X0272419Y0280897D01*
X0272466Y0281059D01*
X0272517Y0281220D01*
X0272572Y0281380D01*
X0272631Y0281539D01*
X0272693Y0281696D01*
X0272760Y0281851D01*
X0272831Y0282005D01*
X0272905Y0282157D01*
X0272983Y0282307D01*
X0273064Y0282455D01*
X0273149Y0282601D01*
X0273238Y0282745D01*
X0273330Y0282887D01*
X0273426Y0283026D01*
X0273525Y0283163D01*
X0273627Y0283298D01*
X0273733Y0283430D01*
X0273842Y0283559D01*
X0273954Y0283686D01*
X0274069Y0283810D01*
X0274187Y0283931D01*
X0274308Y0284049D01*
X0274432Y0284164D01*
X0274559Y0284276D01*
X0274688Y0284385D01*
X0274820Y0284491D01*
X0274955Y0284593D01*
X0275092Y0284692D01*
X0275231Y0284788D01*
X0275373Y0284880D01*
X0275517Y0284969D01*
X0275663Y0285054D01*
X0275811Y0285135D01*
X0275961Y0285213D01*
X0276113Y0285287D01*
X0276267Y0285358D01*
X0276422Y0285425D01*
X0276579Y0285487D01*
X0276738Y0285546D01*
X0276898Y0285601D01*
X0277059Y0285652D01*
X0277221Y0285699D01*
X0277385Y0285743D01*
X0277549Y0285782D01*
X0277715Y0285817D01*
X0277881Y0285848D01*
X0278048Y0285874D01*
X0278216Y0285897D01*
X0278384Y0285916D01*
X0278552Y0285930D01*
X0278721Y0285941D01*
X0278890Y0285947D01*
X0279059Y0285949D01*
X0279228Y0285947D01*
X0279397Y0285941D01*
X0279566Y0285930D01*
X0279734Y0285916D01*
X0279902Y0285897D01*
X0280070Y0285874D01*
X0280237Y0285848D01*
X0280403Y0285817D01*
X0280569Y0285782D01*
X0280733Y0285743D01*
X0280897Y0285699D01*
X0281059Y0285652D01*
X0281220Y0285601D01*
X0281380Y0285546D01*
X0281539Y0285487D01*
X0281696Y0285425D01*
X0281851Y0285358D01*
X0282005Y0285287D01*
X0282157Y0285213D01*
X0282307Y0285135D01*
X0282455Y0285054D01*
X0282601Y0284969D01*
X0282745Y0284880D01*
X0282887Y0284788D01*
X0283026Y0284692D01*
X0283163Y0284593D01*
X0283298Y0284491D01*
X0283430Y0284385D01*
X0283559Y0284276D01*
X0283686Y0284164D01*
X0283810Y0284049D01*
X0283931Y0283931D01*
X0284049Y0283810D01*
X0284164Y0283686D01*
X0284276Y0283559D01*
X0284385Y0283430D01*
X0284491Y0283298D01*
X0284593Y0283163D01*
X0284692Y0283026D01*
X0284788Y0282887D01*
X0284880Y0282745D01*
X0284969Y0282601D01*
X0285054Y0282455D01*
X0285135Y0282307D01*
X0285213Y0282157D01*
X0285287Y0282005D01*
X0285358Y0281851D01*
X0285425Y0281696D01*
X0285487Y0281539D01*
X0285546Y0281380D01*
X0285601Y0281220D01*
X0285652Y0281059D01*
X0285699Y0280897D01*
X0285743Y0280733D01*
X0285782Y0280569D01*
X0285817Y0280403D01*
X0285848Y0280237D01*
X0285874Y0280070D01*
X0285897Y0279902D01*
X0285916Y0279734D01*
X0285930Y0279566D01*
X0285941Y0279397D01*
X0285947Y0279228D01*
X0285949Y0279059D01*
X0285947Y0278890D01*
X0285941Y0278721D01*
X0285930Y0278552D01*
X0285916Y0278384D01*
X0285897Y0278216D01*
X0285874Y0278048D01*
X0285848Y0277881D01*
X0285817Y0277715D01*
X0285782Y0277549D01*
X0285743Y0277385D01*
X0285699Y0277221D01*
X0285652Y0277059D01*
X0285601Y0276898D01*
X0285546Y0276738D01*
X0285487Y0276579D01*
X0285425Y0276422D01*
X0285358Y0276267D01*
X0285287Y0276113D01*
X0285213Y0275961D01*
X0285135Y0275811D01*
X0285054Y0275663D01*
X0284969Y0275517D01*
X0284880Y0275373D01*
X0284788Y0275231D01*
X0284692Y0275092D01*
X0284593Y0274955D01*
X0284491Y0274820D01*
X0284385Y0274688D01*
X0284276Y0274559D01*
X0284164Y0274432D01*
X0284049Y0274308D01*
X0283931Y0274187D01*
X0283810Y0274069D01*
X0283686Y0273954D01*
X0283559Y0273842D01*
X0283430Y0273733D01*
X0283298Y0273627D01*
X0283163Y0273525D01*
X0283026Y0273426D01*
X0282887Y0273330D01*
X0282745Y0273238D01*
X0282601Y0273149D01*
X0282455Y0273064D01*
X0282307Y0272983D01*
X0282157Y0272905D01*
X0282005Y0272831D01*
X0281851Y0272760D01*
X0281696Y0272693D01*
X0281539Y0272631D01*
X0281380Y0272572D01*
X0281220Y0272517D01*
X0281059Y0272466D01*
X0280897Y0272419D01*
X0280733Y0272375D01*
X0280569Y0272336D01*
X0280403Y0272301D01*
X0280237Y0272270D01*
X0280070Y0272244D01*
X0279902Y0272221D01*
X0279734Y0272202D01*
X0279566Y0272188D01*
X0279397Y0272177D01*
X0279228Y0272171D01*
X0279059Y0272169D01*
X0278890Y0272171D01*
X0278721Y0272177D01*
X0278552Y0272188D01*
X0278384Y0272202D01*
X0278216Y0272221D01*
X0278048Y0272244D01*
X0277881Y0272270D01*
X0277715Y0272301D01*
X0277549Y0272336D01*
X0277385Y0272375D01*
X0277221Y0272419D01*
X0277059Y0272466D01*
X0276898Y0272517D01*
X0276738Y0272572D01*
X0276579Y0272631D01*
X0276422Y0272693D01*
X0276267Y0272760D01*
X0276113Y0272831D01*
X0275961Y0272905D01*
X0275811Y0272983D01*
X0275663Y0273064D01*
X0275517Y0273149D01*
X0275373Y0273238D01*
X0275231Y0273330D01*
X0275092Y0273426D01*
X0274955Y0273525D01*
X0274820Y0273627D01*
X0274688Y0273733D01*
X0274559Y0273842D01*
X0274432Y0273954D01*
X0274308Y0274069D01*
X0274187Y0274187D01*
X0274069Y0274308D01*
X0273954Y0274432D01*
X0273842Y0274559D01*
X0273733Y0274688D01*
X0273627Y0274820D01*
X0273525Y0274955D01*
X0273426Y0275092D01*
X0273330Y0275231D01*
X0273238Y0275373D01*
X0273149Y0275517D01*
X0273064Y0275663D01*
X0272983Y0275811D01*
X0272905Y0275961D01*
X0272831Y0276113D01*
X0272760Y0276267D01*
X0272693Y0276422D01*
X0272631Y0276579D01*
X0272572Y0276738D01*
X0272517Y0276898D01*
X0272466Y0277059D01*
X0272419Y0277221D01*
X0272375Y0277385D01*
X0272336Y0277549D01*
X0272301Y0277715D01*
X0272270Y0277881D01*
X0272244Y0278048D01*
X0272221Y0278216D01*
X0272202Y0278384D01*
X0272188Y0278552D01*
X0272177Y0278721D01*
X0272171Y0278890D01*
X0272169Y0279059D01*
X0390279Y0279059D02*
X0390281Y0279228D01*
X0390287Y0279397D01*
X0390298Y0279566D01*
X0390312Y0279734D01*
X0390331Y0279902D01*
X0390354Y0280070D01*
X0390380Y0280237D01*
X0390411Y0280403D01*
X0390446Y0280569D01*
X0390485Y0280733D01*
X0390529Y0280897D01*
X0390576Y0281059D01*
X0390627Y0281220D01*
X0390682Y0281380D01*
X0390741Y0281539D01*
X0390803Y0281696D01*
X0390870Y0281851D01*
X0390941Y0282005D01*
X0391015Y0282157D01*
X0391093Y0282307D01*
X0391174Y0282455D01*
X0391259Y0282601D01*
X0391348Y0282745D01*
X0391440Y0282887D01*
X0391536Y0283026D01*
X0391635Y0283163D01*
X0391737Y0283298D01*
X0391843Y0283430D01*
X0391952Y0283559D01*
X0392064Y0283686D01*
X0392179Y0283810D01*
X0392297Y0283931D01*
X0392418Y0284049D01*
X0392542Y0284164D01*
X0392669Y0284276D01*
X0392798Y0284385D01*
X0392930Y0284491D01*
X0393065Y0284593D01*
X0393202Y0284692D01*
X0393341Y0284788D01*
X0393483Y0284880D01*
X0393627Y0284969D01*
X0393773Y0285054D01*
X0393921Y0285135D01*
X0394071Y0285213D01*
X0394223Y0285287D01*
X0394377Y0285358D01*
X0394532Y0285425D01*
X0394689Y0285487D01*
X0394848Y0285546D01*
X0395008Y0285601D01*
X0395169Y0285652D01*
X0395331Y0285699D01*
X0395495Y0285743D01*
X0395659Y0285782D01*
X0395825Y0285817D01*
X0395991Y0285848D01*
X0396158Y0285874D01*
X0396326Y0285897D01*
X0396494Y0285916D01*
X0396662Y0285930D01*
X0396831Y0285941D01*
X0397000Y0285947D01*
X0397169Y0285949D01*
X0397338Y0285947D01*
X0397507Y0285941D01*
X0397676Y0285930D01*
X0397844Y0285916D01*
X0398012Y0285897D01*
X0398180Y0285874D01*
X0398347Y0285848D01*
X0398513Y0285817D01*
X0398679Y0285782D01*
X0398843Y0285743D01*
X0399007Y0285699D01*
X0399169Y0285652D01*
X0399330Y0285601D01*
X0399490Y0285546D01*
X0399649Y0285487D01*
X0399806Y0285425D01*
X0399961Y0285358D01*
X0400115Y0285287D01*
X0400267Y0285213D01*
X0400417Y0285135D01*
X0400565Y0285054D01*
X0400711Y0284969D01*
X0400855Y0284880D01*
X0400997Y0284788D01*
X0401136Y0284692D01*
X0401273Y0284593D01*
X0401408Y0284491D01*
X0401540Y0284385D01*
X0401669Y0284276D01*
X0401796Y0284164D01*
X0401920Y0284049D01*
X0402041Y0283931D01*
X0402159Y0283810D01*
X0402274Y0283686D01*
X0402386Y0283559D01*
X0402495Y0283430D01*
X0402601Y0283298D01*
X0402703Y0283163D01*
X0402802Y0283026D01*
X0402898Y0282887D01*
X0402990Y0282745D01*
X0403079Y0282601D01*
X0403164Y0282455D01*
X0403245Y0282307D01*
X0403323Y0282157D01*
X0403397Y0282005D01*
X0403468Y0281851D01*
X0403535Y0281696D01*
X0403597Y0281539D01*
X0403656Y0281380D01*
X0403711Y0281220D01*
X0403762Y0281059D01*
X0403809Y0280897D01*
X0403853Y0280733D01*
X0403892Y0280569D01*
X0403927Y0280403D01*
X0403958Y0280237D01*
X0403984Y0280070D01*
X0404007Y0279902D01*
X0404026Y0279734D01*
X0404040Y0279566D01*
X0404051Y0279397D01*
X0404057Y0279228D01*
X0404059Y0279059D01*
X0404057Y0278890D01*
X0404051Y0278721D01*
X0404040Y0278552D01*
X0404026Y0278384D01*
X0404007Y0278216D01*
X0403984Y0278048D01*
X0403958Y0277881D01*
X0403927Y0277715D01*
X0403892Y0277549D01*
X0403853Y0277385D01*
X0403809Y0277221D01*
X0403762Y0277059D01*
X0403711Y0276898D01*
X0403656Y0276738D01*
X0403597Y0276579D01*
X0403535Y0276422D01*
X0403468Y0276267D01*
X0403397Y0276113D01*
X0403323Y0275961D01*
X0403245Y0275811D01*
X0403164Y0275663D01*
X0403079Y0275517D01*
X0402990Y0275373D01*
X0402898Y0275231D01*
X0402802Y0275092D01*
X0402703Y0274955D01*
X0402601Y0274820D01*
X0402495Y0274688D01*
X0402386Y0274559D01*
X0402274Y0274432D01*
X0402159Y0274308D01*
X0402041Y0274187D01*
X0401920Y0274069D01*
X0401796Y0273954D01*
X0401669Y0273842D01*
X0401540Y0273733D01*
X0401408Y0273627D01*
X0401273Y0273525D01*
X0401136Y0273426D01*
X0400997Y0273330D01*
X0400855Y0273238D01*
X0400711Y0273149D01*
X0400565Y0273064D01*
X0400417Y0272983D01*
X0400267Y0272905D01*
X0400115Y0272831D01*
X0399961Y0272760D01*
X0399806Y0272693D01*
X0399649Y0272631D01*
X0399490Y0272572D01*
X0399330Y0272517D01*
X0399169Y0272466D01*
X0399007Y0272419D01*
X0398843Y0272375D01*
X0398679Y0272336D01*
X0398513Y0272301D01*
X0398347Y0272270D01*
X0398180Y0272244D01*
X0398012Y0272221D01*
X0397844Y0272202D01*
X0397676Y0272188D01*
X0397507Y0272177D01*
X0397338Y0272171D01*
X0397169Y0272169D01*
X0397000Y0272171D01*
X0396831Y0272177D01*
X0396662Y0272188D01*
X0396494Y0272202D01*
X0396326Y0272221D01*
X0396158Y0272244D01*
X0395991Y0272270D01*
X0395825Y0272301D01*
X0395659Y0272336D01*
X0395495Y0272375D01*
X0395331Y0272419D01*
X0395169Y0272466D01*
X0395008Y0272517D01*
X0394848Y0272572D01*
X0394689Y0272631D01*
X0394532Y0272693D01*
X0394377Y0272760D01*
X0394223Y0272831D01*
X0394071Y0272905D01*
X0393921Y0272983D01*
X0393773Y0273064D01*
X0393627Y0273149D01*
X0393483Y0273238D01*
X0393341Y0273330D01*
X0393202Y0273426D01*
X0393065Y0273525D01*
X0392930Y0273627D01*
X0392798Y0273733D01*
X0392669Y0273842D01*
X0392542Y0273954D01*
X0392418Y0274069D01*
X0392297Y0274187D01*
X0392179Y0274308D01*
X0392064Y0274432D01*
X0391952Y0274559D01*
X0391843Y0274688D01*
X0391737Y0274820D01*
X0391635Y0274955D01*
X0391536Y0275092D01*
X0391440Y0275231D01*
X0391348Y0275373D01*
X0391259Y0275517D01*
X0391174Y0275663D01*
X0391093Y0275811D01*
X0391015Y0275961D01*
X0390941Y0276113D01*
X0390870Y0276267D01*
X0390803Y0276422D01*
X0390741Y0276579D01*
X0390682Y0276738D01*
X0390627Y0276898D01*
X0390576Y0277059D01*
X0390529Y0277221D01*
X0390485Y0277385D01*
X0390446Y0277549D01*
X0390411Y0277715D01*
X0390380Y0277881D01*
X0390354Y0278048D01*
X0390331Y0278216D01*
X0390312Y0278384D01*
X0390298Y0278552D01*
X0390287Y0278721D01*
X0390281Y0278890D01*
X0390279Y0279059D01*
M02*
