G75*
%MOIN*%
%OFA0B0*%
%FSLAX25Y25*%
%IPPOS*%
%LPD*%
%AMOC8*
5,1,8,0,0,1.08239X$1,22.5*
%
%ADD10C,0.01600*%
%ADD11C,0.00000*%
%ADD12C,0.00500*%
%ADD13C,0.00400*%
%ADD14C,0.00472*%
%ADD15C,0.00787*%
%ADD16C,0.00800*%
%ADD17C,0.00394*%
%ADD18C,0.00197*%
%ADD19C,0.00600*%
%ADD20C,0.00700*%
D10*
X0106540Y0093548D02*
X0106938Y0093473D01*
X0107338Y0093409D01*
X0107740Y0093354D01*
X0108143Y0093308D01*
X0108547Y0093273D01*
X0108952Y0093248D01*
X0109357Y0093232D01*
X0109763Y0093227D01*
X0110168Y0093232D01*
X0110573Y0093246D01*
X0110978Y0093270D01*
X0111382Y0093305D01*
X0111785Y0093349D01*
X0112187Y0093403D01*
X0112588Y0093467D01*
X0112987Y0093540D01*
X0113383Y0093624D01*
X0113778Y0093717D01*
X0114170Y0093820D01*
X0114560Y0093932D01*
X0114947Y0094054D01*
X0115330Y0094186D01*
X0115711Y0094326D01*
X0116087Y0094476D01*
X0116460Y0094636D01*
X0116829Y0094804D01*
X0117194Y0094981D01*
X0117554Y0095167D01*
X0117910Y0095362D01*
X0118261Y0095566D01*
X0118606Y0095778D01*
X0118946Y0095999D01*
X0119281Y0096228D01*
X0119610Y0096465D01*
X0119933Y0096710D01*
X0120250Y0096963D01*
X0120561Y0097223D01*
X0120865Y0097491D01*
X0121163Y0097767D01*
X0121454Y0098049D01*
X0121738Y0098339D01*
X0122014Y0098636D01*
X0122283Y0098939D01*
X0122545Y0099249D01*
X0122799Y0099565D01*
X0123045Y0099887D01*
X0123283Y0100215D01*
X0123513Y0100549D01*
X0123735Y0100889D01*
X0123949Y0101234D01*
X0124153Y0101584D01*
X0124350Y0101939D01*
X0124537Y0102298D01*
X0124716Y0102662D01*
X0124885Y0103031D01*
X0125046Y0103403D01*
X0125197Y0103779D01*
X0125339Y0104159D01*
X0125472Y0104542D01*
X0125596Y0104928D01*
X0125709Y0105318D01*
X0125814Y0105710D01*
X0125908Y0106104D01*
X0125993Y0106501D01*
X0126068Y0106899D01*
X0126133Y0107299D01*
X0126189Y0107701D01*
X0126235Y0108104D01*
X0126270Y0108508D01*
X0126296Y0108913D01*
X0126312Y0109318D01*
X0126318Y0109723D01*
X0126314Y0110129D01*
X0126300Y0110534D01*
X0126276Y0110939D01*
X0126242Y0111343D01*
X0126199Y0111746D01*
X0126145Y0112148D01*
X0126082Y0112549D01*
X0126008Y0112948D01*
X0125925Y0113344D01*
X0125833Y0113739D01*
X0125730Y0114132D01*
X0125619Y0114521D01*
X0125497Y0114908D01*
X0125366Y0115292D01*
X0125226Y0115673D01*
X0125076Y0116050D01*
X0124918Y0116423D01*
X0124750Y0116792D01*
X0124573Y0117157D01*
X0124387Y0117517D01*
X0124193Y0117873D01*
X0123989Y0118224D01*
X0123778Y0118570D01*
X0123557Y0118910D01*
X0123329Y0119246D01*
X0123092Y0119575D01*
X0122848Y0119898D01*
X0122595Y0120216D01*
X0122335Y0120527D01*
X0122067Y0120831D01*
X0121792Y0121129D01*
X0121510Y0121420D01*
X0121221Y0121704D01*
X0120924Y0121981D01*
X0120621Y0122251D01*
X0120312Y0122513D01*
X0119996Y0122767D01*
X0119674Y0123014D01*
X0119346Y0123252D01*
X0119013Y0123483D01*
X0118673Y0123705D01*
X0118329Y0123919D01*
X0117979Y0124124D01*
X0117624Y0124321D01*
X0117265Y0124509D01*
X0116901Y0124688D01*
X0116533Y0124858D01*
X0116161Y0125019D01*
X0115785Y0125171D01*
X0115405Y0125314D01*
X0115022Y0125447D01*
X0114636Y0125571D01*
X0114247Y0125685D01*
X0113855Y0125789D01*
X0113461Y0125885D01*
X0113065Y0125970D01*
X0112666Y0126046D01*
X0112266Y0126111D01*
X0111864Y0126167D01*
X0111461Y0126213D01*
X0111058Y0126250D01*
X0110653Y0126276D01*
X0110248Y0126292D01*
X0109842Y0126299D01*
X0109437Y0126295D01*
X0109031Y0126282D01*
X0108627Y0126259D01*
X0108222Y0126225D01*
X0107819Y0126182D01*
X0107417Y0126129D01*
X0107016Y0126066D01*
X0106618Y0125993D01*
X0106220Y0125911D01*
X0105826Y0125819D01*
X0105433Y0125717D01*
X0105043Y0125605D01*
X0104656Y0125484D01*
X0104272Y0125354D01*
X0103891Y0125214D01*
X0103514Y0125065D01*
X0103141Y0124907D01*
X0102772Y0124739D01*
X0102406Y0124563D01*
X0102046Y0124378D01*
X0101690Y0124184D01*
X0101338Y0123981D01*
X0100992Y0123769D01*
X0100652Y0123550D01*
X0100316Y0123322D01*
X0099987Y0123086D01*
X0099663Y0122841D01*
X0099345Y0122589D01*
X0099034Y0122329D01*
X0098729Y0122062D01*
X0098431Y0121787D01*
X0098139Y0121505D01*
X0097855Y0121216D01*
X0097577Y0120920D01*
X0097308Y0120618D01*
X0097045Y0120309D01*
X0096790Y0119993D01*
X0096543Y0119671D01*
X0096304Y0119344D01*
X0096073Y0119010D01*
X0095851Y0118672D01*
X0095637Y0118327D01*
X0095431Y0117978D01*
X0095234Y0117623D01*
X0095045Y0117264D01*
X0094866Y0116901D01*
X0094695Y0116533D01*
X0094534Y0116161D01*
X0094381Y0115785D01*
X0094238Y0115405D01*
X0094105Y0115023D01*
X0093980Y0114637D01*
X0093866Y0114248D01*
X0093761Y0113856D01*
X0093665Y0113462D01*
X0093579Y0113066D01*
X0093503Y0112667D01*
X0093437Y0112267D01*
X0093380Y0111866D01*
X0093334Y0111463D01*
X0093297Y0111059D01*
X0093270Y0110654D01*
X0093253Y0110249D01*
X0093246Y0109844D01*
X0093249Y0109438D01*
X0093262Y0109033D01*
X0093285Y0108628D01*
X0093318Y0108224D01*
X0093361Y0107820D01*
X0093413Y0107418D01*
X0093475Y0107018D01*
X0093548Y0106619D01*
X0094020Y0105831D02*
X0093733Y0106028D01*
X0093450Y0106232D01*
X0093172Y0106442D01*
X0092900Y0106660D01*
X0092633Y0106884D01*
X0092372Y0107114D01*
X0092117Y0107351D01*
X0091867Y0107594D01*
X0091624Y0107843D01*
X0091386Y0108098D01*
X0091155Y0108359D01*
X0090931Y0108625D01*
X0090713Y0108897D01*
X0090501Y0109174D01*
X0090297Y0109456D01*
X0090100Y0109743D01*
X0089909Y0110035D01*
X0089726Y0110332D01*
X0089550Y0110632D01*
X0089382Y0110937D01*
X0089221Y0111247D01*
X0089068Y0111559D01*
X0088923Y0111876D01*
X0088785Y0112196D01*
X0088656Y0112519D01*
X0088534Y0112846D01*
X0088420Y0113175D01*
X0088315Y0113507D01*
X0088217Y0113842D01*
X0088128Y0114178D01*
X0088047Y0114517D01*
X0087975Y0114858D01*
X0087911Y0115201D01*
X0087855Y0115544D01*
X0087808Y0115890D01*
X0087769Y0116236D01*
X0087739Y0116583D01*
X0087717Y0116931D01*
X0087704Y0117279D01*
X0087699Y0117627D01*
X0087703Y0117976D01*
X0087715Y0118324D01*
X0087736Y0118671D01*
X0087766Y0119019D01*
X0087804Y0119365D01*
X0087850Y0119710D01*
X0087905Y0120054D01*
X0087969Y0120397D01*
X0088041Y0120738D01*
X0088121Y0121077D01*
X0088209Y0121414D01*
X0088306Y0121748D01*
X0088411Y0122081D01*
X0088524Y0122410D01*
X0088645Y0122737D01*
X0088774Y0123060D01*
X0088911Y0123381D01*
X0089056Y0123698D01*
X0089208Y0124011D01*
X0089368Y0124320D01*
X0089536Y0124626D01*
X0089711Y0124927D01*
X0089893Y0125224D01*
X0090083Y0125516D01*
X0157012Y0192445D01*
X0192445Y0157012D02*
X0125516Y0090083D01*
X0125228Y0089896D01*
X0124936Y0089716D01*
X0124640Y0089544D01*
X0124339Y0089378D01*
X0124035Y0089220D01*
X0123727Y0089069D01*
X0123415Y0088926D01*
X0123100Y0088790D01*
X0122782Y0088662D01*
X0122461Y0088542D01*
X0122137Y0088429D01*
X0121810Y0088325D01*
X0121481Y0088228D01*
X0121149Y0088139D01*
X0120816Y0088058D01*
X0120481Y0087986D01*
X0120144Y0087921D01*
X0119806Y0087865D01*
X0119466Y0087817D01*
X0119125Y0087777D01*
X0118784Y0087745D01*
X0118441Y0087722D01*
X0118099Y0087706D01*
X0117756Y0087699D01*
X0117413Y0087701D01*
X0117070Y0087711D01*
X0116727Y0087729D01*
X0116385Y0087755D01*
X0116044Y0087789D01*
X0115704Y0087832D01*
X0115364Y0087883D01*
X0115027Y0087942D01*
X0114690Y0088009D01*
X0114356Y0088085D01*
X0114023Y0088168D01*
X0113692Y0088260D01*
X0113364Y0088359D01*
X0113038Y0088466D01*
X0112715Y0088582D01*
X0112395Y0088704D01*
X0112078Y0088835D01*
X0111764Y0088973D01*
X0111453Y0089119D01*
X0111146Y0089272D01*
X0110843Y0089433D01*
X0110544Y0089601D01*
X0110249Y0089776D01*
X0109958Y0089958D01*
X0109672Y0090147D01*
X0109391Y0090343D01*
X0109114Y0090546D01*
X0108842Y0090756D01*
X0108576Y0090972D01*
X0108314Y0091194D01*
X0108059Y0091422D01*
X0107808Y0091657D01*
X0107564Y0091898D01*
X0107325Y0092144D01*
X0107093Y0092396D01*
X0106866Y0092654D01*
X0106646Y0092917D01*
X0106432Y0093185D01*
X0106225Y0093459D01*
X0106025Y0093737D01*
X0105831Y0094020D01*
X0192445Y0157013D02*
X0197571Y0160510D01*
X0202781Y0163880D01*
X0208072Y0167122D01*
X0213441Y0170235D01*
X0218884Y0173215D01*
X0224398Y0176061D01*
X0229980Y0178771D01*
X0235627Y0181345D01*
X0241335Y0183779D01*
X0247100Y0186074D01*
X0252920Y0188227D01*
X0258791Y0190237D01*
X0264709Y0192103D01*
X0270672Y0193823D01*
X0276674Y0195398D01*
X0282713Y0196826D01*
X0288785Y0198105D01*
X0294886Y0199236D01*
X0301014Y0200218D01*
X0307163Y0201049D01*
X0313331Y0201730D01*
X0319514Y0202260D01*
X0325708Y0202639D01*
X0331909Y0202866D01*
X0338114Y0202942D01*
X0344319Y0202866D01*
X0350520Y0202639D01*
X0356714Y0202260D01*
X0362897Y0201730D01*
X0369065Y0201049D01*
X0375214Y0200218D01*
X0381342Y0199236D01*
X0387443Y0198105D01*
X0393515Y0196826D01*
X0399554Y0195398D01*
X0405556Y0193823D01*
X0411519Y0192103D01*
X0417437Y0190237D01*
X0423308Y0188227D01*
X0429128Y0186074D01*
X0434893Y0183779D01*
X0440601Y0181345D01*
X0446248Y0178771D01*
X0451830Y0176061D01*
X0457344Y0173215D01*
X0462787Y0170235D01*
X0468156Y0167122D01*
X0473447Y0163880D01*
X0478657Y0160510D01*
X0483783Y0157013D01*
X0483783Y0157012D02*
X0550713Y0090083D01*
X0551001Y0089896D01*
X0551293Y0089716D01*
X0551589Y0089544D01*
X0551890Y0089378D01*
X0552194Y0089220D01*
X0552502Y0089069D01*
X0552814Y0088926D01*
X0553129Y0088790D01*
X0553447Y0088662D01*
X0553768Y0088542D01*
X0554092Y0088429D01*
X0554419Y0088325D01*
X0554748Y0088228D01*
X0555080Y0088139D01*
X0555413Y0088058D01*
X0555748Y0087986D01*
X0556085Y0087921D01*
X0556423Y0087865D01*
X0556763Y0087817D01*
X0557104Y0087777D01*
X0557445Y0087745D01*
X0557788Y0087722D01*
X0558130Y0087706D01*
X0558473Y0087699D01*
X0558816Y0087701D01*
X0559159Y0087711D01*
X0559502Y0087729D01*
X0559844Y0087755D01*
X0560185Y0087789D01*
X0560525Y0087832D01*
X0560865Y0087883D01*
X0561202Y0087942D01*
X0561539Y0088009D01*
X0561873Y0088085D01*
X0562206Y0088168D01*
X0562537Y0088260D01*
X0562865Y0088359D01*
X0563191Y0088466D01*
X0563514Y0088582D01*
X0563834Y0088704D01*
X0564151Y0088835D01*
X0564465Y0088973D01*
X0564776Y0089119D01*
X0565083Y0089272D01*
X0565386Y0089433D01*
X0565685Y0089601D01*
X0565980Y0089776D01*
X0566271Y0089958D01*
X0566557Y0090147D01*
X0566838Y0090343D01*
X0567115Y0090546D01*
X0567387Y0090756D01*
X0567653Y0090972D01*
X0567915Y0091194D01*
X0568170Y0091422D01*
X0568421Y0091657D01*
X0568665Y0091898D01*
X0568904Y0092144D01*
X0569136Y0092396D01*
X0569363Y0092654D01*
X0569583Y0092917D01*
X0569797Y0093185D01*
X0570004Y0093459D01*
X0570204Y0093737D01*
X0570398Y0094020D01*
X0569610Y0093548D02*
X0569211Y0093475D01*
X0568811Y0093413D01*
X0568409Y0093361D01*
X0568005Y0093318D01*
X0567601Y0093285D01*
X0567196Y0093262D01*
X0566791Y0093249D01*
X0566385Y0093246D01*
X0565980Y0093253D01*
X0565575Y0093270D01*
X0565170Y0093297D01*
X0564766Y0093334D01*
X0564363Y0093380D01*
X0563962Y0093437D01*
X0563562Y0093503D01*
X0563163Y0093579D01*
X0562767Y0093665D01*
X0562373Y0093761D01*
X0561981Y0093866D01*
X0561592Y0093980D01*
X0561206Y0094105D01*
X0560824Y0094238D01*
X0560444Y0094381D01*
X0560068Y0094534D01*
X0559696Y0094695D01*
X0559328Y0094866D01*
X0558965Y0095045D01*
X0558606Y0095234D01*
X0558251Y0095431D01*
X0557902Y0095637D01*
X0557557Y0095851D01*
X0557219Y0096073D01*
X0556885Y0096304D01*
X0556558Y0096543D01*
X0556236Y0096790D01*
X0555920Y0097045D01*
X0555611Y0097308D01*
X0555309Y0097577D01*
X0555013Y0097855D01*
X0554724Y0098139D01*
X0554442Y0098431D01*
X0554167Y0098729D01*
X0553900Y0099034D01*
X0553640Y0099345D01*
X0553388Y0099663D01*
X0553143Y0099987D01*
X0552907Y0100316D01*
X0552679Y0100652D01*
X0552460Y0100992D01*
X0552248Y0101338D01*
X0552045Y0101690D01*
X0551851Y0102046D01*
X0551666Y0102406D01*
X0551490Y0102772D01*
X0551322Y0103141D01*
X0551164Y0103514D01*
X0551015Y0103891D01*
X0550875Y0104272D01*
X0550745Y0104656D01*
X0550624Y0105043D01*
X0550512Y0105433D01*
X0550410Y0105826D01*
X0550318Y0106220D01*
X0550236Y0106618D01*
X0550163Y0107016D01*
X0550100Y0107417D01*
X0550047Y0107819D01*
X0550004Y0108222D01*
X0549970Y0108627D01*
X0549947Y0109031D01*
X0549934Y0109437D01*
X0549930Y0109842D01*
X0549937Y0110248D01*
X0549953Y0110653D01*
X0549979Y0111058D01*
X0550016Y0111461D01*
X0550062Y0111864D01*
X0550118Y0112266D01*
X0550183Y0112666D01*
X0550259Y0113065D01*
X0550344Y0113461D01*
X0550440Y0113855D01*
X0550544Y0114247D01*
X0550658Y0114636D01*
X0550782Y0115022D01*
X0550915Y0115405D01*
X0551058Y0115785D01*
X0551210Y0116161D01*
X0551371Y0116533D01*
X0551541Y0116901D01*
X0551720Y0117265D01*
X0551908Y0117624D01*
X0552105Y0117979D01*
X0552310Y0118329D01*
X0552524Y0118673D01*
X0552746Y0119013D01*
X0552977Y0119346D01*
X0553215Y0119674D01*
X0553462Y0119996D01*
X0553716Y0120312D01*
X0553978Y0120621D01*
X0554248Y0120924D01*
X0554525Y0121221D01*
X0554809Y0121510D01*
X0555100Y0121792D01*
X0555398Y0122067D01*
X0555702Y0122335D01*
X0556013Y0122595D01*
X0556331Y0122848D01*
X0556654Y0123092D01*
X0556983Y0123329D01*
X0557319Y0123557D01*
X0557659Y0123778D01*
X0558005Y0123989D01*
X0558356Y0124193D01*
X0558712Y0124387D01*
X0559072Y0124573D01*
X0559437Y0124750D01*
X0559806Y0124918D01*
X0560179Y0125076D01*
X0560556Y0125226D01*
X0560937Y0125366D01*
X0561321Y0125497D01*
X0561708Y0125619D01*
X0562097Y0125730D01*
X0562490Y0125833D01*
X0562885Y0125925D01*
X0563281Y0126008D01*
X0563680Y0126082D01*
X0564081Y0126145D01*
X0564483Y0126199D01*
X0564886Y0126242D01*
X0565290Y0126276D01*
X0565695Y0126300D01*
X0566100Y0126314D01*
X0566506Y0126318D01*
X0566911Y0126312D01*
X0567316Y0126296D01*
X0567721Y0126270D01*
X0568125Y0126235D01*
X0568528Y0126189D01*
X0568930Y0126133D01*
X0569330Y0126068D01*
X0569728Y0125993D01*
X0570125Y0125908D01*
X0570519Y0125814D01*
X0570911Y0125709D01*
X0571301Y0125596D01*
X0571687Y0125472D01*
X0572070Y0125339D01*
X0572450Y0125197D01*
X0572826Y0125046D01*
X0573198Y0124885D01*
X0573567Y0124716D01*
X0573931Y0124537D01*
X0574290Y0124350D01*
X0574645Y0124153D01*
X0574995Y0123949D01*
X0575340Y0123735D01*
X0575680Y0123513D01*
X0576014Y0123283D01*
X0576342Y0123045D01*
X0576664Y0122799D01*
X0576980Y0122545D01*
X0577290Y0122283D01*
X0577593Y0122014D01*
X0577890Y0121738D01*
X0578180Y0121454D01*
X0578462Y0121163D01*
X0578738Y0120865D01*
X0579006Y0120561D01*
X0579266Y0120250D01*
X0579519Y0119933D01*
X0579764Y0119610D01*
X0580001Y0119281D01*
X0580230Y0118946D01*
X0580451Y0118606D01*
X0580663Y0118261D01*
X0580867Y0117910D01*
X0581062Y0117554D01*
X0581248Y0117194D01*
X0581425Y0116829D01*
X0581593Y0116460D01*
X0581753Y0116087D01*
X0581903Y0115711D01*
X0582043Y0115330D01*
X0582175Y0114947D01*
X0582297Y0114560D01*
X0582409Y0114170D01*
X0582512Y0113778D01*
X0582605Y0113383D01*
X0582689Y0112987D01*
X0582762Y0112588D01*
X0582826Y0112187D01*
X0582880Y0111785D01*
X0582924Y0111382D01*
X0582959Y0110978D01*
X0582983Y0110573D01*
X0582997Y0110168D01*
X0583002Y0109763D01*
X0582997Y0109357D01*
X0582981Y0108952D01*
X0582956Y0108547D01*
X0582921Y0108143D01*
X0582875Y0107740D01*
X0582820Y0107338D01*
X0582756Y0106938D01*
X0582681Y0106540D01*
X0582209Y0105831D02*
X0582492Y0106025D01*
X0582770Y0106225D01*
X0583044Y0106432D01*
X0583312Y0106646D01*
X0583575Y0106866D01*
X0583833Y0107093D01*
X0584085Y0107325D01*
X0584331Y0107564D01*
X0584572Y0107808D01*
X0584807Y0108059D01*
X0585035Y0108314D01*
X0585257Y0108576D01*
X0585473Y0108842D01*
X0585683Y0109114D01*
X0585886Y0109391D01*
X0586082Y0109672D01*
X0586271Y0109958D01*
X0586453Y0110249D01*
X0586628Y0110544D01*
X0586796Y0110843D01*
X0586957Y0111146D01*
X0587110Y0111453D01*
X0587256Y0111764D01*
X0587394Y0112078D01*
X0587525Y0112395D01*
X0587647Y0112715D01*
X0587763Y0113038D01*
X0587870Y0113364D01*
X0587969Y0113692D01*
X0588061Y0114023D01*
X0588144Y0114356D01*
X0588220Y0114690D01*
X0588287Y0115027D01*
X0588346Y0115364D01*
X0588397Y0115704D01*
X0588440Y0116044D01*
X0588474Y0116385D01*
X0588500Y0116727D01*
X0588518Y0117070D01*
X0588528Y0117413D01*
X0588530Y0117756D01*
X0588523Y0118099D01*
X0588507Y0118441D01*
X0588484Y0118784D01*
X0588452Y0119125D01*
X0588412Y0119466D01*
X0588364Y0119806D01*
X0588308Y0120144D01*
X0588243Y0120481D01*
X0588171Y0120816D01*
X0588090Y0121149D01*
X0588001Y0121481D01*
X0587904Y0121810D01*
X0587800Y0122137D01*
X0587687Y0122461D01*
X0587567Y0122782D01*
X0587439Y0123100D01*
X0587303Y0123415D01*
X0587160Y0123727D01*
X0587009Y0124035D01*
X0586851Y0124339D01*
X0586685Y0124640D01*
X0586513Y0124936D01*
X0586333Y0125228D01*
X0586146Y0125516D01*
X0519217Y0192445D01*
X0519216Y0192445D02*
X0515719Y0197571D01*
X0512349Y0202781D01*
X0509107Y0208072D01*
X0505994Y0213441D01*
X0503014Y0218884D01*
X0500168Y0224398D01*
X0497458Y0229980D01*
X0494884Y0235627D01*
X0492450Y0241335D01*
X0490155Y0247100D01*
X0488002Y0252920D01*
X0485992Y0258791D01*
X0484126Y0264709D01*
X0482406Y0270672D01*
X0480831Y0276674D01*
X0479403Y0282713D01*
X0478124Y0288785D01*
X0476993Y0294886D01*
X0476011Y0301014D01*
X0475180Y0307163D01*
X0474499Y0313331D01*
X0473969Y0319514D01*
X0473590Y0325708D01*
X0473363Y0331909D01*
X0473287Y0338114D01*
X0473363Y0344319D01*
X0473590Y0350520D01*
X0473969Y0356714D01*
X0474499Y0362897D01*
X0475180Y0369065D01*
X0476011Y0375214D01*
X0476993Y0381342D01*
X0478124Y0387443D01*
X0479403Y0393515D01*
X0480831Y0399554D01*
X0482406Y0405556D01*
X0484126Y0411519D01*
X0485992Y0417437D01*
X0488002Y0423308D01*
X0490155Y0429128D01*
X0492450Y0434893D01*
X0494884Y0440601D01*
X0497458Y0446248D01*
X0500168Y0451830D01*
X0503014Y0457344D01*
X0505994Y0462787D01*
X0509107Y0468156D01*
X0512349Y0473447D01*
X0515719Y0478657D01*
X0519216Y0483783D01*
X0519217Y0483783D02*
X0586146Y0550713D01*
X0586333Y0551001D01*
X0586513Y0551293D01*
X0586685Y0551589D01*
X0586851Y0551890D01*
X0587009Y0552194D01*
X0587160Y0552502D01*
X0587303Y0552814D01*
X0587439Y0553129D01*
X0587567Y0553447D01*
X0587687Y0553768D01*
X0587800Y0554092D01*
X0587904Y0554419D01*
X0588001Y0554748D01*
X0588090Y0555080D01*
X0588171Y0555413D01*
X0588243Y0555748D01*
X0588308Y0556085D01*
X0588364Y0556423D01*
X0588412Y0556763D01*
X0588452Y0557104D01*
X0588484Y0557445D01*
X0588507Y0557788D01*
X0588523Y0558130D01*
X0588530Y0558473D01*
X0588528Y0558816D01*
X0588518Y0559159D01*
X0588500Y0559502D01*
X0588474Y0559844D01*
X0588440Y0560185D01*
X0588397Y0560525D01*
X0588346Y0560865D01*
X0588287Y0561202D01*
X0588220Y0561539D01*
X0588144Y0561873D01*
X0588061Y0562206D01*
X0587969Y0562537D01*
X0587870Y0562865D01*
X0587763Y0563191D01*
X0587647Y0563514D01*
X0587525Y0563834D01*
X0587394Y0564151D01*
X0587256Y0564465D01*
X0587110Y0564776D01*
X0586957Y0565083D01*
X0586796Y0565386D01*
X0586628Y0565685D01*
X0586453Y0565980D01*
X0586271Y0566271D01*
X0586082Y0566557D01*
X0585886Y0566838D01*
X0585683Y0567115D01*
X0585473Y0567387D01*
X0585257Y0567653D01*
X0585035Y0567915D01*
X0584807Y0568170D01*
X0584572Y0568421D01*
X0584331Y0568665D01*
X0584085Y0568904D01*
X0583833Y0569136D01*
X0583575Y0569363D01*
X0583312Y0569583D01*
X0583044Y0569797D01*
X0582770Y0570004D01*
X0582492Y0570204D01*
X0582209Y0570398D01*
X0582680Y0569610D02*
X0582753Y0569211D01*
X0582815Y0568811D01*
X0582867Y0568409D01*
X0582910Y0568005D01*
X0582943Y0567601D01*
X0582966Y0567196D01*
X0582979Y0566791D01*
X0582982Y0566385D01*
X0582975Y0565980D01*
X0582958Y0565575D01*
X0582931Y0565170D01*
X0582894Y0564766D01*
X0582848Y0564363D01*
X0582791Y0563962D01*
X0582725Y0563562D01*
X0582649Y0563163D01*
X0582563Y0562767D01*
X0582467Y0562373D01*
X0582362Y0561981D01*
X0582248Y0561592D01*
X0582123Y0561206D01*
X0581990Y0560824D01*
X0581847Y0560444D01*
X0581694Y0560068D01*
X0581533Y0559696D01*
X0581362Y0559328D01*
X0581183Y0558965D01*
X0580994Y0558606D01*
X0580797Y0558251D01*
X0580591Y0557902D01*
X0580377Y0557557D01*
X0580155Y0557219D01*
X0579924Y0556885D01*
X0579685Y0556558D01*
X0579438Y0556236D01*
X0579183Y0555920D01*
X0578920Y0555611D01*
X0578651Y0555309D01*
X0578373Y0555013D01*
X0578089Y0554724D01*
X0577797Y0554442D01*
X0577499Y0554167D01*
X0577194Y0553900D01*
X0576883Y0553640D01*
X0576565Y0553388D01*
X0576241Y0553143D01*
X0575912Y0552907D01*
X0575576Y0552679D01*
X0575236Y0552460D01*
X0574890Y0552248D01*
X0574538Y0552045D01*
X0574182Y0551851D01*
X0573822Y0551666D01*
X0573456Y0551490D01*
X0573087Y0551322D01*
X0572714Y0551164D01*
X0572337Y0551015D01*
X0571956Y0550875D01*
X0571572Y0550745D01*
X0571185Y0550624D01*
X0570795Y0550512D01*
X0570402Y0550410D01*
X0570008Y0550318D01*
X0569610Y0550236D01*
X0569212Y0550163D01*
X0568811Y0550100D01*
X0568409Y0550047D01*
X0568006Y0550004D01*
X0567601Y0549970D01*
X0567197Y0549947D01*
X0566791Y0549934D01*
X0566386Y0549930D01*
X0565980Y0549937D01*
X0565575Y0549953D01*
X0565170Y0549979D01*
X0564767Y0550016D01*
X0564364Y0550062D01*
X0563962Y0550118D01*
X0563562Y0550183D01*
X0563163Y0550259D01*
X0562767Y0550344D01*
X0562373Y0550440D01*
X0561981Y0550544D01*
X0561592Y0550658D01*
X0561206Y0550782D01*
X0560823Y0550915D01*
X0560443Y0551058D01*
X0560067Y0551210D01*
X0559695Y0551371D01*
X0559327Y0551541D01*
X0558963Y0551720D01*
X0558604Y0551908D01*
X0558249Y0552105D01*
X0557899Y0552310D01*
X0557555Y0552524D01*
X0557215Y0552746D01*
X0556882Y0552977D01*
X0556554Y0553215D01*
X0556232Y0553462D01*
X0555916Y0553716D01*
X0555607Y0553978D01*
X0555304Y0554248D01*
X0555007Y0554525D01*
X0554718Y0554809D01*
X0554436Y0555100D01*
X0554161Y0555398D01*
X0553893Y0555702D01*
X0553633Y0556013D01*
X0553380Y0556331D01*
X0553136Y0556654D01*
X0552899Y0556983D01*
X0552671Y0557319D01*
X0552450Y0557659D01*
X0552239Y0558005D01*
X0552035Y0558356D01*
X0551841Y0558712D01*
X0551655Y0559072D01*
X0551478Y0559437D01*
X0551310Y0559806D01*
X0551152Y0560179D01*
X0551002Y0560556D01*
X0550862Y0560937D01*
X0550731Y0561321D01*
X0550609Y0561708D01*
X0550498Y0562097D01*
X0550395Y0562490D01*
X0550303Y0562885D01*
X0550220Y0563281D01*
X0550146Y0563680D01*
X0550083Y0564081D01*
X0550029Y0564483D01*
X0549986Y0564886D01*
X0549952Y0565290D01*
X0549928Y0565695D01*
X0549914Y0566100D01*
X0549910Y0566506D01*
X0549916Y0566911D01*
X0549932Y0567316D01*
X0549958Y0567721D01*
X0549993Y0568125D01*
X0550039Y0568528D01*
X0550095Y0568930D01*
X0550160Y0569330D01*
X0550235Y0569728D01*
X0550320Y0570125D01*
X0550414Y0570519D01*
X0550519Y0570911D01*
X0550632Y0571301D01*
X0550756Y0571687D01*
X0550889Y0572070D01*
X0551031Y0572450D01*
X0551182Y0572826D01*
X0551343Y0573198D01*
X0551512Y0573567D01*
X0551691Y0573931D01*
X0551878Y0574290D01*
X0552075Y0574645D01*
X0552279Y0574995D01*
X0552493Y0575340D01*
X0552715Y0575680D01*
X0552945Y0576014D01*
X0553183Y0576342D01*
X0553429Y0576664D01*
X0553683Y0576980D01*
X0553945Y0577290D01*
X0554214Y0577593D01*
X0554490Y0577890D01*
X0554774Y0578180D01*
X0555065Y0578462D01*
X0555363Y0578738D01*
X0555667Y0579006D01*
X0555978Y0579266D01*
X0556295Y0579519D01*
X0556618Y0579764D01*
X0556947Y0580001D01*
X0557282Y0580230D01*
X0557622Y0580451D01*
X0557967Y0580663D01*
X0558318Y0580867D01*
X0558674Y0581062D01*
X0559034Y0581248D01*
X0559399Y0581425D01*
X0559768Y0581593D01*
X0560141Y0581753D01*
X0560517Y0581903D01*
X0560898Y0582043D01*
X0561281Y0582175D01*
X0561668Y0582297D01*
X0562058Y0582409D01*
X0562450Y0582512D01*
X0562845Y0582605D01*
X0563241Y0582689D01*
X0563640Y0582762D01*
X0564041Y0582826D01*
X0564443Y0582880D01*
X0564846Y0582924D01*
X0565250Y0582959D01*
X0565655Y0582983D01*
X0566060Y0582997D01*
X0566465Y0583002D01*
X0566871Y0582997D01*
X0567276Y0582981D01*
X0567681Y0582956D01*
X0568085Y0582921D01*
X0568488Y0582875D01*
X0568890Y0582820D01*
X0569290Y0582756D01*
X0569688Y0582681D01*
X0570398Y0582209D02*
X0570204Y0582492D01*
X0570004Y0582770D01*
X0569797Y0583044D01*
X0569583Y0583312D01*
X0569363Y0583575D01*
X0569136Y0583833D01*
X0568904Y0584085D01*
X0568665Y0584331D01*
X0568421Y0584572D01*
X0568170Y0584807D01*
X0567915Y0585035D01*
X0567653Y0585257D01*
X0567387Y0585473D01*
X0567115Y0585683D01*
X0566838Y0585886D01*
X0566557Y0586082D01*
X0566271Y0586271D01*
X0565980Y0586453D01*
X0565685Y0586628D01*
X0565386Y0586796D01*
X0565083Y0586957D01*
X0564776Y0587110D01*
X0564465Y0587256D01*
X0564151Y0587394D01*
X0563834Y0587525D01*
X0563514Y0587647D01*
X0563191Y0587763D01*
X0562865Y0587870D01*
X0562537Y0587969D01*
X0562206Y0588061D01*
X0561873Y0588144D01*
X0561539Y0588220D01*
X0561202Y0588287D01*
X0560865Y0588346D01*
X0560525Y0588397D01*
X0560185Y0588440D01*
X0559844Y0588474D01*
X0559502Y0588500D01*
X0559159Y0588518D01*
X0558816Y0588528D01*
X0558473Y0588530D01*
X0558130Y0588523D01*
X0557788Y0588507D01*
X0557445Y0588484D01*
X0557104Y0588452D01*
X0556763Y0588412D01*
X0556423Y0588364D01*
X0556085Y0588308D01*
X0555748Y0588243D01*
X0555413Y0588171D01*
X0555080Y0588090D01*
X0554748Y0588001D01*
X0554419Y0587904D01*
X0554092Y0587800D01*
X0553768Y0587687D01*
X0553447Y0587567D01*
X0553129Y0587439D01*
X0552814Y0587303D01*
X0552502Y0587160D01*
X0552194Y0587009D01*
X0551890Y0586851D01*
X0551589Y0586685D01*
X0551293Y0586513D01*
X0551001Y0586333D01*
X0550713Y0586146D01*
X0483783Y0519217D01*
X0483783Y0519216D02*
X0478657Y0515719D01*
X0473447Y0512349D01*
X0468156Y0509107D01*
X0462787Y0505994D01*
X0457344Y0503014D01*
X0451830Y0500168D01*
X0446248Y0497458D01*
X0440601Y0494884D01*
X0434893Y0492450D01*
X0429128Y0490155D01*
X0423308Y0488002D01*
X0417437Y0485992D01*
X0411519Y0484126D01*
X0405556Y0482406D01*
X0399554Y0480831D01*
X0393515Y0479403D01*
X0387443Y0478124D01*
X0381342Y0476993D01*
X0375214Y0476011D01*
X0369065Y0475180D01*
X0362897Y0474499D01*
X0356714Y0473969D01*
X0350520Y0473590D01*
X0344319Y0473363D01*
X0338114Y0473287D01*
X0331909Y0473363D01*
X0325708Y0473590D01*
X0319514Y0473969D01*
X0313331Y0474499D01*
X0307163Y0475180D01*
X0301014Y0476011D01*
X0294886Y0476993D01*
X0288785Y0478124D01*
X0282713Y0479403D01*
X0276674Y0480831D01*
X0270672Y0482406D01*
X0264709Y0484126D01*
X0258791Y0485992D01*
X0252920Y0488002D01*
X0247100Y0490155D01*
X0241335Y0492450D01*
X0235627Y0494884D01*
X0229980Y0497458D01*
X0224398Y0500168D01*
X0218884Y0503014D01*
X0213441Y0505994D01*
X0208072Y0509107D01*
X0202781Y0512349D01*
X0197571Y0515719D01*
X0192445Y0519216D01*
X0192445Y0519217D02*
X0125516Y0586146D01*
X0125228Y0586333D01*
X0124936Y0586513D01*
X0124640Y0586685D01*
X0124339Y0586851D01*
X0124035Y0587009D01*
X0123727Y0587160D01*
X0123415Y0587303D01*
X0123100Y0587439D01*
X0122782Y0587567D01*
X0122461Y0587687D01*
X0122137Y0587800D01*
X0121810Y0587904D01*
X0121481Y0588001D01*
X0121149Y0588090D01*
X0120816Y0588171D01*
X0120481Y0588243D01*
X0120144Y0588308D01*
X0119806Y0588364D01*
X0119466Y0588412D01*
X0119125Y0588452D01*
X0118784Y0588484D01*
X0118441Y0588507D01*
X0118099Y0588523D01*
X0117756Y0588530D01*
X0117413Y0588528D01*
X0117070Y0588518D01*
X0116727Y0588500D01*
X0116385Y0588474D01*
X0116044Y0588440D01*
X0115704Y0588397D01*
X0115364Y0588346D01*
X0115027Y0588287D01*
X0114690Y0588220D01*
X0114356Y0588144D01*
X0114023Y0588061D01*
X0113692Y0587969D01*
X0113364Y0587870D01*
X0113038Y0587763D01*
X0112715Y0587647D01*
X0112395Y0587525D01*
X0112078Y0587394D01*
X0111764Y0587256D01*
X0111453Y0587110D01*
X0111146Y0586957D01*
X0110843Y0586796D01*
X0110544Y0586628D01*
X0110249Y0586453D01*
X0109958Y0586271D01*
X0109672Y0586082D01*
X0109391Y0585886D01*
X0109114Y0585683D01*
X0108842Y0585473D01*
X0108576Y0585257D01*
X0108314Y0585035D01*
X0108059Y0584807D01*
X0107808Y0584572D01*
X0107564Y0584331D01*
X0107325Y0584085D01*
X0107093Y0583833D01*
X0106866Y0583575D01*
X0106646Y0583312D01*
X0106432Y0583044D01*
X0106225Y0582770D01*
X0106025Y0582492D01*
X0105831Y0582209D01*
X0106619Y0582680D02*
X0107018Y0582753D01*
X0107418Y0582815D01*
X0107820Y0582867D01*
X0108224Y0582910D01*
X0108628Y0582943D01*
X0109033Y0582966D01*
X0109438Y0582979D01*
X0109844Y0582982D01*
X0110249Y0582975D01*
X0110654Y0582958D01*
X0111059Y0582931D01*
X0111463Y0582894D01*
X0111866Y0582848D01*
X0112267Y0582791D01*
X0112667Y0582725D01*
X0113066Y0582649D01*
X0113462Y0582563D01*
X0113856Y0582467D01*
X0114248Y0582362D01*
X0114637Y0582248D01*
X0115023Y0582123D01*
X0115405Y0581990D01*
X0115785Y0581847D01*
X0116161Y0581694D01*
X0116533Y0581533D01*
X0116901Y0581362D01*
X0117264Y0581183D01*
X0117623Y0580994D01*
X0117978Y0580797D01*
X0118327Y0580591D01*
X0118672Y0580377D01*
X0119010Y0580155D01*
X0119344Y0579924D01*
X0119671Y0579685D01*
X0119993Y0579438D01*
X0120309Y0579183D01*
X0120618Y0578920D01*
X0120920Y0578651D01*
X0121216Y0578373D01*
X0121505Y0578089D01*
X0121787Y0577797D01*
X0122062Y0577499D01*
X0122329Y0577194D01*
X0122589Y0576883D01*
X0122841Y0576565D01*
X0123086Y0576241D01*
X0123322Y0575912D01*
X0123550Y0575576D01*
X0123769Y0575236D01*
X0123981Y0574890D01*
X0124184Y0574538D01*
X0124378Y0574182D01*
X0124563Y0573822D01*
X0124739Y0573456D01*
X0124907Y0573087D01*
X0125065Y0572714D01*
X0125214Y0572337D01*
X0125354Y0571956D01*
X0125484Y0571572D01*
X0125605Y0571185D01*
X0125717Y0570795D01*
X0125819Y0570402D01*
X0125911Y0570008D01*
X0125993Y0569610D01*
X0126066Y0569212D01*
X0126129Y0568811D01*
X0126182Y0568409D01*
X0126225Y0568006D01*
X0126259Y0567601D01*
X0126282Y0567197D01*
X0126295Y0566791D01*
X0126299Y0566386D01*
X0126292Y0565980D01*
X0126276Y0565575D01*
X0126250Y0565170D01*
X0126213Y0564767D01*
X0126167Y0564364D01*
X0126111Y0563962D01*
X0126046Y0563562D01*
X0125970Y0563163D01*
X0125885Y0562767D01*
X0125789Y0562373D01*
X0125685Y0561981D01*
X0125571Y0561592D01*
X0125447Y0561206D01*
X0125314Y0560823D01*
X0125171Y0560443D01*
X0125019Y0560067D01*
X0124858Y0559695D01*
X0124688Y0559327D01*
X0124509Y0558963D01*
X0124321Y0558604D01*
X0124124Y0558249D01*
X0123919Y0557899D01*
X0123705Y0557555D01*
X0123483Y0557215D01*
X0123252Y0556882D01*
X0123014Y0556554D01*
X0122767Y0556232D01*
X0122513Y0555916D01*
X0122251Y0555607D01*
X0121981Y0555304D01*
X0121704Y0555007D01*
X0121420Y0554718D01*
X0121129Y0554436D01*
X0120831Y0554161D01*
X0120527Y0553893D01*
X0120216Y0553633D01*
X0119898Y0553380D01*
X0119575Y0553136D01*
X0119246Y0552899D01*
X0118910Y0552671D01*
X0118570Y0552450D01*
X0118224Y0552239D01*
X0117873Y0552035D01*
X0117517Y0551841D01*
X0117157Y0551655D01*
X0116792Y0551478D01*
X0116423Y0551310D01*
X0116050Y0551152D01*
X0115673Y0551002D01*
X0115292Y0550862D01*
X0114908Y0550731D01*
X0114521Y0550609D01*
X0114132Y0550498D01*
X0113739Y0550395D01*
X0113344Y0550303D01*
X0112948Y0550220D01*
X0112549Y0550146D01*
X0112148Y0550083D01*
X0111746Y0550029D01*
X0111343Y0549986D01*
X0110939Y0549952D01*
X0110534Y0549928D01*
X0110129Y0549914D01*
X0109723Y0549910D01*
X0109318Y0549916D01*
X0108913Y0549932D01*
X0108508Y0549958D01*
X0108104Y0549993D01*
X0107701Y0550039D01*
X0107299Y0550095D01*
X0106899Y0550160D01*
X0106501Y0550235D01*
X0106104Y0550320D01*
X0105710Y0550414D01*
X0105318Y0550519D01*
X0104928Y0550632D01*
X0104542Y0550756D01*
X0104159Y0550889D01*
X0103779Y0551031D01*
X0103403Y0551182D01*
X0103031Y0551343D01*
X0102662Y0551512D01*
X0102298Y0551691D01*
X0101939Y0551878D01*
X0101584Y0552075D01*
X0101234Y0552279D01*
X0100889Y0552493D01*
X0100549Y0552715D01*
X0100215Y0552945D01*
X0099887Y0553183D01*
X0099565Y0553429D01*
X0099249Y0553683D01*
X0098939Y0553945D01*
X0098636Y0554214D01*
X0098339Y0554490D01*
X0098049Y0554774D01*
X0097767Y0555065D01*
X0097491Y0555363D01*
X0097223Y0555667D01*
X0096963Y0555978D01*
X0096710Y0556295D01*
X0096465Y0556618D01*
X0096228Y0556947D01*
X0095999Y0557282D01*
X0095778Y0557622D01*
X0095566Y0557967D01*
X0095362Y0558318D01*
X0095167Y0558674D01*
X0094981Y0559034D01*
X0094804Y0559399D01*
X0094636Y0559768D01*
X0094476Y0560141D01*
X0094326Y0560517D01*
X0094186Y0560898D01*
X0094054Y0561281D01*
X0093932Y0561668D01*
X0093820Y0562058D01*
X0093717Y0562450D01*
X0093624Y0562845D01*
X0093540Y0563241D01*
X0093467Y0563640D01*
X0093403Y0564041D01*
X0093349Y0564443D01*
X0093305Y0564846D01*
X0093270Y0565250D01*
X0093246Y0565655D01*
X0093232Y0566060D01*
X0093227Y0566465D01*
X0093232Y0566871D01*
X0093248Y0567276D01*
X0093273Y0567681D01*
X0093308Y0568085D01*
X0093354Y0568488D01*
X0093409Y0568890D01*
X0093473Y0569290D01*
X0093548Y0569688D01*
X0094020Y0570398D02*
X0093737Y0570204D01*
X0093459Y0570004D01*
X0093185Y0569797D01*
X0092917Y0569583D01*
X0092654Y0569363D01*
X0092396Y0569136D01*
X0092144Y0568904D01*
X0091898Y0568665D01*
X0091657Y0568421D01*
X0091422Y0568170D01*
X0091194Y0567915D01*
X0090972Y0567653D01*
X0090756Y0567387D01*
X0090546Y0567115D01*
X0090343Y0566838D01*
X0090147Y0566557D01*
X0089958Y0566271D01*
X0089776Y0565980D01*
X0089601Y0565685D01*
X0089433Y0565386D01*
X0089272Y0565083D01*
X0089119Y0564776D01*
X0088973Y0564465D01*
X0088835Y0564151D01*
X0088704Y0563834D01*
X0088582Y0563514D01*
X0088466Y0563191D01*
X0088359Y0562865D01*
X0088260Y0562537D01*
X0088168Y0562206D01*
X0088085Y0561873D01*
X0088009Y0561539D01*
X0087942Y0561202D01*
X0087883Y0560865D01*
X0087832Y0560525D01*
X0087789Y0560185D01*
X0087755Y0559844D01*
X0087729Y0559502D01*
X0087711Y0559159D01*
X0087701Y0558816D01*
X0087699Y0558473D01*
X0087706Y0558130D01*
X0087722Y0557788D01*
X0087745Y0557445D01*
X0087777Y0557104D01*
X0087817Y0556763D01*
X0087865Y0556423D01*
X0087921Y0556085D01*
X0087986Y0555748D01*
X0088058Y0555413D01*
X0088139Y0555080D01*
X0088228Y0554748D01*
X0088325Y0554419D01*
X0088429Y0554092D01*
X0088542Y0553768D01*
X0088662Y0553447D01*
X0088790Y0553129D01*
X0088926Y0552814D01*
X0089069Y0552502D01*
X0089220Y0552194D01*
X0089378Y0551890D01*
X0089544Y0551589D01*
X0089716Y0551293D01*
X0089896Y0551001D01*
X0090083Y0550713D01*
X0157012Y0483783D01*
X0157013Y0483783D02*
X0160510Y0478657D01*
X0163880Y0473447D01*
X0167122Y0468156D01*
X0170235Y0462787D01*
X0173215Y0457344D01*
X0176061Y0451830D01*
X0178771Y0446248D01*
X0181345Y0440601D01*
X0183779Y0434893D01*
X0186074Y0429128D01*
X0188227Y0423308D01*
X0190237Y0417437D01*
X0192103Y0411519D01*
X0193823Y0405556D01*
X0195398Y0399554D01*
X0196826Y0393515D01*
X0198105Y0387443D01*
X0199236Y0381342D01*
X0200218Y0375214D01*
X0201049Y0369065D01*
X0201730Y0362897D01*
X0202260Y0356714D01*
X0202639Y0350520D01*
X0202866Y0344319D01*
X0202942Y0338114D01*
X0202866Y0331909D01*
X0202639Y0325708D01*
X0202260Y0319514D01*
X0201730Y0313331D01*
X0201049Y0307163D01*
X0200218Y0301014D01*
X0199236Y0294886D01*
X0198105Y0288785D01*
X0196826Y0282713D01*
X0195398Y0276674D01*
X0193823Y0270672D01*
X0192103Y0264709D01*
X0190237Y0258791D01*
X0188227Y0252920D01*
X0186074Y0247100D01*
X0183779Y0241335D01*
X0181345Y0235627D01*
X0178771Y0229980D01*
X0176061Y0224398D01*
X0173215Y0218884D01*
X0170235Y0213441D01*
X0167122Y0208072D01*
X0163880Y0202781D01*
X0160510Y0197571D01*
X0157013Y0192445D01*
D11*
X0287917Y0309177D02*
X0287919Y0309282D01*
X0287925Y0309387D01*
X0287935Y0309491D01*
X0287949Y0309595D01*
X0287967Y0309699D01*
X0287989Y0309801D01*
X0288014Y0309903D01*
X0288044Y0310004D01*
X0288077Y0310103D01*
X0288114Y0310201D01*
X0288155Y0310298D01*
X0288200Y0310393D01*
X0288248Y0310486D01*
X0288299Y0310578D01*
X0288355Y0310667D01*
X0288413Y0310754D01*
X0288475Y0310839D01*
X0288539Y0310922D01*
X0288607Y0311002D01*
X0288678Y0311079D01*
X0288752Y0311153D01*
X0288829Y0311225D01*
X0288908Y0311294D01*
X0288990Y0311359D01*
X0289074Y0311422D01*
X0289161Y0311481D01*
X0289250Y0311537D01*
X0289341Y0311590D01*
X0289434Y0311639D01*
X0289528Y0311684D01*
X0289624Y0311726D01*
X0289722Y0311764D01*
X0289821Y0311798D01*
X0289922Y0311829D01*
X0290023Y0311855D01*
X0290126Y0311878D01*
X0290229Y0311897D01*
X0290333Y0311912D01*
X0290437Y0311923D01*
X0290542Y0311930D01*
X0290647Y0311933D01*
X0290752Y0311932D01*
X0290857Y0311927D01*
X0290961Y0311918D01*
X0291065Y0311905D01*
X0291169Y0311888D01*
X0291272Y0311867D01*
X0291374Y0311842D01*
X0291475Y0311814D01*
X0291574Y0311781D01*
X0291673Y0311745D01*
X0291770Y0311705D01*
X0291865Y0311662D01*
X0291959Y0311614D01*
X0292051Y0311564D01*
X0292141Y0311510D01*
X0292229Y0311452D01*
X0292314Y0311391D01*
X0292397Y0311327D01*
X0292478Y0311260D01*
X0292556Y0311190D01*
X0292631Y0311116D01*
X0292703Y0311041D01*
X0292773Y0310962D01*
X0292839Y0310881D01*
X0292903Y0310797D01*
X0292963Y0310711D01*
X0293019Y0310623D01*
X0293073Y0310532D01*
X0293123Y0310440D01*
X0293169Y0310346D01*
X0293212Y0310250D01*
X0293251Y0310152D01*
X0293286Y0310054D01*
X0293317Y0309953D01*
X0293345Y0309852D01*
X0293369Y0309750D01*
X0293389Y0309647D01*
X0293405Y0309543D01*
X0293417Y0309439D01*
X0293425Y0309334D01*
X0293429Y0309229D01*
X0293429Y0309125D01*
X0293425Y0309020D01*
X0293417Y0308915D01*
X0293405Y0308811D01*
X0293389Y0308707D01*
X0293369Y0308604D01*
X0293345Y0308502D01*
X0293317Y0308401D01*
X0293286Y0308300D01*
X0293251Y0308202D01*
X0293212Y0308104D01*
X0293169Y0308008D01*
X0293123Y0307914D01*
X0293073Y0307822D01*
X0293019Y0307731D01*
X0292963Y0307643D01*
X0292903Y0307557D01*
X0292839Y0307473D01*
X0292773Y0307392D01*
X0292703Y0307313D01*
X0292631Y0307238D01*
X0292556Y0307164D01*
X0292478Y0307094D01*
X0292397Y0307027D01*
X0292314Y0306963D01*
X0292229Y0306902D01*
X0292141Y0306844D01*
X0292051Y0306790D01*
X0291959Y0306740D01*
X0291865Y0306692D01*
X0291770Y0306649D01*
X0291673Y0306609D01*
X0291574Y0306573D01*
X0291475Y0306540D01*
X0291374Y0306512D01*
X0291272Y0306487D01*
X0291169Y0306466D01*
X0291065Y0306449D01*
X0290961Y0306436D01*
X0290857Y0306427D01*
X0290752Y0306422D01*
X0290647Y0306421D01*
X0290542Y0306424D01*
X0290437Y0306431D01*
X0290333Y0306442D01*
X0290229Y0306457D01*
X0290126Y0306476D01*
X0290023Y0306499D01*
X0289922Y0306525D01*
X0289821Y0306556D01*
X0289722Y0306590D01*
X0289624Y0306628D01*
X0289528Y0306670D01*
X0289434Y0306715D01*
X0289341Y0306764D01*
X0289250Y0306817D01*
X0289161Y0306873D01*
X0289074Y0306932D01*
X0288990Y0306995D01*
X0288908Y0307060D01*
X0288829Y0307129D01*
X0288752Y0307201D01*
X0288678Y0307275D01*
X0288607Y0307352D01*
X0288539Y0307432D01*
X0288475Y0307515D01*
X0288413Y0307600D01*
X0288355Y0307687D01*
X0288299Y0307776D01*
X0288248Y0307868D01*
X0288200Y0307961D01*
X0288155Y0308056D01*
X0288114Y0308153D01*
X0288077Y0308251D01*
X0288044Y0308350D01*
X0288014Y0308451D01*
X0287989Y0308553D01*
X0287967Y0308655D01*
X0287949Y0308759D01*
X0287935Y0308863D01*
X0287925Y0308967D01*
X0287919Y0309072D01*
X0287917Y0309177D01*
X0246579Y0330240D02*
X0246581Y0330380D01*
X0246587Y0330520D01*
X0246597Y0330659D01*
X0246611Y0330798D01*
X0246629Y0330937D01*
X0246650Y0331075D01*
X0246676Y0331213D01*
X0246706Y0331350D01*
X0246739Y0331485D01*
X0246777Y0331620D01*
X0246818Y0331754D01*
X0246863Y0331887D01*
X0246911Y0332018D01*
X0246964Y0332147D01*
X0247020Y0332276D01*
X0247079Y0332402D01*
X0247143Y0332527D01*
X0247209Y0332650D01*
X0247280Y0332771D01*
X0247353Y0332890D01*
X0247430Y0333007D01*
X0247511Y0333121D01*
X0247594Y0333233D01*
X0247681Y0333343D01*
X0247771Y0333451D01*
X0247863Y0333555D01*
X0247959Y0333657D01*
X0248058Y0333757D01*
X0248159Y0333853D01*
X0248263Y0333947D01*
X0248370Y0334037D01*
X0248479Y0334124D01*
X0248591Y0334209D01*
X0248705Y0334290D01*
X0248821Y0334368D01*
X0248939Y0334442D01*
X0249060Y0334513D01*
X0249182Y0334581D01*
X0249307Y0334645D01*
X0249433Y0334706D01*
X0249560Y0334763D01*
X0249690Y0334816D01*
X0249821Y0334866D01*
X0249953Y0334911D01*
X0250086Y0334954D01*
X0250221Y0334992D01*
X0250356Y0335026D01*
X0250493Y0335057D01*
X0250630Y0335084D01*
X0250768Y0335106D01*
X0250907Y0335125D01*
X0251046Y0335140D01*
X0251185Y0335151D01*
X0251325Y0335158D01*
X0251465Y0335161D01*
X0251605Y0335160D01*
X0251745Y0335155D01*
X0251884Y0335146D01*
X0252024Y0335133D01*
X0252163Y0335116D01*
X0252301Y0335095D01*
X0252439Y0335071D01*
X0252576Y0335042D01*
X0252712Y0335010D01*
X0252847Y0334973D01*
X0252981Y0334933D01*
X0253114Y0334889D01*
X0253245Y0334841D01*
X0253375Y0334790D01*
X0253504Y0334735D01*
X0253631Y0334676D01*
X0253756Y0334613D01*
X0253879Y0334548D01*
X0254001Y0334478D01*
X0254120Y0334405D01*
X0254238Y0334329D01*
X0254353Y0334250D01*
X0254466Y0334167D01*
X0254576Y0334081D01*
X0254684Y0333992D01*
X0254789Y0333900D01*
X0254892Y0333805D01*
X0254992Y0333707D01*
X0255089Y0333607D01*
X0255183Y0333503D01*
X0255275Y0333397D01*
X0255363Y0333289D01*
X0255448Y0333178D01*
X0255530Y0333064D01*
X0255609Y0332948D01*
X0255684Y0332831D01*
X0255756Y0332711D01*
X0255824Y0332589D01*
X0255889Y0332465D01*
X0255951Y0332339D01*
X0256009Y0332212D01*
X0256063Y0332083D01*
X0256114Y0331952D01*
X0256160Y0331820D01*
X0256203Y0331687D01*
X0256243Y0331553D01*
X0256278Y0331418D01*
X0256310Y0331281D01*
X0256337Y0331144D01*
X0256361Y0331006D01*
X0256381Y0330868D01*
X0256397Y0330729D01*
X0256409Y0330589D01*
X0256417Y0330450D01*
X0256421Y0330310D01*
X0256421Y0330170D01*
X0256417Y0330030D01*
X0256409Y0329891D01*
X0256397Y0329751D01*
X0256381Y0329612D01*
X0256361Y0329474D01*
X0256337Y0329336D01*
X0256310Y0329199D01*
X0256278Y0329062D01*
X0256243Y0328927D01*
X0256203Y0328793D01*
X0256160Y0328660D01*
X0256114Y0328528D01*
X0256063Y0328397D01*
X0256009Y0328268D01*
X0255951Y0328141D01*
X0255889Y0328015D01*
X0255824Y0327891D01*
X0255756Y0327769D01*
X0255684Y0327649D01*
X0255609Y0327532D01*
X0255530Y0327416D01*
X0255448Y0327302D01*
X0255363Y0327191D01*
X0255275Y0327083D01*
X0255183Y0326977D01*
X0255089Y0326873D01*
X0254992Y0326773D01*
X0254892Y0326675D01*
X0254789Y0326580D01*
X0254684Y0326488D01*
X0254576Y0326399D01*
X0254466Y0326313D01*
X0254353Y0326230D01*
X0254238Y0326151D01*
X0254120Y0326075D01*
X0254001Y0326002D01*
X0253879Y0325932D01*
X0253756Y0325867D01*
X0253631Y0325804D01*
X0253504Y0325745D01*
X0253375Y0325690D01*
X0253245Y0325639D01*
X0253114Y0325591D01*
X0252981Y0325547D01*
X0252847Y0325507D01*
X0252712Y0325470D01*
X0252576Y0325438D01*
X0252439Y0325409D01*
X0252301Y0325385D01*
X0252163Y0325364D01*
X0252024Y0325347D01*
X0251884Y0325334D01*
X0251745Y0325325D01*
X0251605Y0325320D01*
X0251465Y0325319D01*
X0251325Y0325322D01*
X0251185Y0325329D01*
X0251046Y0325340D01*
X0250907Y0325355D01*
X0250768Y0325374D01*
X0250630Y0325396D01*
X0250493Y0325423D01*
X0250356Y0325454D01*
X0250221Y0325488D01*
X0250086Y0325526D01*
X0249953Y0325569D01*
X0249821Y0325614D01*
X0249690Y0325664D01*
X0249560Y0325717D01*
X0249433Y0325774D01*
X0249307Y0325835D01*
X0249182Y0325899D01*
X0249060Y0325967D01*
X0248939Y0326038D01*
X0248821Y0326112D01*
X0248705Y0326190D01*
X0248591Y0326271D01*
X0248479Y0326356D01*
X0248370Y0326443D01*
X0248263Y0326533D01*
X0248159Y0326627D01*
X0248058Y0326723D01*
X0247959Y0326823D01*
X0247863Y0326925D01*
X0247771Y0327029D01*
X0247681Y0327137D01*
X0247594Y0327247D01*
X0247511Y0327359D01*
X0247430Y0327473D01*
X0247353Y0327590D01*
X0247280Y0327709D01*
X0247209Y0327830D01*
X0247143Y0327953D01*
X0247079Y0328078D01*
X0247020Y0328204D01*
X0246964Y0328333D01*
X0246911Y0328462D01*
X0246863Y0328593D01*
X0246818Y0328726D01*
X0246777Y0328860D01*
X0246739Y0328995D01*
X0246706Y0329130D01*
X0246676Y0329267D01*
X0246650Y0329405D01*
X0246629Y0329543D01*
X0246611Y0329682D01*
X0246597Y0329821D01*
X0246587Y0329960D01*
X0246581Y0330100D01*
X0246579Y0330240D01*
X0246579Y0345988D02*
X0246581Y0346128D01*
X0246587Y0346268D01*
X0246597Y0346407D01*
X0246611Y0346546D01*
X0246629Y0346685D01*
X0246650Y0346823D01*
X0246676Y0346961D01*
X0246706Y0347098D01*
X0246739Y0347233D01*
X0246777Y0347368D01*
X0246818Y0347502D01*
X0246863Y0347635D01*
X0246911Y0347766D01*
X0246964Y0347895D01*
X0247020Y0348024D01*
X0247079Y0348150D01*
X0247143Y0348275D01*
X0247209Y0348398D01*
X0247280Y0348519D01*
X0247353Y0348638D01*
X0247430Y0348755D01*
X0247511Y0348869D01*
X0247594Y0348981D01*
X0247681Y0349091D01*
X0247771Y0349199D01*
X0247863Y0349303D01*
X0247959Y0349405D01*
X0248058Y0349505D01*
X0248159Y0349601D01*
X0248263Y0349695D01*
X0248370Y0349785D01*
X0248479Y0349872D01*
X0248591Y0349957D01*
X0248705Y0350038D01*
X0248821Y0350116D01*
X0248939Y0350190D01*
X0249060Y0350261D01*
X0249182Y0350329D01*
X0249307Y0350393D01*
X0249433Y0350454D01*
X0249560Y0350511D01*
X0249690Y0350564D01*
X0249821Y0350614D01*
X0249953Y0350659D01*
X0250086Y0350702D01*
X0250221Y0350740D01*
X0250356Y0350774D01*
X0250493Y0350805D01*
X0250630Y0350832D01*
X0250768Y0350854D01*
X0250907Y0350873D01*
X0251046Y0350888D01*
X0251185Y0350899D01*
X0251325Y0350906D01*
X0251465Y0350909D01*
X0251605Y0350908D01*
X0251745Y0350903D01*
X0251884Y0350894D01*
X0252024Y0350881D01*
X0252163Y0350864D01*
X0252301Y0350843D01*
X0252439Y0350819D01*
X0252576Y0350790D01*
X0252712Y0350758D01*
X0252847Y0350721D01*
X0252981Y0350681D01*
X0253114Y0350637D01*
X0253245Y0350589D01*
X0253375Y0350538D01*
X0253504Y0350483D01*
X0253631Y0350424D01*
X0253756Y0350361D01*
X0253879Y0350296D01*
X0254001Y0350226D01*
X0254120Y0350153D01*
X0254238Y0350077D01*
X0254353Y0349998D01*
X0254466Y0349915D01*
X0254576Y0349829D01*
X0254684Y0349740D01*
X0254789Y0349648D01*
X0254892Y0349553D01*
X0254992Y0349455D01*
X0255089Y0349355D01*
X0255183Y0349251D01*
X0255275Y0349145D01*
X0255363Y0349037D01*
X0255448Y0348926D01*
X0255530Y0348812D01*
X0255609Y0348696D01*
X0255684Y0348579D01*
X0255756Y0348459D01*
X0255824Y0348337D01*
X0255889Y0348213D01*
X0255951Y0348087D01*
X0256009Y0347960D01*
X0256063Y0347831D01*
X0256114Y0347700D01*
X0256160Y0347568D01*
X0256203Y0347435D01*
X0256243Y0347301D01*
X0256278Y0347166D01*
X0256310Y0347029D01*
X0256337Y0346892D01*
X0256361Y0346754D01*
X0256381Y0346616D01*
X0256397Y0346477D01*
X0256409Y0346337D01*
X0256417Y0346198D01*
X0256421Y0346058D01*
X0256421Y0345918D01*
X0256417Y0345778D01*
X0256409Y0345639D01*
X0256397Y0345499D01*
X0256381Y0345360D01*
X0256361Y0345222D01*
X0256337Y0345084D01*
X0256310Y0344947D01*
X0256278Y0344810D01*
X0256243Y0344675D01*
X0256203Y0344541D01*
X0256160Y0344408D01*
X0256114Y0344276D01*
X0256063Y0344145D01*
X0256009Y0344016D01*
X0255951Y0343889D01*
X0255889Y0343763D01*
X0255824Y0343639D01*
X0255756Y0343517D01*
X0255684Y0343397D01*
X0255609Y0343280D01*
X0255530Y0343164D01*
X0255448Y0343050D01*
X0255363Y0342939D01*
X0255275Y0342831D01*
X0255183Y0342725D01*
X0255089Y0342621D01*
X0254992Y0342521D01*
X0254892Y0342423D01*
X0254789Y0342328D01*
X0254684Y0342236D01*
X0254576Y0342147D01*
X0254466Y0342061D01*
X0254353Y0341978D01*
X0254238Y0341899D01*
X0254120Y0341823D01*
X0254001Y0341750D01*
X0253879Y0341680D01*
X0253756Y0341615D01*
X0253631Y0341552D01*
X0253504Y0341493D01*
X0253375Y0341438D01*
X0253245Y0341387D01*
X0253114Y0341339D01*
X0252981Y0341295D01*
X0252847Y0341255D01*
X0252712Y0341218D01*
X0252576Y0341186D01*
X0252439Y0341157D01*
X0252301Y0341133D01*
X0252163Y0341112D01*
X0252024Y0341095D01*
X0251884Y0341082D01*
X0251745Y0341073D01*
X0251605Y0341068D01*
X0251465Y0341067D01*
X0251325Y0341070D01*
X0251185Y0341077D01*
X0251046Y0341088D01*
X0250907Y0341103D01*
X0250768Y0341122D01*
X0250630Y0341144D01*
X0250493Y0341171D01*
X0250356Y0341202D01*
X0250221Y0341236D01*
X0250086Y0341274D01*
X0249953Y0341317D01*
X0249821Y0341362D01*
X0249690Y0341412D01*
X0249560Y0341465D01*
X0249433Y0341522D01*
X0249307Y0341583D01*
X0249182Y0341647D01*
X0249060Y0341715D01*
X0248939Y0341786D01*
X0248821Y0341860D01*
X0248705Y0341938D01*
X0248591Y0342019D01*
X0248479Y0342104D01*
X0248370Y0342191D01*
X0248263Y0342281D01*
X0248159Y0342375D01*
X0248058Y0342471D01*
X0247959Y0342571D01*
X0247863Y0342673D01*
X0247771Y0342777D01*
X0247681Y0342885D01*
X0247594Y0342995D01*
X0247511Y0343107D01*
X0247430Y0343221D01*
X0247353Y0343338D01*
X0247280Y0343457D01*
X0247209Y0343578D01*
X0247143Y0343701D01*
X0247079Y0343826D01*
X0247020Y0343952D01*
X0246964Y0344081D01*
X0246911Y0344210D01*
X0246863Y0344341D01*
X0246818Y0344474D01*
X0246777Y0344608D01*
X0246739Y0344743D01*
X0246706Y0344878D01*
X0246676Y0345015D01*
X0246650Y0345153D01*
X0246629Y0345291D01*
X0246611Y0345430D01*
X0246597Y0345569D01*
X0246587Y0345708D01*
X0246581Y0345848D01*
X0246579Y0345988D01*
X0287917Y0367051D02*
X0287919Y0367156D01*
X0287925Y0367261D01*
X0287935Y0367365D01*
X0287949Y0367469D01*
X0287967Y0367573D01*
X0287989Y0367675D01*
X0288014Y0367777D01*
X0288044Y0367878D01*
X0288077Y0367977D01*
X0288114Y0368075D01*
X0288155Y0368172D01*
X0288200Y0368267D01*
X0288248Y0368360D01*
X0288299Y0368452D01*
X0288355Y0368541D01*
X0288413Y0368628D01*
X0288475Y0368713D01*
X0288539Y0368796D01*
X0288607Y0368876D01*
X0288678Y0368953D01*
X0288752Y0369027D01*
X0288829Y0369099D01*
X0288908Y0369168D01*
X0288990Y0369233D01*
X0289074Y0369296D01*
X0289161Y0369355D01*
X0289250Y0369411D01*
X0289341Y0369464D01*
X0289434Y0369513D01*
X0289528Y0369558D01*
X0289624Y0369600D01*
X0289722Y0369638D01*
X0289821Y0369672D01*
X0289922Y0369703D01*
X0290023Y0369729D01*
X0290126Y0369752D01*
X0290229Y0369771D01*
X0290333Y0369786D01*
X0290437Y0369797D01*
X0290542Y0369804D01*
X0290647Y0369807D01*
X0290752Y0369806D01*
X0290857Y0369801D01*
X0290961Y0369792D01*
X0291065Y0369779D01*
X0291169Y0369762D01*
X0291272Y0369741D01*
X0291374Y0369716D01*
X0291475Y0369688D01*
X0291574Y0369655D01*
X0291673Y0369619D01*
X0291770Y0369579D01*
X0291865Y0369536D01*
X0291959Y0369488D01*
X0292051Y0369438D01*
X0292141Y0369384D01*
X0292229Y0369326D01*
X0292314Y0369265D01*
X0292397Y0369201D01*
X0292478Y0369134D01*
X0292556Y0369064D01*
X0292631Y0368990D01*
X0292703Y0368915D01*
X0292773Y0368836D01*
X0292839Y0368755D01*
X0292903Y0368671D01*
X0292963Y0368585D01*
X0293019Y0368497D01*
X0293073Y0368406D01*
X0293123Y0368314D01*
X0293169Y0368220D01*
X0293212Y0368124D01*
X0293251Y0368026D01*
X0293286Y0367928D01*
X0293317Y0367827D01*
X0293345Y0367726D01*
X0293369Y0367624D01*
X0293389Y0367521D01*
X0293405Y0367417D01*
X0293417Y0367313D01*
X0293425Y0367208D01*
X0293429Y0367103D01*
X0293429Y0366999D01*
X0293425Y0366894D01*
X0293417Y0366789D01*
X0293405Y0366685D01*
X0293389Y0366581D01*
X0293369Y0366478D01*
X0293345Y0366376D01*
X0293317Y0366275D01*
X0293286Y0366174D01*
X0293251Y0366076D01*
X0293212Y0365978D01*
X0293169Y0365882D01*
X0293123Y0365788D01*
X0293073Y0365696D01*
X0293019Y0365605D01*
X0292963Y0365517D01*
X0292903Y0365431D01*
X0292839Y0365347D01*
X0292773Y0365266D01*
X0292703Y0365187D01*
X0292631Y0365112D01*
X0292556Y0365038D01*
X0292478Y0364968D01*
X0292397Y0364901D01*
X0292314Y0364837D01*
X0292229Y0364776D01*
X0292141Y0364718D01*
X0292051Y0364664D01*
X0291959Y0364614D01*
X0291865Y0364566D01*
X0291770Y0364523D01*
X0291673Y0364483D01*
X0291574Y0364447D01*
X0291475Y0364414D01*
X0291374Y0364386D01*
X0291272Y0364361D01*
X0291169Y0364340D01*
X0291065Y0364323D01*
X0290961Y0364310D01*
X0290857Y0364301D01*
X0290752Y0364296D01*
X0290647Y0364295D01*
X0290542Y0364298D01*
X0290437Y0364305D01*
X0290333Y0364316D01*
X0290229Y0364331D01*
X0290126Y0364350D01*
X0290023Y0364373D01*
X0289922Y0364399D01*
X0289821Y0364430D01*
X0289722Y0364464D01*
X0289624Y0364502D01*
X0289528Y0364544D01*
X0289434Y0364589D01*
X0289341Y0364638D01*
X0289250Y0364691D01*
X0289161Y0364747D01*
X0289074Y0364806D01*
X0288990Y0364869D01*
X0288908Y0364934D01*
X0288829Y0365003D01*
X0288752Y0365075D01*
X0288678Y0365149D01*
X0288607Y0365226D01*
X0288539Y0365306D01*
X0288475Y0365389D01*
X0288413Y0365474D01*
X0288355Y0365561D01*
X0288299Y0365650D01*
X0288248Y0365742D01*
X0288200Y0365835D01*
X0288155Y0365930D01*
X0288114Y0366027D01*
X0288077Y0366125D01*
X0288044Y0366224D01*
X0288014Y0366325D01*
X0287989Y0366427D01*
X0287967Y0366529D01*
X0287949Y0366633D01*
X0287935Y0366737D01*
X0287925Y0366841D01*
X0287919Y0366946D01*
X0287917Y0367051D01*
X0382799Y0367051D02*
X0382801Y0367156D01*
X0382807Y0367261D01*
X0382817Y0367365D01*
X0382831Y0367469D01*
X0382849Y0367573D01*
X0382871Y0367675D01*
X0382896Y0367777D01*
X0382926Y0367878D01*
X0382959Y0367977D01*
X0382996Y0368075D01*
X0383037Y0368172D01*
X0383082Y0368267D01*
X0383130Y0368360D01*
X0383181Y0368452D01*
X0383237Y0368541D01*
X0383295Y0368628D01*
X0383357Y0368713D01*
X0383421Y0368796D01*
X0383489Y0368876D01*
X0383560Y0368953D01*
X0383634Y0369027D01*
X0383711Y0369099D01*
X0383790Y0369168D01*
X0383872Y0369233D01*
X0383956Y0369296D01*
X0384043Y0369355D01*
X0384132Y0369411D01*
X0384223Y0369464D01*
X0384316Y0369513D01*
X0384410Y0369558D01*
X0384506Y0369600D01*
X0384604Y0369638D01*
X0384703Y0369672D01*
X0384804Y0369703D01*
X0384905Y0369729D01*
X0385008Y0369752D01*
X0385111Y0369771D01*
X0385215Y0369786D01*
X0385319Y0369797D01*
X0385424Y0369804D01*
X0385529Y0369807D01*
X0385634Y0369806D01*
X0385739Y0369801D01*
X0385843Y0369792D01*
X0385947Y0369779D01*
X0386051Y0369762D01*
X0386154Y0369741D01*
X0386256Y0369716D01*
X0386357Y0369688D01*
X0386456Y0369655D01*
X0386555Y0369619D01*
X0386652Y0369579D01*
X0386747Y0369536D01*
X0386841Y0369488D01*
X0386933Y0369438D01*
X0387023Y0369384D01*
X0387111Y0369326D01*
X0387196Y0369265D01*
X0387279Y0369201D01*
X0387360Y0369134D01*
X0387438Y0369064D01*
X0387513Y0368990D01*
X0387585Y0368915D01*
X0387655Y0368836D01*
X0387721Y0368755D01*
X0387785Y0368671D01*
X0387845Y0368585D01*
X0387901Y0368497D01*
X0387955Y0368406D01*
X0388005Y0368314D01*
X0388051Y0368220D01*
X0388094Y0368124D01*
X0388133Y0368026D01*
X0388168Y0367928D01*
X0388199Y0367827D01*
X0388227Y0367726D01*
X0388251Y0367624D01*
X0388271Y0367521D01*
X0388287Y0367417D01*
X0388299Y0367313D01*
X0388307Y0367208D01*
X0388311Y0367103D01*
X0388311Y0366999D01*
X0388307Y0366894D01*
X0388299Y0366789D01*
X0388287Y0366685D01*
X0388271Y0366581D01*
X0388251Y0366478D01*
X0388227Y0366376D01*
X0388199Y0366275D01*
X0388168Y0366174D01*
X0388133Y0366076D01*
X0388094Y0365978D01*
X0388051Y0365882D01*
X0388005Y0365788D01*
X0387955Y0365696D01*
X0387901Y0365605D01*
X0387845Y0365517D01*
X0387785Y0365431D01*
X0387721Y0365347D01*
X0387655Y0365266D01*
X0387585Y0365187D01*
X0387513Y0365112D01*
X0387438Y0365038D01*
X0387360Y0364968D01*
X0387279Y0364901D01*
X0387196Y0364837D01*
X0387111Y0364776D01*
X0387023Y0364718D01*
X0386933Y0364664D01*
X0386841Y0364614D01*
X0386747Y0364566D01*
X0386652Y0364523D01*
X0386555Y0364483D01*
X0386456Y0364447D01*
X0386357Y0364414D01*
X0386256Y0364386D01*
X0386154Y0364361D01*
X0386051Y0364340D01*
X0385947Y0364323D01*
X0385843Y0364310D01*
X0385739Y0364301D01*
X0385634Y0364296D01*
X0385529Y0364295D01*
X0385424Y0364298D01*
X0385319Y0364305D01*
X0385215Y0364316D01*
X0385111Y0364331D01*
X0385008Y0364350D01*
X0384905Y0364373D01*
X0384804Y0364399D01*
X0384703Y0364430D01*
X0384604Y0364464D01*
X0384506Y0364502D01*
X0384410Y0364544D01*
X0384316Y0364589D01*
X0384223Y0364638D01*
X0384132Y0364691D01*
X0384043Y0364747D01*
X0383956Y0364806D01*
X0383872Y0364869D01*
X0383790Y0364934D01*
X0383711Y0365003D01*
X0383634Y0365075D01*
X0383560Y0365149D01*
X0383489Y0365226D01*
X0383421Y0365306D01*
X0383357Y0365389D01*
X0383295Y0365474D01*
X0383237Y0365561D01*
X0383181Y0365650D01*
X0383130Y0365742D01*
X0383082Y0365835D01*
X0383037Y0365930D01*
X0382996Y0366027D01*
X0382959Y0366125D01*
X0382926Y0366224D01*
X0382896Y0366325D01*
X0382871Y0366427D01*
X0382849Y0366529D01*
X0382831Y0366633D01*
X0382817Y0366737D01*
X0382807Y0366841D01*
X0382801Y0366946D01*
X0382799Y0367051D01*
X0419807Y0345988D02*
X0419809Y0346128D01*
X0419815Y0346268D01*
X0419825Y0346407D01*
X0419839Y0346546D01*
X0419857Y0346685D01*
X0419878Y0346823D01*
X0419904Y0346961D01*
X0419934Y0347098D01*
X0419967Y0347233D01*
X0420005Y0347368D01*
X0420046Y0347502D01*
X0420091Y0347635D01*
X0420139Y0347766D01*
X0420192Y0347895D01*
X0420248Y0348024D01*
X0420307Y0348150D01*
X0420371Y0348275D01*
X0420437Y0348398D01*
X0420508Y0348519D01*
X0420581Y0348638D01*
X0420658Y0348755D01*
X0420739Y0348869D01*
X0420822Y0348981D01*
X0420909Y0349091D01*
X0420999Y0349199D01*
X0421091Y0349303D01*
X0421187Y0349405D01*
X0421286Y0349505D01*
X0421387Y0349601D01*
X0421491Y0349695D01*
X0421598Y0349785D01*
X0421707Y0349872D01*
X0421819Y0349957D01*
X0421933Y0350038D01*
X0422049Y0350116D01*
X0422167Y0350190D01*
X0422288Y0350261D01*
X0422410Y0350329D01*
X0422535Y0350393D01*
X0422661Y0350454D01*
X0422788Y0350511D01*
X0422918Y0350564D01*
X0423049Y0350614D01*
X0423181Y0350659D01*
X0423314Y0350702D01*
X0423449Y0350740D01*
X0423584Y0350774D01*
X0423721Y0350805D01*
X0423858Y0350832D01*
X0423996Y0350854D01*
X0424135Y0350873D01*
X0424274Y0350888D01*
X0424413Y0350899D01*
X0424553Y0350906D01*
X0424693Y0350909D01*
X0424833Y0350908D01*
X0424973Y0350903D01*
X0425112Y0350894D01*
X0425252Y0350881D01*
X0425391Y0350864D01*
X0425529Y0350843D01*
X0425667Y0350819D01*
X0425804Y0350790D01*
X0425940Y0350758D01*
X0426075Y0350721D01*
X0426209Y0350681D01*
X0426342Y0350637D01*
X0426473Y0350589D01*
X0426603Y0350538D01*
X0426732Y0350483D01*
X0426859Y0350424D01*
X0426984Y0350361D01*
X0427107Y0350296D01*
X0427229Y0350226D01*
X0427348Y0350153D01*
X0427466Y0350077D01*
X0427581Y0349998D01*
X0427694Y0349915D01*
X0427804Y0349829D01*
X0427912Y0349740D01*
X0428017Y0349648D01*
X0428120Y0349553D01*
X0428220Y0349455D01*
X0428317Y0349355D01*
X0428411Y0349251D01*
X0428503Y0349145D01*
X0428591Y0349037D01*
X0428676Y0348926D01*
X0428758Y0348812D01*
X0428837Y0348696D01*
X0428912Y0348579D01*
X0428984Y0348459D01*
X0429052Y0348337D01*
X0429117Y0348213D01*
X0429179Y0348087D01*
X0429237Y0347960D01*
X0429291Y0347831D01*
X0429342Y0347700D01*
X0429388Y0347568D01*
X0429431Y0347435D01*
X0429471Y0347301D01*
X0429506Y0347166D01*
X0429538Y0347029D01*
X0429565Y0346892D01*
X0429589Y0346754D01*
X0429609Y0346616D01*
X0429625Y0346477D01*
X0429637Y0346337D01*
X0429645Y0346198D01*
X0429649Y0346058D01*
X0429649Y0345918D01*
X0429645Y0345778D01*
X0429637Y0345639D01*
X0429625Y0345499D01*
X0429609Y0345360D01*
X0429589Y0345222D01*
X0429565Y0345084D01*
X0429538Y0344947D01*
X0429506Y0344810D01*
X0429471Y0344675D01*
X0429431Y0344541D01*
X0429388Y0344408D01*
X0429342Y0344276D01*
X0429291Y0344145D01*
X0429237Y0344016D01*
X0429179Y0343889D01*
X0429117Y0343763D01*
X0429052Y0343639D01*
X0428984Y0343517D01*
X0428912Y0343397D01*
X0428837Y0343280D01*
X0428758Y0343164D01*
X0428676Y0343050D01*
X0428591Y0342939D01*
X0428503Y0342831D01*
X0428411Y0342725D01*
X0428317Y0342621D01*
X0428220Y0342521D01*
X0428120Y0342423D01*
X0428017Y0342328D01*
X0427912Y0342236D01*
X0427804Y0342147D01*
X0427694Y0342061D01*
X0427581Y0341978D01*
X0427466Y0341899D01*
X0427348Y0341823D01*
X0427229Y0341750D01*
X0427107Y0341680D01*
X0426984Y0341615D01*
X0426859Y0341552D01*
X0426732Y0341493D01*
X0426603Y0341438D01*
X0426473Y0341387D01*
X0426342Y0341339D01*
X0426209Y0341295D01*
X0426075Y0341255D01*
X0425940Y0341218D01*
X0425804Y0341186D01*
X0425667Y0341157D01*
X0425529Y0341133D01*
X0425391Y0341112D01*
X0425252Y0341095D01*
X0425112Y0341082D01*
X0424973Y0341073D01*
X0424833Y0341068D01*
X0424693Y0341067D01*
X0424553Y0341070D01*
X0424413Y0341077D01*
X0424274Y0341088D01*
X0424135Y0341103D01*
X0423996Y0341122D01*
X0423858Y0341144D01*
X0423721Y0341171D01*
X0423584Y0341202D01*
X0423449Y0341236D01*
X0423314Y0341274D01*
X0423181Y0341317D01*
X0423049Y0341362D01*
X0422918Y0341412D01*
X0422788Y0341465D01*
X0422661Y0341522D01*
X0422535Y0341583D01*
X0422410Y0341647D01*
X0422288Y0341715D01*
X0422167Y0341786D01*
X0422049Y0341860D01*
X0421933Y0341938D01*
X0421819Y0342019D01*
X0421707Y0342104D01*
X0421598Y0342191D01*
X0421491Y0342281D01*
X0421387Y0342375D01*
X0421286Y0342471D01*
X0421187Y0342571D01*
X0421091Y0342673D01*
X0420999Y0342777D01*
X0420909Y0342885D01*
X0420822Y0342995D01*
X0420739Y0343107D01*
X0420658Y0343221D01*
X0420581Y0343338D01*
X0420508Y0343457D01*
X0420437Y0343578D01*
X0420371Y0343701D01*
X0420307Y0343826D01*
X0420248Y0343952D01*
X0420192Y0344081D01*
X0420139Y0344210D01*
X0420091Y0344341D01*
X0420046Y0344474D01*
X0420005Y0344608D01*
X0419967Y0344743D01*
X0419934Y0344878D01*
X0419904Y0345015D01*
X0419878Y0345153D01*
X0419857Y0345291D01*
X0419839Y0345430D01*
X0419825Y0345569D01*
X0419815Y0345708D01*
X0419809Y0345848D01*
X0419807Y0345988D01*
X0419807Y0330240D02*
X0419809Y0330380D01*
X0419815Y0330520D01*
X0419825Y0330659D01*
X0419839Y0330798D01*
X0419857Y0330937D01*
X0419878Y0331075D01*
X0419904Y0331213D01*
X0419934Y0331350D01*
X0419967Y0331485D01*
X0420005Y0331620D01*
X0420046Y0331754D01*
X0420091Y0331887D01*
X0420139Y0332018D01*
X0420192Y0332147D01*
X0420248Y0332276D01*
X0420307Y0332402D01*
X0420371Y0332527D01*
X0420437Y0332650D01*
X0420508Y0332771D01*
X0420581Y0332890D01*
X0420658Y0333007D01*
X0420739Y0333121D01*
X0420822Y0333233D01*
X0420909Y0333343D01*
X0420999Y0333451D01*
X0421091Y0333555D01*
X0421187Y0333657D01*
X0421286Y0333757D01*
X0421387Y0333853D01*
X0421491Y0333947D01*
X0421598Y0334037D01*
X0421707Y0334124D01*
X0421819Y0334209D01*
X0421933Y0334290D01*
X0422049Y0334368D01*
X0422167Y0334442D01*
X0422288Y0334513D01*
X0422410Y0334581D01*
X0422535Y0334645D01*
X0422661Y0334706D01*
X0422788Y0334763D01*
X0422918Y0334816D01*
X0423049Y0334866D01*
X0423181Y0334911D01*
X0423314Y0334954D01*
X0423449Y0334992D01*
X0423584Y0335026D01*
X0423721Y0335057D01*
X0423858Y0335084D01*
X0423996Y0335106D01*
X0424135Y0335125D01*
X0424274Y0335140D01*
X0424413Y0335151D01*
X0424553Y0335158D01*
X0424693Y0335161D01*
X0424833Y0335160D01*
X0424973Y0335155D01*
X0425112Y0335146D01*
X0425252Y0335133D01*
X0425391Y0335116D01*
X0425529Y0335095D01*
X0425667Y0335071D01*
X0425804Y0335042D01*
X0425940Y0335010D01*
X0426075Y0334973D01*
X0426209Y0334933D01*
X0426342Y0334889D01*
X0426473Y0334841D01*
X0426603Y0334790D01*
X0426732Y0334735D01*
X0426859Y0334676D01*
X0426984Y0334613D01*
X0427107Y0334548D01*
X0427229Y0334478D01*
X0427348Y0334405D01*
X0427466Y0334329D01*
X0427581Y0334250D01*
X0427694Y0334167D01*
X0427804Y0334081D01*
X0427912Y0333992D01*
X0428017Y0333900D01*
X0428120Y0333805D01*
X0428220Y0333707D01*
X0428317Y0333607D01*
X0428411Y0333503D01*
X0428503Y0333397D01*
X0428591Y0333289D01*
X0428676Y0333178D01*
X0428758Y0333064D01*
X0428837Y0332948D01*
X0428912Y0332831D01*
X0428984Y0332711D01*
X0429052Y0332589D01*
X0429117Y0332465D01*
X0429179Y0332339D01*
X0429237Y0332212D01*
X0429291Y0332083D01*
X0429342Y0331952D01*
X0429388Y0331820D01*
X0429431Y0331687D01*
X0429471Y0331553D01*
X0429506Y0331418D01*
X0429538Y0331281D01*
X0429565Y0331144D01*
X0429589Y0331006D01*
X0429609Y0330868D01*
X0429625Y0330729D01*
X0429637Y0330589D01*
X0429645Y0330450D01*
X0429649Y0330310D01*
X0429649Y0330170D01*
X0429645Y0330030D01*
X0429637Y0329891D01*
X0429625Y0329751D01*
X0429609Y0329612D01*
X0429589Y0329474D01*
X0429565Y0329336D01*
X0429538Y0329199D01*
X0429506Y0329062D01*
X0429471Y0328927D01*
X0429431Y0328793D01*
X0429388Y0328660D01*
X0429342Y0328528D01*
X0429291Y0328397D01*
X0429237Y0328268D01*
X0429179Y0328141D01*
X0429117Y0328015D01*
X0429052Y0327891D01*
X0428984Y0327769D01*
X0428912Y0327649D01*
X0428837Y0327532D01*
X0428758Y0327416D01*
X0428676Y0327302D01*
X0428591Y0327191D01*
X0428503Y0327083D01*
X0428411Y0326977D01*
X0428317Y0326873D01*
X0428220Y0326773D01*
X0428120Y0326675D01*
X0428017Y0326580D01*
X0427912Y0326488D01*
X0427804Y0326399D01*
X0427694Y0326313D01*
X0427581Y0326230D01*
X0427466Y0326151D01*
X0427348Y0326075D01*
X0427229Y0326002D01*
X0427107Y0325932D01*
X0426984Y0325867D01*
X0426859Y0325804D01*
X0426732Y0325745D01*
X0426603Y0325690D01*
X0426473Y0325639D01*
X0426342Y0325591D01*
X0426209Y0325547D01*
X0426075Y0325507D01*
X0425940Y0325470D01*
X0425804Y0325438D01*
X0425667Y0325409D01*
X0425529Y0325385D01*
X0425391Y0325364D01*
X0425252Y0325347D01*
X0425112Y0325334D01*
X0424973Y0325325D01*
X0424833Y0325320D01*
X0424693Y0325319D01*
X0424553Y0325322D01*
X0424413Y0325329D01*
X0424274Y0325340D01*
X0424135Y0325355D01*
X0423996Y0325374D01*
X0423858Y0325396D01*
X0423721Y0325423D01*
X0423584Y0325454D01*
X0423449Y0325488D01*
X0423314Y0325526D01*
X0423181Y0325569D01*
X0423049Y0325614D01*
X0422918Y0325664D01*
X0422788Y0325717D01*
X0422661Y0325774D01*
X0422535Y0325835D01*
X0422410Y0325899D01*
X0422288Y0325967D01*
X0422167Y0326038D01*
X0422049Y0326112D01*
X0421933Y0326190D01*
X0421819Y0326271D01*
X0421707Y0326356D01*
X0421598Y0326443D01*
X0421491Y0326533D01*
X0421387Y0326627D01*
X0421286Y0326723D01*
X0421187Y0326823D01*
X0421091Y0326925D01*
X0420999Y0327029D01*
X0420909Y0327137D01*
X0420822Y0327247D01*
X0420739Y0327359D01*
X0420658Y0327473D01*
X0420581Y0327590D01*
X0420508Y0327709D01*
X0420437Y0327830D01*
X0420371Y0327953D01*
X0420307Y0328078D01*
X0420248Y0328204D01*
X0420192Y0328333D01*
X0420139Y0328462D01*
X0420091Y0328593D01*
X0420046Y0328726D01*
X0420005Y0328860D01*
X0419967Y0328995D01*
X0419934Y0329130D01*
X0419904Y0329267D01*
X0419878Y0329405D01*
X0419857Y0329543D01*
X0419839Y0329682D01*
X0419825Y0329821D01*
X0419815Y0329960D01*
X0419809Y0330100D01*
X0419807Y0330240D01*
X0382799Y0309177D02*
X0382801Y0309282D01*
X0382807Y0309387D01*
X0382817Y0309491D01*
X0382831Y0309595D01*
X0382849Y0309699D01*
X0382871Y0309801D01*
X0382896Y0309903D01*
X0382926Y0310004D01*
X0382959Y0310103D01*
X0382996Y0310201D01*
X0383037Y0310298D01*
X0383082Y0310393D01*
X0383130Y0310486D01*
X0383181Y0310578D01*
X0383237Y0310667D01*
X0383295Y0310754D01*
X0383357Y0310839D01*
X0383421Y0310922D01*
X0383489Y0311002D01*
X0383560Y0311079D01*
X0383634Y0311153D01*
X0383711Y0311225D01*
X0383790Y0311294D01*
X0383872Y0311359D01*
X0383956Y0311422D01*
X0384043Y0311481D01*
X0384132Y0311537D01*
X0384223Y0311590D01*
X0384316Y0311639D01*
X0384410Y0311684D01*
X0384506Y0311726D01*
X0384604Y0311764D01*
X0384703Y0311798D01*
X0384804Y0311829D01*
X0384905Y0311855D01*
X0385008Y0311878D01*
X0385111Y0311897D01*
X0385215Y0311912D01*
X0385319Y0311923D01*
X0385424Y0311930D01*
X0385529Y0311933D01*
X0385634Y0311932D01*
X0385739Y0311927D01*
X0385843Y0311918D01*
X0385947Y0311905D01*
X0386051Y0311888D01*
X0386154Y0311867D01*
X0386256Y0311842D01*
X0386357Y0311814D01*
X0386456Y0311781D01*
X0386555Y0311745D01*
X0386652Y0311705D01*
X0386747Y0311662D01*
X0386841Y0311614D01*
X0386933Y0311564D01*
X0387023Y0311510D01*
X0387111Y0311452D01*
X0387196Y0311391D01*
X0387279Y0311327D01*
X0387360Y0311260D01*
X0387438Y0311190D01*
X0387513Y0311116D01*
X0387585Y0311041D01*
X0387655Y0310962D01*
X0387721Y0310881D01*
X0387785Y0310797D01*
X0387845Y0310711D01*
X0387901Y0310623D01*
X0387955Y0310532D01*
X0388005Y0310440D01*
X0388051Y0310346D01*
X0388094Y0310250D01*
X0388133Y0310152D01*
X0388168Y0310054D01*
X0388199Y0309953D01*
X0388227Y0309852D01*
X0388251Y0309750D01*
X0388271Y0309647D01*
X0388287Y0309543D01*
X0388299Y0309439D01*
X0388307Y0309334D01*
X0388311Y0309229D01*
X0388311Y0309125D01*
X0388307Y0309020D01*
X0388299Y0308915D01*
X0388287Y0308811D01*
X0388271Y0308707D01*
X0388251Y0308604D01*
X0388227Y0308502D01*
X0388199Y0308401D01*
X0388168Y0308300D01*
X0388133Y0308202D01*
X0388094Y0308104D01*
X0388051Y0308008D01*
X0388005Y0307914D01*
X0387955Y0307822D01*
X0387901Y0307731D01*
X0387845Y0307643D01*
X0387785Y0307557D01*
X0387721Y0307473D01*
X0387655Y0307392D01*
X0387585Y0307313D01*
X0387513Y0307238D01*
X0387438Y0307164D01*
X0387360Y0307094D01*
X0387279Y0307027D01*
X0387196Y0306963D01*
X0387111Y0306902D01*
X0387023Y0306844D01*
X0386933Y0306790D01*
X0386841Y0306740D01*
X0386747Y0306692D01*
X0386652Y0306649D01*
X0386555Y0306609D01*
X0386456Y0306573D01*
X0386357Y0306540D01*
X0386256Y0306512D01*
X0386154Y0306487D01*
X0386051Y0306466D01*
X0385947Y0306449D01*
X0385843Y0306436D01*
X0385739Y0306427D01*
X0385634Y0306422D01*
X0385529Y0306421D01*
X0385424Y0306424D01*
X0385319Y0306431D01*
X0385215Y0306442D01*
X0385111Y0306457D01*
X0385008Y0306476D01*
X0384905Y0306499D01*
X0384804Y0306525D01*
X0384703Y0306556D01*
X0384604Y0306590D01*
X0384506Y0306628D01*
X0384410Y0306670D01*
X0384316Y0306715D01*
X0384223Y0306764D01*
X0384132Y0306817D01*
X0384043Y0306873D01*
X0383956Y0306932D01*
X0383872Y0306995D01*
X0383790Y0307060D01*
X0383711Y0307129D01*
X0383634Y0307201D01*
X0383560Y0307275D01*
X0383489Y0307352D01*
X0383421Y0307432D01*
X0383357Y0307515D01*
X0383295Y0307600D01*
X0383237Y0307687D01*
X0383181Y0307776D01*
X0383130Y0307868D01*
X0383082Y0307961D01*
X0383037Y0308056D01*
X0382996Y0308153D01*
X0382959Y0308251D01*
X0382926Y0308350D01*
X0382896Y0308451D01*
X0382871Y0308553D01*
X0382849Y0308655D01*
X0382831Y0308759D01*
X0382817Y0308863D01*
X0382807Y0308967D01*
X0382801Y0309072D01*
X0382799Y0309177D01*
D12*
X0370832Y0328522D02*
X0370832Y0332750D01*
X0368718Y0330636D01*
X0371537Y0330636D01*
X0367187Y0328522D02*
X0364368Y0328522D01*
X0365777Y0328522D02*
X0365777Y0332750D01*
X0364368Y0331340D01*
X0362836Y0332045D02*
X0362132Y0332750D01*
X0360722Y0332750D01*
X0360018Y0332045D01*
X0360018Y0329226D01*
X0360722Y0328522D01*
X0362132Y0328522D01*
X0362836Y0329226D01*
X0362132Y0338364D02*
X0362836Y0339069D01*
X0362132Y0338364D02*
X0360722Y0338364D01*
X0360018Y0339069D01*
X0360018Y0341888D01*
X0360722Y0342592D01*
X0362132Y0342592D01*
X0362836Y0341888D01*
X0364368Y0341888D02*
X0364368Y0341183D01*
X0365073Y0340478D01*
X0366482Y0340478D01*
X0367187Y0339774D01*
X0367187Y0339069D01*
X0366482Y0338364D01*
X0365073Y0338364D01*
X0364368Y0339069D01*
X0364368Y0339774D01*
X0365073Y0340478D01*
X0366482Y0340478D02*
X0367187Y0341183D01*
X0367187Y0341888D01*
X0366482Y0342592D01*
X0365073Y0342592D01*
X0364368Y0341888D01*
X0364368Y0348207D02*
X0364368Y0348911D01*
X0367187Y0351730D01*
X0367187Y0352435D01*
X0364368Y0352435D01*
X0362836Y0351730D02*
X0362132Y0352435D01*
X0360722Y0352435D01*
X0360018Y0351730D01*
X0360018Y0348911D01*
X0360722Y0348207D01*
X0362132Y0348207D01*
X0362836Y0348911D01*
X0388110Y0374559D02*
X0390929Y0374559D01*
X0391633Y0375263D01*
X0391633Y0376673D01*
X0390929Y0377377D01*
X0391633Y0378909D02*
X0388815Y0381727D01*
X0388110Y0381727D01*
X0387405Y0381023D01*
X0387405Y0379613D01*
X0388110Y0378909D01*
X0388110Y0377377D02*
X0387405Y0376673D01*
X0387405Y0375263D01*
X0388110Y0374559D01*
X0391633Y0378909D02*
X0391633Y0381727D01*
X0390929Y0383259D02*
X0391633Y0383964D01*
X0391633Y0385373D01*
X0390929Y0386078D01*
X0390224Y0386078D01*
X0389519Y0385373D01*
X0389519Y0384668D01*
X0389519Y0385373D02*
X0388815Y0386078D01*
X0388110Y0386078D01*
X0387405Y0385373D01*
X0387405Y0383964D01*
X0388110Y0383259D01*
X0386215Y0401167D02*
X0383396Y0401167D01*
X0382691Y0401872D01*
X0382691Y0403281D01*
X0383396Y0403986D01*
X0383396Y0405517D02*
X0382691Y0406222D01*
X0382691Y0407631D01*
X0383396Y0408336D01*
X0384101Y0408336D01*
X0386919Y0405517D01*
X0386919Y0408336D01*
X0386919Y0409868D02*
X0384101Y0412686D01*
X0383396Y0412686D01*
X0382691Y0411982D01*
X0382691Y0410572D01*
X0383396Y0409868D01*
X0383862Y0411087D02*
X0383157Y0411792D01*
X0383862Y0411087D02*
X0385271Y0411087D01*
X0385976Y0411792D01*
X0385976Y0413201D01*
X0385271Y0413906D01*
X0384567Y0413906D01*
X0383157Y0413201D01*
X0383157Y0415315D01*
X0385976Y0415315D01*
X0386919Y0412686D02*
X0386919Y0409868D01*
X0381626Y0411087D02*
X0378807Y0411087D01*
X0381626Y0413906D01*
X0381626Y0414610D01*
X0380921Y0415315D01*
X0379512Y0415315D01*
X0378807Y0414610D01*
X0377276Y0414610D02*
X0376571Y0415315D01*
X0375162Y0415315D01*
X0374457Y0414610D01*
X0374457Y0411792D01*
X0375162Y0411087D01*
X0376571Y0411087D01*
X0377276Y0411792D01*
X0386215Y0403986D02*
X0386919Y0403281D01*
X0386919Y0401872D01*
X0386215Y0401167D01*
X0387187Y0436002D02*
X0385778Y0437411D01*
X0386483Y0437411D02*
X0384369Y0437411D01*
X0384369Y0436002D02*
X0384369Y0440230D01*
X0386483Y0440230D01*
X0387187Y0439525D01*
X0387187Y0438116D01*
X0386483Y0437411D01*
X0388719Y0436002D02*
X0391538Y0436002D01*
X0390128Y0436002D02*
X0390128Y0440230D01*
X0388719Y0438821D01*
X0393069Y0439525D02*
X0393774Y0440230D01*
X0395183Y0440230D01*
X0395888Y0439525D01*
X0395888Y0438821D01*
X0393069Y0436002D01*
X0395888Y0436002D01*
X0400117Y0436002D02*
X0400117Y0440230D01*
X0402231Y0440230D01*
X0402935Y0439525D01*
X0402935Y0438116D01*
X0402231Y0437411D01*
X0400117Y0437411D01*
X0401526Y0437411D02*
X0402935Y0436002D01*
X0404467Y0436002D02*
X0407286Y0436002D01*
X0405876Y0436002D02*
X0405876Y0440230D01*
X0404467Y0438821D01*
X0408817Y0439525D02*
X0409522Y0440230D01*
X0410931Y0440230D01*
X0411636Y0439525D01*
X0411636Y0438821D01*
X0410931Y0438116D01*
X0411636Y0437411D01*
X0411636Y0436707D01*
X0410931Y0436002D01*
X0409522Y0436002D01*
X0408817Y0436707D01*
X0410226Y0438116D02*
X0410931Y0438116D01*
X0456294Y0391033D02*
X0456294Y0388215D01*
X0458408Y0388215D01*
X0457703Y0389624D01*
X0457703Y0390329D01*
X0458408Y0391033D01*
X0459817Y0391033D01*
X0460522Y0390329D01*
X0460522Y0388919D01*
X0459817Y0388215D01*
X0459817Y0386683D02*
X0460522Y0385979D01*
X0460522Y0384569D01*
X0459817Y0383865D01*
X0456998Y0383865D01*
X0456294Y0384569D01*
X0456294Y0385979D01*
X0456998Y0386683D01*
X0467643Y0358260D02*
X0467643Y0355257D01*
X0467643Y0356759D02*
X0463139Y0356759D01*
X0464640Y0355257D01*
X0463890Y0353656D02*
X0465391Y0353656D01*
X0466142Y0352905D01*
X0466142Y0350654D01*
X0467643Y0350654D02*
X0463139Y0350654D01*
X0463139Y0352905D01*
X0463890Y0353656D01*
X0463139Y0349052D02*
X0463139Y0347551D01*
X0463139Y0348302D02*
X0466892Y0348302D01*
X0467643Y0347551D01*
X0467643Y0346800D01*
X0466892Y0346050D01*
X0400939Y0277778D02*
X0400234Y0277778D01*
X0399530Y0277073D01*
X0399530Y0274959D01*
X0400939Y0274959D01*
X0401644Y0275664D01*
X0401644Y0277073D01*
X0400939Y0277778D01*
X0398120Y0276368D02*
X0399530Y0274959D01*
X0398120Y0276368D02*
X0397416Y0277778D01*
X0397416Y0272018D02*
X0401644Y0272018D01*
X0401644Y0270609D02*
X0401644Y0273427D01*
X0398825Y0270609D02*
X0397416Y0272018D01*
X0398120Y0269077D02*
X0399530Y0269077D01*
X0400234Y0268373D01*
X0400234Y0266259D01*
X0400234Y0267668D02*
X0401644Y0269077D01*
X0401644Y0266259D02*
X0397416Y0266259D01*
X0397416Y0268373D01*
X0398120Y0269077D01*
X0354400Y0242344D02*
X0354400Y0239526D01*
X0354400Y0240935D02*
X0350172Y0240935D01*
X0351581Y0239526D01*
X0350876Y0237994D02*
X0352286Y0237994D01*
X0352990Y0237290D01*
X0352990Y0235176D01*
X0352990Y0236585D02*
X0354400Y0237994D01*
X0354400Y0235176D02*
X0350172Y0235176D01*
X0350172Y0237290D01*
X0350876Y0237994D01*
X0342589Y0237581D02*
X0341179Y0236172D01*
X0341179Y0236876D02*
X0341179Y0234762D01*
X0342589Y0234762D02*
X0338361Y0234762D01*
X0338361Y0236876D01*
X0339065Y0237581D01*
X0340475Y0237581D01*
X0341179Y0236876D01*
X0339770Y0239113D02*
X0338361Y0240522D01*
X0342589Y0240522D01*
X0342589Y0239113D02*
X0342589Y0241931D01*
X0342589Y0243463D02*
X0341884Y0243463D01*
X0339065Y0246281D01*
X0338361Y0246281D01*
X0338361Y0243463D01*
X0330778Y0242344D02*
X0330778Y0239526D01*
X0327959Y0242344D01*
X0327254Y0242344D01*
X0326550Y0241640D01*
X0326550Y0240230D01*
X0327254Y0239526D01*
X0327254Y0237994D02*
X0328664Y0237994D01*
X0329368Y0237290D01*
X0329368Y0235176D01*
X0329368Y0236585D02*
X0330778Y0237994D01*
X0330778Y0235176D02*
X0326550Y0235176D01*
X0326550Y0237290D01*
X0327254Y0237994D01*
X0278809Y0279309D02*
X0274581Y0279309D01*
X0274581Y0281423D01*
X0275286Y0282128D01*
X0276695Y0282128D01*
X0277400Y0281423D01*
X0277400Y0279309D01*
X0277400Y0280718D02*
X0278809Y0282128D01*
X0278809Y0283659D02*
X0278809Y0286478D01*
X0278809Y0285069D02*
X0274581Y0285069D01*
X0275990Y0283659D01*
X0276695Y0288009D02*
X0275990Y0289419D01*
X0275990Y0290123D01*
X0276695Y0290828D01*
X0278104Y0290828D01*
X0278809Y0290123D01*
X0278809Y0288714D01*
X0278104Y0288009D01*
X0276695Y0288009D02*
X0274581Y0288009D01*
X0274581Y0290828D01*
X0251458Y0279600D02*
X0251458Y0278895D01*
X0248639Y0276077D01*
X0248639Y0275372D01*
X0247108Y0275372D02*
X0244289Y0275372D01*
X0245698Y0275372D02*
X0245698Y0279600D01*
X0244289Y0278191D01*
X0242758Y0278895D02*
X0242053Y0279600D01*
X0240644Y0279600D01*
X0239939Y0278895D01*
X0239939Y0276077D01*
X0240644Y0275372D01*
X0242053Y0275372D01*
X0242758Y0276077D01*
X0248639Y0279600D02*
X0251458Y0279600D01*
X0242226Y0312289D02*
X0242931Y0312994D01*
X0242931Y0314403D01*
X0242226Y0315108D01*
X0242931Y0316640D02*
X0242931Y0319458D01*
X0242931Y0318049D02*
X0238703Y0318049D01*
X0240112Y0316640D01*
X0239408Y0315108D02*
X0238703Y0314403D01*
X0238703Y0312994D01*
X0239408Y0312289D01*
X0242226Y0312289D01*
X0242226Y0320990D02*
X0242931Y0321694D01*
X0242931Y0323104D01*
X0242226Y0323808D01*
X0241522Y0323808D01*
X0240817Y0323104D01*
X0240817Y0320990D01*
X0242226Y0320990D01*
X0240817Y0320990D02*
X0239408Y0322399D01*
X0238703Y0323808D01*
X0230672Y0346050D02*
X0231422Y0346800D01*
X0231422Y0347551D01*
X0230672Y0348302D01*
X0226919Y0348302D01*
X0226919Y0349052D02*
X0226919Y0347551D01*
X0226919Y0350654D02*
X0226919Y0352905D01*
X0227669Y0353656D01*
X0229171Y0353656D01*
X0229921Y0352905D01*
X0229921Y0350654D01*
X0231422Y0350654D02*
X0226919Y0350654D01*
X0227669Y0355257D02*
X0226919Y0356008D01*
X0226919Y0357509D01*
X0227669Y0358260D01*
X0228420Y0358260D01*
X0231422Y0355257D01*
X0231422Y0358260D01*
X0238183Y0357863D02*
X0238183Y0356362D01*
X0238183Y0357112D02*
X0241936Y0357112D01*
X0242687Y0356362D01*
X0242687Y0355611D01*
X0241936Y0354860D01*
X0242687Y0359464D02*
X0242687Y0362467D01*
X0242687Y0360965D02*
X0238183Y0360965D01*
X0239684Y0359464D01*
X0247022Y0397419D02*
X0247022Y0399533D01*
X0247727Y0400238D01*
X0249136Y0400238D01*
X0249841Y0399533D01*
X0249841Y0397419D01*
X0251250Y0397419D02*
X0247022Y0397419D01*
X0249841Y0398829D02*
X0251250Y0400238D01*
X0250545Y0401769D02*
X0251250Y0402474D01*
X0251250Y0403883D01*
X0250545Y0404588D01*
X0249841Y0404588D01*
X0249136Y0403883D01*
X0249136Y0403179D01*
X0249136Y0403883D02*
X0248431Y0404588D01*
X0247727Y0404588D01*
X0247022Y0403883D01*
X0247022Y0402474D01*
X0247727Y0401769D01*
X0279409Y0397769D02*
X0279409Y0394950D01*
X0280114Y0394245D01*
X0281523Y0394245D01*
X0282228Y0394950D01*
X0283759Y0396359D02*
X0286578Y0396359D01*
X0285873Y0394245D02*
X0285873Y0398473D01*
X0283759Y0396359D01*
X0282228Y0397769D02*
X0281523Y0398473D01*
X0280114Y0398473D01*
X0279409Y0397769D01*
X0280114Y0390662D02*
X0279409Y0389958D01*
X0279409Y0387139D01*
X0280114Y0386434D01*
X0281523Y0386434D01*
X0282228Y0387139D01*
X0283759Y0387139D02*
X0284464Y0386434D01*
X0285873Y0386434D01*
X0286578Y0387139D01*
X0286578Y0387844D01*
X0285873Y0388548D01*
X0285169Y0388548D01*
X0285873Y0388548D02*
X0286578Y0389253D01*
X0286578Y0389958D01*
X0285873Y0390662D01*
X0284464Y0390662D01*
X0283759Y0389958D01*
X0282228Y0389958D02*
X0281523Y0390662D01*
X0280114Y0390662D01*
X0287973Y0400510D02*
X0289383Y0400510D01*
X0290087Y0401215D01*
X0291619Y0400510D02*
X0294438Y0403329D01*
X0294438Y0404033D01*
X0293733Y0404738D01*
X0292324Y0404738D01*
X0291619Y0404033D01*
X0290087Y0404033D02*
X0289383Y0404738D01*
X0287973Y0404738D01*
X0287269Y0404033D01*
X0287269Y0401215D01*
X0287973Y0400510D01*
X0291619Y0400510D02*
X0294438Y0400510D01*
X0295969Y0402624D02*
X0298788Y0402624D01*
X0298083Y0404738D02*
X0295969Y0402624D01*
X0298083Y0400510D02*
X0298083Y0404738D01*
X0300242Y0400770D02*
X0302356Y0400770D01*
X0303061Y0400065D01*
X0303061Y0398656D01*
X0302356Y0397951D01*
X0300242Y0397951D01*
X0300242Y0396542D02*
X0300242Y0400770D01*
X0301651Y0397951D02*
X0303061Y0396542D01*
X0304592Y0396542D02*
X0307411Y0396542D01*
X0306002Y0396542D02*
X0306002Y0400770D01*
X0304592Y0399361D01*
X0308942Y0398656D02*
X0311056Y0400770D01*
X0311056Y0396542D01*
X0311761Y0398656D02*
X0308942Y0398656D01*
X0325821Y0423010D02*
X0327230Y0423010D01*
X0327935Y0423715D01*
X0329466Y0423010D02*
X0332285Y0423010D01*
X0330876Y0423010D02*
X0330876Y0427238D01*
X0329466Y0425829D01*
X0327935Y0426533D02*
X0327230Y0427238D01*
X0325821Y0427238D01*
X0325116Y0426533D01*
X0325116Y0423715D01*
X0325821Y0423010D01*
X0322585Y0427159D02*
X0319766Y0427159D01*
X0322585Y0429978D01*
X0322585Y0430683D01*
X0321880Y0431387D01*
X0320471Y0431387D01*
X0319766Y0430683D01*
X0318234Y0430683D02*
X0317530Y0431387D01*
X0316120Y0431387D01*
X0315416Y0430683D01*
X0315416Y0427864D01*
X0316120Y0427159D01*
X0317530Y0427159D01*
X0318234Y0427864D01*
X0335654Y0431421D02*
X0340575Y0431421D01*
X0337426Y0430476D02*
X0337428Y0430502D01*
X0337434Y0430528D01*
X0337443Y0430552D01*
X0337457Y0430575D01*
X0337473Y0430596D01*
X0337492Y0430614D01*
X0337514Y0430628D01*
X0337538Y0430640D01*
X0337563Y0430648D01*
X0337589Y0430652D01*
X0337615Y0430652D01*
X0337641Y0430648D01*
X0337666Y0430640D01*
X0337690Y0430628D01*
X0337712Y0430614D01*
X0337731Y0430596D01*
X0337747Y0430575D01*
X0337761Y0430552D01*
X0337770Y0430528D01*
X0337776Y0430502D01*
X0337778Y0430476D01*
X0337776Y0430450D01*
X0337770Y0430424D01*
X0337761Y0430400D01*
X0337747Y0430377D01*
X0337731Y0430356D01*
X0337712Y0430338D01*
X0337690Y0430324D01*
X0337666Y0430312D01*
X0337641Y0430304D01*
X0337615Y0430300D01*
X0337589Y0430300D01*
X0337563Y0430304D01*
X0337538Y0430312D01*
X0337514Y0430324D01*
X0337492Y0430338D01*
X0337473Y0430356D01*
X0337457Y0430377D01*
X0337443Y0430400D01*
X0337434Y0430424D01*
X0337428Y0430450D01*
X0337426Y0430476D01*
X0335654Y0423547D02*
X0340575Y0423547D01*
X0310893Y0359098D02*
X0311597Y0358393D01*
X0311597Y0356984D01*
X0310893Y0356279D01*
X0310188Y0356279D01*
X0309483Y0356984D01*
X0309483Y0358393D01*
X0310188Y0359098D01*
X0310893Y0359098D01*
X0309483Y0358393D02*
X0308779Y0359098D01*
X0308074Y0359098D01*
X0307369Y0358393D01*
X0307369Y0356984D01*
X0308074Y0356279D01*
X0308779Y0356279D01*
X0309483Y0356984D01*
X0311597Y0354748D02*
X0311597Y0351929D01*
X0311597Y0353339D02*
X0307369Y0353339D01*
X0308779Y0351929D01*
X0309483Y0350398D02*
X0310188Y0349693D01*
X0310188Y0347579D01*
X0311597Y0347579D02*
X0307369Y0347579D01*
X0307369Y0349693D01*
X0308074Y0350398D01*
X0309483Y0350398D01*
X0310188Y0348988D02*
X0311597Y0350398D01*
X0322519Y0328283D02*
X0323223Y0328283D01*
X0323928Y0327579D01*
X0324633Y0328283D01*
X0325337Y0328283D01*
X0326042Y0327579D01*
X0326042Y0326169D01*
X0325337Y0325465D01*
X0326042Y0323933D02*
X0326042Y0321114D01*
X0326042Y0322524D02*
X0321814Y0322524D01*
X0323223Y0321114D01*
X0322519Y0319583D02*
X0321814Y0318878D01*
X0321814Y0317469D01*
X0322519Y0316764D01*
X0325337Y0316764D01*
X0326042Y0317469D01*
X0326042Y0318878D01*
X0325337Y0319583D01*
X0322199Y0315179D02*
X0321494Y0315179D01*
X0320790Y0314474D01*
X0320790Y0312360D01*
X0322199Y0312360D01*
X0322904Y0313065D01*
X0322904Y0314474D01*
X0322199Y0315179D01*
X0319380Y0313770D02*
X0320790Y0312360D01*
X0319380Y0313770D02*
X0318676Y0315179D01*
X0319380Y0310829D02*
X0318676Y0310124D01*
X0318676Y0308715D01*
X0319380Y0308010D01*
X0322199Y0308010D01*
X0322904Y0308715D01*
X0322904Y0310124D01*
X0322199Y0310829D01*
X0322519Y0325465D02*
X0321814Y0326169D01*
X0321814Y0327579D01*
X0322519Y0328283D01*
X0323928Y0327579D02*
X0323928Y0326874D01*
X0190268Y0191604D02*
X0189271Y0191604D01*
X0188275Y0190608D01*
X0188275Y0189611D01*
X0188773Y0189113D01*
X0189770Y0189113D01*
X0191265Y0190608D01*
X0192261Y0189611D02*
X0190268Y0191604D01*
X0192261Y0189611D02*
X0192261Y0188615D01*
X0191265Y0187618D01*
X0190268Y0187618D01*
X0189683Y0186037D02*
X0187690Y0184044D01*
X0188687Y0185040D02*
X0185697Y0188030D01*
X0185697Y0186037D01*
X0184116Y0185452D02*
X0183119Y0185452D01*
X0182123Y0184456D01*
X0182123Y0183459D01*
X0184116Y0181466D01*
X0185112Y0181466D01*
X0186109Y0182463D01*
X0186109Y0183459D01*
X0189384Y0173035D02*
X0188387Y0172039D01*
X0188387Y0171042D01*
X0188886Y0170544D01*
X0189882Y0170544D01*
X0190879Y0171541D01*
X0191875Y0171541D01*
X0192374Y0171042D01*
X0192374Y0170046D01*
X0191377Y0169049D01*
X0190381Y0169049D01*
X0189882Y0169548D01*
X0189882Y0170544D01*
X0190879Y0171541D02*
X0190879Y0172537D01*
X0190380Y0173035D01*
X0189384Y0173035D01*
X0187304Y0169959D02*
X0188301Y0168963D01*
X0188301Y0167966D01*
X0186806Y0166472D01*
X0187803Y0167468D02*
X0189796Y0167468D01*
X0187803Y0165475D02*
X0184813Y0168465D01*
X0186308Y0169959D01*
X0187304Y0169959D01*
X0179035Y0170344D02*
X0178039Y0171341D01*
X0177042Y0171341D01*
X0176544Y0170843D01*
X0176544Y0169846D01*
X0178039Y0168351D01*
X0177042Y0167355D02*
X0179035Y0169348D01*
X0179035Y0170344D01*
X0177042Y0167355D02*
X0176046Y0167355D01*
X0175049Y0168351D01*
X0175049Y0169348D01*
X0173468Y0169932D02*
X0173468Y0171926D01*
X0173966Y0171427D02*
X0172472Y0172922D01*
X0171475Y0171926D02*
X0174465Y0174915D01*
X0175959Y0173420D01*
X0175959Y0172424D01*
X0174963Y0171427D01*
X0173966Y0171427D01*
X0164266Y0182120D02*
X0166259Y0184113D01*
X0165263Y0183116D02*
X0162273Y0186106D01*
X0162273Y0184113D01*
X0163183Y0181037D02*
X0161190Y0179044D01*
X0162187Y0180040D02*
X0159197Y0183030D01*
X0159197Y0181037D01*
X0157616Y0180452D02*
X0156619Y0180452D01*
X0155623Y0179456D01*
X0155623Y0178459D01*
X0157616Y0176466D01*
X0158612Y0176466D01*
X0159609Y0177463D01*
X0159609Y0178459D01*
X0162975Y0159656D02*
X0171048Y0151583D01*
X0164645Y0145180D01*
X0156572Y0153253D01*
X0162975Y0159656D01*
X0162418Y0157151D02*
X0163532Y0156037D01*
X0162418Y0154924D01*
X0163810Y0153532D01*
X0163532Y0153253D01*
X0163810Y0153532D02*
X0164089Y0153810D01*
X0164645Y0154367D02*
X0164924Y0154645D01*
X0163532Y0156037D01*
X0164089Y0156594D01*
X0162418Y0157151D02*
X0160748Y0155480D01*
X0160748Y0156037D01*
X0161305Y0155480D01*
X0160748Y0155480D01*
X0159078Y0153810D01*
X0160191Y0152697D01*
X0161305Y0153810D01*
X0162697Y0152418D01*
X0162418Y0152140D01*
X0162697Y0152418D02*
X0162975Y0152697D01*
X0163253Y0151861D02*
X0164367Y0152975D01*
X0165480Y0154089D01*
X0164924Y0154645D02*
X0165202Y0154924D01*
X0164367Y0152975D02*
X0166316Y0151026D01*
X0167986Y0152697D01*
X0162140Y0150748D02*
X0161861Y0150469D01*
X0162140Y0150748D02*
X0160191Y0152697D01*
X0160748Y0154924D02*
X0160191Y0155480D01*
X0159122Y0139634D02*
X0142418Y0156338D01*
X0131283Y0145202D01*
X0147986Y0128499D01*
X0159122Y0139634D01*
X0141527Y0131035D02*
X0141028Y0130536D01*
X0137042Y0130536D01*
X0136544Y0130038D01*
X0135959Y0131619D02*
X0137952Y0133612D01*
X0137952Y0134609D01*
X0136457Y0136104D01*
X0133468Y0133114D01*
X0134963Y0131619D01*
X0135959Y0131619D01*
X0139533Y0133028D02*
X0141527Y0131035D01*
X0483897Y0190003D02*
X0484894Y0189007D01*
X0485890Y0189007D01*
X0486475Y0187426D02*
X0488468Y0185432D01*
X0487472Y0186429D02*
X0490461Y0189419D01*
X0488468Y0189419D01*
X0487883Y0191000D02*
X0487883Y0191996D01*
X0486887Y0192993D01*
X0485890Y0192993D01*
X0483897Y0191000D01*
X0483897Y0190003D01*
X0490049Y0184848D02*
X0490548Y0185346D01*
X0491544Y0185346D01*
X0492541Y0184350D01*
X0492541Y0183353D01*
X0492042Y0182855D01*
X0491046Y0182855D01*
X0490049Y0183851D01*
X0490049Y0184848D01*
X0491544Y0185346D02*
X0491544Y0186343D01*
X0492042Y0186841D01*
X0493039Y0186841D01*
X0494035Y0185844D01*
X0494035Y0184848D01*
X0493537Y0184350D01*
X0492541Y0184350D01*
X0501968Y0190614D02*
X0504957Y0193604D01*
X0506452Y0192109D01*
X0506452Y0191112D01*
X0505456Y0190116D01*
X0504459Y0190116D01*
X0502964Y0191611D01*
X0503961Y0190614D02*
X0503961Y0188621D01*
X0505044Y0187538D02*
X0507037Y0185545D01*
X0506040Y0186542D02*
X0509030Y0189531D01*
X0507037Y0189531D01*
X0510611Y0186953D02*
X0511608Y0186953D01*
X0512604Y0185957D01*
X0512604Y0184960D01*
X0508618Y0184960D01*
X0508618Y0183964D01*
X0509615Y0182967D01*
X0510611Y0182967D01*
X0512604Y0184960D01*
X0510611Y0186953D02*
X0508618Y0184960D01*
X0505386Y0178537D02*
X0508375Y0175548D01*
X0507379Y0174551D02*
X0509372Y0176544D01*
X0505386Y0176544D02*
X0505386Y0178537D01*
X0502310Y0175461D02*
X0505299Y0172472D01*
X0504303Y0171475D02*
X0506296Y0173468D01*
X0502310Y0173468D02*
X0502310Y0175461D01*
X0500728Y0172883D02*
X0501725Y0171887D01*
X0501725Y0170890D01*
X0500230Y0169395D01*
X0501227Y0168399D02*
X0498237Y0171389D01*
X0499732Y0172883D01*
X0500728Y0172883D01*
X0501227Y0170392D02*
X0503220Y0170392D01*
X0495461Y0162919D02*
X0492472Y0159929D01*
X0491475Y0160926D02*
X0493468Y0158932D01*
X0494551Y0157850D02*
X0498537Y0157850D01*
X0499035Y0158348D01*
X0499035Y0159344D01*
X0498039Y0160341D01*
X0497042Y0160341D01*
X0495461Y0162919D02*
X0493468Y0162919D01*
X0492883Y0164500D02*
X0492883Y0165496D01*
X0491887Y0166493D01*
X0490890Y0166493D01*
X0488897Y0164500D01*
X0488897Y0163503D01*
X0489894Y0162507D01*
X0490890Y0162507D01*
X0494551Y0157850D02*
X0496544Y0155856D01*
X0516572Y0162975D02*
X0524645Y0171048D01*
X0531048Y0164645D01*
X0522975Y0156572D01*
X0516572Y0162975D01*
X0519078Y0162418D02*
X0520191Y0163532D01*
X0521305Y0162418D01*
X0522697Y0163810D01*
X0522975Y0163532D01*
X0522697Y0163810D02*
X0522418Y0164089D01*
X0521861Y0164645D02*
X0521583Y0164924D01*
X0520191Y0163532D01*
X0519634Y0164089D01*
X0519078Y0162418D02*
X0520748Y0160748D01*
X0520191Y0160748D01*
X0520748Y0161305D01*
X0520748Y0160748D01*
X0522418Y0159078D01*
X0523532Y0160191D01*
X0522418Y0161305D01*
X0523810Y0162697D01*
X0524089Y0162418D01*
X0523810Y0162697D02*
X0523532Y0162975D01*
X0524367Y0163253D02*
X0523253Y0164367D01*
X0522140Y0165480D01*
X0521583Y0164924D02*
X0521305Y0165202D01*
X0523253Y0164367D02*
X0525202Y0166316D01*
X0523532Y0167986D01*
X0525480Y0162140D02*
X0525759Y0161861D01*
X0525480Y0162140D02*
X0523532Y0160191D01*
X0521305Y0160748D02*
X0520748Y0160191D01*
X0536594Y0159122D02*
X0519891Y0142418D01*
X0531026Y0131283D01*
X0547730Y0147986D01*
X0536594Y0159122D01*
X0544695Y0141028D02*
X0545692Y0141028D01*
X0546190Y0140530D01*
X0546190Y0139533D01*
X0545194Y0138537D01*
X0544197Y0138537D01*
X0543699Y0139035D01*
X0543699Y0140032D01*
X0544695Y0141028D01*
X0546190Y0139533D02*
X0547187Y0139533D01*
X0547685Y0139035D01*
X0547685Y0138039D01*
X0546688Y0137042D01*
X0545692Y0137042D01*
X0545194Y0137540D01*
X0545194Y0138537D01*
X0544609Y0135959D02*
X0542616Y0137952D01*
X0541619Y0137952D01*
X0540125Y0136457D01*
X0543114Y0133468D01*
X0544609Y0134963D01*
X0544609Y0135959D01*
X0486225Y0483897D02*
X0487222Y0484894D01*
X0487222Y0485890D01*
X0488803Y0486475D02*
X0488803Y0490461D01*
X0488304Y0490959D01*
X0487308Y0490959D01*
X0486311Y0489963D01*
X0486311Y0488966D01*
X0485228Y0487883D02*
X0484232Y0487883D01*
X0483235Y0486887D01*
X0483235Y0485890D01*
X0485228Y0483897D01*
X0486225Y0483897D01*
X0488803Y0486475D02*
X0490796Y0488468D01*
X0491381Y0490049D02*
X0491380Y0494035D01*
X0493374Y0492042D01*
X0493374Y0491046D01*
X0492377Y0490049D01*
X0491381Y0490049D01*
X0489387Y0492042D01*
X0489387Y0493039D01*
X0490384Y0494035D01*
X0491380Y0494035D01*
X0485614Y0501968D02*
X0482625Y0504957D01*
X0484119Y0506452D01*
X0485116Y0506452D01*
X0486112Y0505456D01*
X0486112Y0504459D01*
X0484618Y0502964D01*
X0485614Y0503961D02*
X0487607Y0503961D01*
X0487195Y0506539D02*
X0489188Y0508532D01*
X0487195Y0509528D02*
X0487195Y0506539D01*
X0487195Y0509528D02*
X0490185Y0506539D01*
X0495968Y0507114D02*
X0498957Y0510104D01*
X0500452Y0508609D01*
X0500452Y0507612D01*
X0499456Y0506616D01*
X0498459Y0506616D01*
X0496964Y0508111D01*
X0497961Y0507114D02*
X0497961Y0505121D01*
X0499542Y0504536D02*
X0499542Y0503540D01*
X0500539Y0502543D01*
X0501535Y0502543D01*
X0502532Y0503540D01*
X0502532Y0504536D01*
X0502033Y0505035D01*
X0500539Y0505533D01*
X0502033Y0507028D01*
X0504027Y0505035D01*
X0513310Y0495461D02*
X0516299Y0492472D01*
X0515303Y0491475D02*
X0517296Y0493468D01*
X0517881Y0495049D02*
X0517880Y0499035D01*
X0519874Y0497042D01*
X0519874Y0496046D01*
X0518877Y0495049D01*
X0517881Y0495049D01*
X0515887Y0497042D01*
X0515887Y0498039D01*
X0516884Y0499035D01*
X0517880Y0499035D01*
X0513310Y0495461D02*
X0513310Y0493468D01*
X0511728Y0492883D02*
X0510732Y0492883D01*
X0509735Y0491887D01*
X0509735Y0490890D01*
X0511728Y0488897D01*
X0512725Y0488897D01*
X0513722Y0489894D01*
X0513722Y0490890D01*
X0513253Y0516572D02*
X0505180Y0524645D01*
X0511583Y0531048D01*
X0519656Y0522975D01*
X0513253Y0516572D01*
X0513810Y0519078D02*
X0512697Y0520191D01*
X0513810Y0521305D01*
X0512418Y0522697D01*
X0512697Y0522975D01*
X0512418Y0522697D02*
X0512140Y0522418D01*
X0511583Y0521861D02*
X0511305Y0521583D01*
X0512697Y0520191D01*
X0512140Y0519634D01*
X0513810Y0519078D02*
X0515480Y0520748D01*
X0515480Y0520191D01*
X0514924Y0520748D01*
X0515480Y0520748D01*
X0517151Y0522418D01*
X0516037Y0523532D01*
X0514924Y0522418D01*
X0513532Y0523810D01*
X0513810Y0524089D01*
X0513532Y0523810D02*
X0513253Y0523532D01*
X0512975Y0524367D02*
X0511861Y0523253D01*
X0510748Y0522140D01*
X0511305Y0521583D02*
X0511026Y0521305D01*
X0511861Y0523253D02*
X0509913Y0525202D01*
X0508242Y0523532D01*
X0514089Y0525480D02*
X0514367Y0525759D01*
X0514089Y0525480D02*
X0516037Y0523532D01*
X0515480Y0521305D02*
X0516037Y0520748D01*
X0517107Y0536594D02*
X0533810Y0519891D01*
X0544946Y0531026D01*
X0528242Y0547730D01*
X0517107Y0536594D01*
X0533975Y0545926D02*
X0535470Y0544431D01*
X0536466Y0544431D01*
X0538459Y0546424D01*
X0538459Y0547420D01*
X0536965Y0548915D01*
X0533975Y0545926D01*
X0537549Y0543348D02*
X0537549Y0542351D01*
X0538546Y0541355D01*
X0539542Y0541355D01*
X0540041Y0541853D01*
X0540041Y0542850D01*
X0538546Y0544344D01*
X0537549Y0543348D01*
X0538546Y0544344D02*
X0540539Y0544344D01*
X0542034Y0543846D01*
X0191106Y0487455D02*
X0188116Y0484466D01*
X0187120Y0485462D02*
X0189113Y0483469D01*
X0189113Y0487455D02*
X0191106Y0487455D01*
X0188528Y0489036D02*
X0188528Y0490033D01*
X0187532Y0491030D01*
X0186535Y0491030D01*
X0185452Y0492112D02*
X0185452Y0493109D01*
X0184456Y0494106D01*
X0183459Y0494106D01*
X0181466Y0492112D01*
X0181466Y0491116D01*
X0182463Y0490119D01*
X0183459Y0490119D01*
X0184044Y0488538D02*
X0188030Y0488538D01*
X0188528Y0489036D01*
X0186037Y0486545D02*
X0184044Y0488538D01*
X0173534Y0486346D02*
X0172039Y0486844D01*
X0170046Y0486844D01*
X0171541Y0485350D01*
X0171541Y0484353D01*
X0171042Y0483855D01*
X0170046Y0483855D01*
X0169049Y0484851D01*
X0169049Y0485848D01*
X0170046Y0486844D01*
X0168963Y0487927D02*
X0167966Y0487927D01*
X0166472Y0489422D01*
X0167468Y0488426D02*
X0167468Y0486432D01*
X0168963Y0487927D02*
X0169959Y0488924D01*
X0169959Y0489920D01*
X0168465Y0491415D01*
X0165475Y0488426D01*
X0169114Y0495968D02*
X0166125Y0498957D01*
X0167619Y0500452D01*
X0168616Y0500452D01*
X0169612Y0499456D01*
X0169612Y0498459D01*
X0168118Y0496964D01*
X0169114Y0497961D02*
X0171107Y0497961D01*
X0172190Y0499044D02*
X0171692Y0499542D01*
X0171692Y0503528D01*
X0171194Y0504027D01*
X0169201Y0502033D01*
X0180539Y0513543D02*
X0181535Y0513543D01*
X0183528Y0515536D01*
X0183528Y0516533D01*
X0182532Y0517530D01*
X0181535Y0517530D01*
X0181037Y0517031D01*
X0181037Y0516035D01*
X0182532Y0514540D01*
X0180539Y0513543D02*
X0179542Y0514540D01*
X0179542Y0515536D01*
X0178459Y0516619D02*
X0177463Y0516619D01*
X0176466Y0517616D01*
X0176466Y0518612D01*
X0178459Y0520606D01*
X0179456Y0520606D01*
X0180452Y0519609D01*
X0180452Y0518612D01*
X0159656Y0513253D02*
X0151583Y0505180D01*
X0145180Y0511583D01*
X0153253Y0519656D01*
X0159656Y0513253D01*
X0157151Y0513810D02*
X0156037Y0512697D01*
X0154924Y0513810D01*
X0153532Y0512418D01*
X0153253Y0512697D01*
X0153532Y0512418D02*
X0153810Y0512140D01*
X0154367Y0511583D02*
X0154645Y0511305D01*
X0156037Y0512697D01*
X0156594Y0512140D01*
X0157151Y0513810D02*
X0155480Y0515480D01*
X0156037Y0515480D01*
X0155480Y0514924D01*
X0155480Y0515480D01*
X0153810Y0517151D01*
X0152697Y0516037D01*
X0153810Y0514924D01*
X0152418Y0513532D01*
X0152140Y0513810D01*
X0152418Y0513532D02*
X0152697Y0513253D01*
X0151861Y0512975D02*
X0152975Y0511861D01*
X0154089Y0510748D01*
X0154645Y0511305D02*
X0154924Y0511026D01*
X0152975Y0511861D02*
X0151026Y0509913D01*
X0152697Y0508242D01*
X0150748Y0514089D02*
X0150469Y0514367D01*
X0150748Y0514089D02*
X0152697Y0516037D01*
X0154924Y0515480D02*
X0155480Y0516037D01*
X0139634Y0517107D02*
X0156338Y0533810D01*
X0145202Y0544946D01*
X0128499Y0528242D01*
X0139634Y0517107D01*
X0130303Y0533975D02*
X0131798Y0535470D01*
X0131798Y0536466D01*
X0129804Y0538459D01*
X0128808Y0538459D01*
X0127313Y0536965D01*
X0130303Y0533975D01*
X0132881Y0537549D02*
X0133877Y0537549D01*
X0134874Y0538546D01*
X0134874Y0539542D01*
X0133877Y0540539D01*
X0132880Y0540539D01*
X0132382Y0540041D01*
X0131884Y0538546D01*
X0130389Y0540041D01*
X0132382Y0542034D01*
D13*
X0148726Y0531796D02*
X0150897Y0529626D01*
X0151842Y0528397D02*
X0150756Y0527311D01*
X0150756Y0526226D01*
X0149671Y0525141D02*
X0148586Y0525141D01*
X0147501Y0524056D01*
X0147501Y0522971D01*
X0148044Y0522428D01*
X0149129Y0522428D01*
X0150214Y0523513D01*
X0151299Y0523513D01*
X0151842Y0522971D01*
X0151842Y0521886D01*
X0150756Y0520800D01*
X0149671Y0520800D01*
X0148586Y0519715D02*
X0145873Y0522428D01*
X0143703Y0520258D02*
X0146416Y0517545D01*
X0147501Y0517545D01*
X0148586Y0518630D01*
X0148586Y0519715D01*
X0151842Y0520800D02*
X0147501Y0525141D01*
X0148726Y0529626D02*
X0150897Y0531796D01*
X0151842Y0528397D02*
X0152927Y0528397D01*
X0153469Y0527854D01*
X0153469Y0523513D01*
X0155640Y0525684D01*
X0142545Y0523444D02*
X0140375Y0521274D01*
X0139399Y0514024D02*
X0136686Y0511312D01*
X0136686Y0510226D01*
X0137771Y0509141D01*
X0138856Y0509141D01*
X0141569Y0511854D01*
X0142112Y0510226D02*
X0141569Y0509684D01*
X0141569Y0508599D01*
X0142655Y0507514D01*
X0142655Y0506428D01*
X0142112Y0505886D01*
X0141027Y0505886D01*
X0139942Y0506971D01*
X0139942Y0508056D01*
X0139942Y0505886D02*
X0144282Y0510226D01*
X0144282Y0509141D02*
X0144282Y0508056D01*
X0144282Y0509141D02*
X0143197Y0510226D01*
X0142112Y0510226D01*
X0144825Y0506428D02*
X0146995Y0506428D01*
X0143740Y0503173D01*
X0142655Y0504258D02*
X0144825Y0502088D01*
X0146453Y0501545D02*
X0150793Y0501545D01*
X0148623Y0499375D01*
X0147538Y0499375D01*
X0146453Y0500460D01*
X0146453Y0501545D01*
X0148623Y0503715D01*
X0149708Y0503715D01*
X0150793Y0502630D01*
X0150793Y0501545D01*
X0326239Y0452804D02*
X0330843Y0452804D01*
X0330843Y0451270D02*
X0330843Y0454339D01*
X0327774Y0451270D02*
X0326239Y0452804D01*
X0327007Y0449735D02*
X0326239Y0448968D01*
X0326239Y0447433D01*
X0327007Y0446666D01*
X0327774Y0446666D01*
X0328541Y0447433D01*
X0328541Y0448968D01*
X0329309Y0449735D01*
X0330076Y0449735D01*
X0330843Y0448968D01*
X0330843Y0447433D01*
X0330076Y0446666D01*
X0330076Y0445131D02*
X0326239Y0445131D01*
X0326239Y0442062D02*
X0330076Y0442062D01*
X0330843Y0442829D01*
X0330843Y0444364D01*
X0330076Y0445131D01*
X0331611Y0448200D02*
X0325472Y0448200D01*
X0344669Y0429219D02*
X0349272Y0429219D01*
X0349272Y0427684D02*
X0349272Y0430754D01*
X0346203Y0427684D02*
X0344669Y0429219D01*
X0345436Y0426150D02*
X0344669Y0425382D01*
X0344669Y0423080D01*
X0349272Y0423080D01*
X0349272Y0425382D01*
X0348505Y0426150D01*
X0347738Y0426150D01*
X0346970Y0425382D01*
X0346970Y0423080D01*
X0346970Y0425382D02*
X0346203Y0426150D01*
X0345436Y0426150D01*
X0360974Y0394820D02*
X0365578Y0394820D01*
X0365578Y0393286D02*
X0365578Y0396355D01*
X0362509Y0393286D02*
X0360974Y0394820D01*
X0360974Y0391751D02*
X0361741Y0391751D01*
X0363276Y0390217D01*
X0365578Y0390217D01*
X0363276Y0390217D02*
X0361741Y0388682D01*
X0360974Y0388682D01*
X0350770Y0348472D02*
X0353840Y0345403D01*
X0354607Y0345403D01*
X0353840Y0343868D02*
X0353072Y0343868D01*
X0352305Y0343101D01*
X0352305Y0341567D01*
X0351538Y0340799D01*
X0350770Y0340799D01*
X0350003Y0341567D01*
X0350003Y0343101D01*
X0350770Y0343868D01*
X0350003Y0345403D02*
X0350003Y0348472D01*
X0350770Y0348472D01*
X0353840Y0343868D02*
X0354607Y0343101D01*
X0354607Y0341567D01*
X0353840Y0340799D01*
X0353840Y0339265D02*
X0350003Y0339265D01*
X0350003Y0336195D02*
X0353840Y0336195D01*
X0354607Y0336963D01*
X0354607Y0338497D01*
X0353840Y0339265D01*
X0355374Y0342334D02*
X0349236Y0342334D01*
X0329078Y0274996D02*
X0328310Y0274996D01*
X0329078Y0274996D02*
X0330612Y0273461D01*
X0332914Y0273461D01*
X0330612Y0273461D02*
X0329078Y0271927D01*
X0328310Y0271927D01*
X0333681Y0270392D02*
X0333681Y0267323D01*
X0332147Y0265788D02*
X0329078Y0265788D01*
X0328310Y0265021D01*
X0328310Y0262719D01*
X0332914Y0262719D01*
X0332914Y0265021D01*
X0332147Y0265788D01*
X0332914Y0261184D02*
X0332914Y0258115D01*
X0328310Y0258115D01*
X0328310Y0261184D01*
X0330612Y0259650D02*
X0330612Y0258115D01*
X0332914Y0256580D02*
X0332914Y0253511D01*
X0328310Y0253511D01*
X0317933Y0255713D02*
X0311795Y0255713D01*
X0312562Y0256480D02*
X0313330Y0257247D01*
X0312562Y0256480D02*
X0312562Y0254945D01*
X0313330Y0254178D01*
X0314097Y0254178D01*
X0314864Y0254945D01*
X0314864Y0256480D01*
X0315632Y0257247D01*
X0316399Y0257247D01*
X0317166Y0256480D01*
X0317166Y0254945D01*
X0316399Y0254178D01*
X0316399Y0252643D02*
X0312562Y0252643D01*
X0312562Y0249574D02*
X0316399Y0249574D01*
X0317166Y0250341D01*
X0317166Y0251876D01*
X0316399Y0252643D01*
X0317166Y0258782D02*
X0317166Y0261851D01*
X0317166Y0260316D02*
X0312562Y0260316D01*
X0314097Y0258782D01*
X0314864Y0263386D02*
X0314864Y0266455D01*
X0312562Y0265688D02*
X0314864Y0263386D01*
X0317166Y0265688D02*
X0312562Y0265688D01*
X0344058Y0265688D02*
X0344826Y0266455D01*
X0345593Y0266455D01*
X0346360Y0265688D01*
X0347128Y0266455D01*
X0347895Y0266455D01*
X0348662Y0265688D01*
X0348662Y0264153D01*
X0347895Y0263386D01*
X0348662Y0261851D02*
X0348662Y0258782D01*
X0348662Y0260316D02*
X0344058Y0260316D01*
X0345593Y0258782D01*
X0344826Y0257247D02*
X0344058Y0256480D01*
X0344058Y0254945D01*
X0344826Y0254178D01*
X0345593Y0254178D01*
X0346360Y0254945D01*
X0346360Y0256480D01*
X0347128Y0257247D01*
X0347895Y0257247D01*
X0348662Y0256480D01*
X0348662Y0254945D01*
X0347895Y0254178D01*
X0347895Y0252643D02*
X0344058Y0252643D01*
X0344058Y0249574D02*
X0347895Y0249574D01*
X0348662Y0250341D01*
X0348662Y0251876D01*
X0347895Y0252643D01*
X0349430Y0255713D02*
X0343291Y0255713D01*
X0344826Y0263386D02*
X0344058Y0264153D01*
X0344058Y0265688D01*
X0346360Y0265688D02*
X0346360Y0264920D01*
X0240949Y0277900D02*
X0240182Y0277133D01*
X0238647Y0277133D01*
X0237880Y0277900D01*
X0237880Y0279435D01*
X0240182Y0279435D01*
X0240949Y0278668D01*
X0240949Y0277900D01*
X0239415Y0280970D02*
X0237880Y0279435D01*
X0236345Y0278668D02*
X0235578Y0279435D01*
X0234043Y0279435D01*
X0233276Y0280202D01*
X0233276Y0280970D01*
X0234043Y0281737D01*
X0235578Y0281737D01*
X0236345Y0280970D01*
X0234811Y0282504D02*
X0234811Y0276366D01*
X0235578Y0277133D02*
X0236345Y0277900D01*
X0236345Y0278668D01*
X0235578Y0277133D02*
X0234043Y0277133D01*
X0233276Y0277900D01*
X0231741Y0277900D02*
X0231741Y0281737D01*
X0228672Y0281737D02*
X0228672Y0277900D01*
X0229439Y0277133D01*
X0230974Y0277133D01*
X0231741Y0277900D01*
X0227713Y0282133D02*
X0226178Y0282133D01*
X0225411Y0282900D01*
X0225411Y0283668D01*
X0226178Y0284435D01*
X0227713Y0284435D01*
X0228480Y0283668D01*
X0228480Y0282900D01*
X0227713Y0282133D01*
X0227713Y0284435D02*
X0228480Y0285202D01*
X0228480Y0285970D01*
X0227713Y0286737D01*
X0226178Y0286737D01*
X0225411Y0285970D01*
X0225411Y0285202D01*
X0226178Y0284435D01*
X0223876Y0283668D02*
X0223109Y0284435D01*
X0221574Y0284435D01*
X0220807Y0285202D01*
X0220807Y0285970D01*
X0221574Y0286737D01*
X0223109Y0286737D01*
X0223876Y0285970D01*
X0222342Y0287504D02*
X0222342Y0281366D01*
X0223109Y0282133D02*
X0223876Y0282900D01*
X0223876Y0283668D01*
X0223109Y0282133D02*
X0221574Y0282133D01*
X0220807Y0282900D01*
X0219272Y0282900D02*
X0219272Y0286737D01*
X0216203Y0286737D02*
X0216203Y0282900D01*
X0216970Y0282133D01*
X0218505Y0282133D01*
X0219272Y0282900D01*
X0239415Y0280970D02*
X0240949Y0281737D01*
X0149745Y0156445D02*
X0147032Y0153732D01*
X0147032Y0152647D01*
X0148117Y0151562D01*
X0149202Y0151562D01*
X0151915Y0154274D01*
X0152458Y0152647D02*
X0153543Y0152647D01*
X0154628Y0151562D01*
X0154628Y0150476D01*
X0153001Y0149934D02*
X0151915Y0151019D01*
X0151915Y0152104D01*
X0152458Y0152647D01*
X0154628Y0152647D02*
X0150288Y0148306D01*
X0151373Y0148306D02*
X0152458Y0148306D01*
X0153001Y0148849D01*
X0153001Y0149934D01*
X0154628Y0148306D02*
X0156799Y0146136D01*
X0157884Y0148306D02*
X0154628Y0148306D01*
X0151373Y0148306D02*
X0150288Y0149391D01*
X0150288Y0150476D01*
X0145803Y0149531D02*
X0143633Y0151702D01*
X0145803Y0151702D02*
X0143633Y0149531D01*
X0151984Y0143350D02*
X0154155Y0141180D01*
X0154628Y0145051D02*
X0157884Y0148306D01*
X0165459Y0142655D02*
X0168172Y0139942D01*
X0169257Y0139942D01*
X0170343Y0141027D01*
X0170343Y0142112D01*
X0167630Y0144825D01*
X0169257Y0145367D02*
X0169257Y0146453D01*
X0170343Y0147538D01*
X0171428Y0147538D01*
X0172513Y0148623D02*
X0173055Y0148080D01*
X0174141Y0148080D01*
X0175768Y0149708D01*
X0174683Y0150793D02*
X0173598Y0150793D01*
X0172513Y0149708D01*
X0172513Y0148623D01*
X0173055Y0145910D02*
X0171970Y0145910D01*
X0170885Y0144825D01*
X0169800Y0144825D01*
X0169257Y0145367D01*
X0169257Y0147538D02*
X0173598Y0143197D01*
X0172513Y0143197D02*
X0173598Y0144282D01*
X0173598Y0145367D01*
X0173055Y0145910D01*
X0174683Y0146453D02*
X0175768Y0146453D01*
X0176853Y0147538D01*
X0176853Y0148623D01*
X0174683Y0150793D01*
X0172513Y0143197D02*
X0171428Y0143197D01*
X0519784Y0149745D02*
X0522496Y0147032D01*
X0523582Y0147032D01*
X0524667Y0148117D01*
X0524667Y0149202D01*
X0521954Y0151915D01*
X0523582Y0152458D02*
X0523582Y0153543D01*
X0524667Y0154628D01*
X0525752Y0154628D01*
X0526294Y0153001D02*
X0525209Y0151915D01*
X0524124Y0151915D01*
X0523582Y0152458D01*
X0523582Y0154628D02*
X0527922Y0150288D01*
X0527922Y0151373D02*
X0527922Y0152458D01*
X0527380Y0153001D01*
X0526294Y0153001D01*
X0527922Y0154628D02*
X0526294Y0156256D01*
X0528465Y0158426D01*
X0529007Y0156799D02*
X0530093Y0156799D01*
X0531178Y0155713D01*
X0531178Y0154628D01*
X0530093Y0153543D01*
X0529007Y0153543D01*
X0527922Y0154628D02*
X0528465Y0156256D01*
X0529007Y0156799D01*
X0527922Y0151373D02*
X0526837Y0150288D01*
X0525752Y0150288D01*
X0526697Y0145803D02*
X0524527Y0143633D01*
X0524527Y0145803D02*
X0526697Y0143633D01*
X0532878Y0151984D02*
X0535049Y0154155D01*
X0536030Y0163009D02*
X0533859Y0165179D01*
X0532774Y0166264D02*
X0530604Y0168435D01*
X0531689Y0167350D02*
X0534945Y0170605D01*
X0532774Y0170605D01*
X0532232Y0172233D02*
X0532232Y0173318D01*
X0531146Y0174403D01*
X0530061Y0174403D01*
X0529519Y0173861D01*
X0529519Y0172775D01*
X0530604Y0171690D01*
X0530604Y0170605D01*
X0530061Y0170062D01*
X0528976Y0170062D01*
X0527891Y0171148D01*
X0527891Y0172233D01*
X0526806Y0173318D02*
X0529519Y0176031D01*
X0527348Y0178201D02*
X0524636Y0175488D01*
X0524636Y0174403D01*
X0525721Y0173318D01*
X0526806Y0173318D01*
X0527891Y0170062D02*
X0532232Y0174403D01*
X0536030Y0167350D02*
X0538200Y0167350D01*
X0534945Y0164094D01*
X0526226Y0521131D02*
X0525141Y0521131D01*
X0524056Y0522216D01*
X0524056Y0523302D01*
X0522971Y0524387D02*
X0523513Y0524929D01*
X0523513Y0526014D01*
X0522428Y0527100D01*
X0522428Y0528185D01*
X0522971Y0528727D01*
X0524056Y0528727D01*
X0525141Y0527642D01*
X0525141Y0526557D01*
X0526226Y0525472D02*
X0527311Y0525472D01*
X0528397Y0524387D01*
X0528397Y0523302D01*
X0527854Y0522759D01*
X0526769Y0522759D01*
X0526769Y0521674D01*
X0526226Y0521131D01*
X0526769Y0522759D02*
X0526226Y0523302D01*
X0522971Y0524387D02*
X0521886Y0524387D01*
X0520800Y0525472D01*
X0520800Y0526557D01*
X0519715Y0527642D02*
X0522428Y0530355D01*
X0520258Y0532525D02*
X0517545Y0529812D01*
X0517545Y0528727D01*
X0518630Y0527642D01*
X0519715Y0527642D01*
X0520800Y0524387D02*
X0525141Y0528727D01*
X0529626Y0527502D02*
X0531796Y0525332D01*
X0531796Y0527502D02*
X0529626Y0525332D01*
X0523444Y0533683D02*
X0521274Y0535854D01*
X0513219Y0536030D02*
X0511049Y0533859D01*
X0511049Y0538200D01*
X0510506Y0538743D01*
X0509421Y0538743D01*
X0508336Y0537657D01*
X0508336Y0536572D01*
X0505623Y0534945D02*
X0505623Y0532774D01*
X0503996Y0532232D02*
X0502910Y0532232D01*
X0501825Y0531146D01*
X0501825Y0530061D01*
X0502368Y0529519D01*
X0503453Y0529519D01*
X0504538Y0530604D01*
X0505623Y0530604D01*
X0506166Y0530061D01*
X0506166Y0528976D01*
X0505081Y0527891D01*
X0503996Y0527891D01*
X0502910Y0526806D02*
X0500197Y0529519D01*
X0498027Y0527348D02*
X0500740Y0524636D01*
X0501825Y0524636D01*
X0502910Y0525721D01*
X0502910Y0526806D01*
X0506166Y0527891D02*
X0501825Y0532232D01*
X0505623Y0534945D02*
X0508879Y0531689D01*
X0507794Y0530604D02*
X0509964Y0532774D01*
D14*
X0524197Y0519503D02*
X0537003Y0506697D01*
X0514356Y0484050D01*
X0501550Y0496856D02*
X0524197Y0519503D01*
X0500820Y0506752D02*
X0495252Y0512320D01*
X0490408Y0507476D02*
X0495976Y0501908D01*
X0491920Y0500876D02*
X0486353Y0495308D01*
X0485252Y0496408D02*
X0490820Y0501976D01*
X0485976Y0506820D02*
X0480408Y0501252D01*
X0491308Y0490353D02*
X0496876Y0495920D01*
X0536850Y0544367D02*
X0547485Y0533732D01*
X0552496Y0538743D01*
X0541861Y0549378D01*
X0443114Y0443114D02*
X0443114Y0436448D01*
X0439781Y0433114D02*
X0423114Y0433114D01*
X0423114Y0443114D01*
X0443114Y0443114D01*
X0416854Y0443902D02*
X0408980Y0443902D01*
X0408980Y0437051D02*
X0416854Y0437051D01*
X0401106Y0437051D02*
X0393232Y0437051D01*
X0393232Y0443902D02*
X0401106Y0443902D01*
X0378144Y0414341D02*
X0370270Y0414341D01*
X0370270Y0407333D02*
X0378144Y0407333D01*
X0383665Y0404854D02*
X0383665Y0396980D01*
X0383655Y0391296D02*
X0383655Y0383422D01*
X0390663Y0383422D02*
X0390663Y0391296D01*
X0390673Y0396980D02*
X0390673Y0404854D01*
X0363705Y0351461D02*
X0355831Y0351461D01*
X0355831Y0344453D02*
X0363705Y0344453D01*
X0363705Y0341618D02*
X0355831Y0341618D01*
X0355831Y0334610D02*
X0363705Y0334610D01*
X0363705Y0331776D02*
X0355831Y0331776D01*
X0355831Y0324768D02*
X0363705Y0324768D01*
X0363162Y0293196D02*
X0363162Y0286530D01*
X0359829Y0283196D02*
X0313162Y0283196D01*
X0313162Y0293196D01*
X0314925Y0312524D02*
X0314925Y0320398D01*
X0321933Y0320398D02*
X0321933Y0312524D01*
X0322788Y0312577D02*
X0322788Y0320451D01*
X0329796Y0320451D02*
X0329796Y0312577D01*
X0315272Y0343392D02*
X0315272Y0351266D01*
X0308422Y0351266D02*
X0308422Y0343392D01*
X0283096Y0382680D02*
X0275222Y0382680D01*
X0275222Y0389688D02*
X0283096Y0389688D01*
X0283096Y0390491D02*
X0275222Y0390491D01*
X0275222Y0397499D02*
X0283096Y0397499D01*
X0280437Y0407917D02*
X0280437Y0417917D01*
X0253770Y0417917D01*
X0250437Y0414584D02*
X0250437Y0407917D01*
X0280437Y0407917D01*
X0296132Y0408488D02*
X0304006Y0408488D01*
X0304006Y0401480D02*
X0296132Y0401480D01*
X0296055Y0399717D02*
X0303929Y0399717D01*
X0303929Y0392867D02*
X0296055Y0392867D01*
X0320929Y0419256D02*
X0328803Y0419256D01*
X0328803Y0426264D02*
X0320929Y0426264D01*
X0319929Y0428130D02*
X0327803Y0428130D01*
X0327803Y0435138D02*
X0319929Y0435138D01*
X0254925Y0401106D02*
X0254925Y0393232D01*
X0248075Y0393232D02*
X0248075Y0401106D01*
X0239781Y0433114D02*
X0223114Y0433114D01*
X0223114Y0443114D01*
X0243114Y0443114D01*
X0243114Y0436448D01*
X0185876Y0491308D02*
X0180308Y0496876D01*
X0179372Y0501550D02*
X0156726Y0524197D01*
X0169531Y0537003D01*
X0192178Y0514356D01*
X0174320Y0495976D02*
X0168752Y0490408D01*
X0169408Y0485976D02*
X0174976Y0480408D01*
X0179820Y0485252D02*
X0174252Y0490820D01*
X0175353Y0491920D02*
X0180920Y0486353D01*
X0169476Y0500820D02*
X0163908Y0495252D01*
X0131861Y0536850D02*
X0142496Y0547485D01*
X0137485Y0552496D01*
X0126850Y0541861D01*
X0239677Y0315976D02*
X0239677Y0308102D01*
X0246685Y0308102D02*
X0246685Y0315976D01*
X0253770Y0311618D02*
X0270437Y0311618D01*
X0270437Y0301618D01*
X0250437Y0301618D01*
X0250437Y0308285D01*
X0243626Y0278626D02*
X0235752Y0278626D01*
X0235752Y0271618D02*
X0243626Y0271618D01*
X0275634Y0275122D02*
X0275634Y0282996D01*
X0282484Y0282996D02*
X0282484Y0275122D01*
X0253114Y0243114D02*
X0236448Y0243114D01*
X0233114Y0239781D02*
X0233114Y0233114D01*
X0253114Y0233114D01*
X0253114Y0243114D01*
X0189876Y0180920D02*
X0184308Y0175353D01*
X0185408Y0174252D02*
X0190976Y0179820D01*
X0195820Y0174976D02*
X0190252Y0169408D01*
X0185820Y0168752D02*
X0180252Y0174320D01*
X0179353Y0180308D02*
X0184920Y0185876D01*
X0174678Y0179372D02*
X0152031Y0156726D01*
X0139226Y0169531D01*
X0161872Y0192178D01*
X0175408Y0169476D02*
X0180976Y0163908D01*
X0139378Y0131861D02*
X0128743Y0142496D01*
X0123732Y0137485D01*
X0134367Y0126850D01*
X0322878Y0239689D02*
X0322878Y0247563D01*
X0329728Y0247563D02*
X0329728Y0239689D01*
X0334689Y0243626D02*
X0334689Y0251500D01*
X0341539Y0251500D02*
X0341539Y0243626D01*
X0346500Y0239689D02*
X0346500Y0247563D01*
X0353350Y0247563D02*
X0353350Y0239689D01*
X0393744Y0275122D02*
X0393744Y0282996D01*
X0400594Y0282996D02*
X0400594Y0275122D01*
X0433114Y0239781D02*
X0433114Y0233114D01*
X0453114Y0233114D01*
X0453114Y0243114D01*
X0436448Y0243114D01*
X0490353Y0184920D02*
X0495920Y0179353D01*
X0496856Y0174678D02*
X0519503Y0152031D01*
X0506697Y0139226D01*
X0484050Y0161872D01*
X0501908Y0180252D02*
X0507476Y0185820D01*
X0506820Y0190252D02*
X0501252Y0195820D01*
X0496408Y0190976D02*
X0501976Y0185408D01*
X0500876Y0184308D02*
X0495308Y0189876D01*
X0506752Y0175408D02*
X0512320Y0180976D01*
X0544367Y0139378D02*
X0533732Y0128743D01*
X0538743Y0123732D01*
X0549378Y0134367D01*
X0459551Y0388378D02*
X0459551Y0396252D01*
X0452543Y0396252D02*
X0452543Y0388378D01*
D15*
X0531097Y0513991D02*
X0531099Y0514030D01*
X0531105Y0514069D01*
X0531115Y0514107D01*
X0531128Y0514144D01*
X0531145Y0514179D01*
X0531165Y0514213D01*
X0531189Y0514244D01*
X0531216Y0514273D01*
X0531245Y0514299D01*
X0531277Y0514322D01*
X0531311Y0514342D01*
X0531347Y0514358D01*
X0531384Y0514370D01*
X0531423Y0514379D01*
X0531462Y0514384D01*
X0531501Y0514385D01*
X0531540Y0514382D01*
X0531579Y0514375D01*
X0531616Y0514364D01*
X0531653Y0514350D01*
X0531688Y0514332D01*
X0531721Y0514311D01*
X0531752Y0514286D01*
X0531780Y0514259D01*
X0531805Y0514229D01*
X0531827Y0514196D01*
X0531846Y0514162D01*
X0531861Y0514126D01*
X0531873Y0514088D01*
X0531881Y0514050D01*
X0531885Y0514011D01*
X0531885Y0513971D01*
X0531881Y0513932D01*
X0531873Y0513894D01*
X0531861Y0513856D01*
X0531846Y0513820D01*
X0531827Y0513786D01*
X0531805Y0513753D01*
X0531780Y0513723D01*
X0531752Y0513696D01*
X0531721Y0513671D01*
X0531688Y0513650D01*
X0531653Y0513632D01*
X0531616Y0513618D01*
X0531579Y0513607D01*
X0531540Y0513600D01*
X0531501Y0513597D01*
X0531462Y0513598D01*
X0531423Y0513603D01*
X0531384Y0513612D01*
X0531347Y0513624D01*
X0531311Y0513640D01*
X0531277Y0513660D01*
X0531245Y0513683D01*
X0531216Y0513709D01*
X0531189Y0513738D01*
X0531165Y0513769D01*
X0531145Y0513803D01*
X0531128Y0513838D01*
X0531115Y0513875D01*
X0531105Y0513913D01*
X0531099Y0513952D01*
X0531097Y0513991D01*
X0550487Y0535347D02*
X0550489Y0535386D01*
X0550495Y0535425D01*
X0550505Y0535463D01*
X0550518Y0535500D01*
X0550535Y0535535D01*
X0550555Y0535569D01*
X0550579Y0535600D01*
X0550606Y0535629D01*
X0550635Y0535655D01*
X0550667Y0535678D01*
X0550701Y0535698D01*
X0550737Y0535714D01*
X0550774Y0535726D01*
X0550813Y0535735D01*
X0550852Y0535740D01*
X0550891Y0535741D01*
X0550930Y0535738D01*
X0550969Y0535731D01*
X0551006Y0535720D01*
X0551043Y0535706D01*
X0551078Y0535688D01*
X0551111Y0535667D01*
X0551142Y0535642D01*
X0551170Y0535615D01*
X0551195Y0535585D01*
X0551217Y0535552D01*
X0551236Y0535518D01*
X0551251Y0535482D01*
X0551263Y0535444D01*
X0551271Y0535406D01*
X0551275Y0535367D01*
X0551275Y0535327D01*
X0551271Y0535288D01*
X0551263Y0535250D01*
X0551251Y0535212D01*
X0551236Y0535176D01*
X0551217Y0535142D01*
X0551195Y0535109D01*
X0551170Y0535079D01*
X0551142Y0535052D01*
X0551111Y0535027D01*
X0551078Y0535006D01*
X0551043Y0534988D01*
X0551006Y0534974D01*
X0550969Y0534963D01*
X0550930Y0534956D01*
X0550891Y0534953D01*
X0550852Y0534954D01*
X0550813Y0534959D01*
X0550774Y0534968D01*
X0550737Y0534980D01*
X0550701Y0534996D01*
X0550667Y0535016D01*
X0550635Y0535039D01*
X0550606Y0535065D01*
X0550579Y0535094D01*
X0550555Y0535125D01*
X0550535Y0535159D01*
X0550518Y0535194D01*
X0550505Y0535231D01*
X0550495Y0535269D01*
X0550489Y0535308D01*
X0550487Y0535347D01*
X0161844Y0531491D02*
X0161846Y0531530D01*
X0161852Y0531569D01*
X0161862Y0531607D01*
X0161875Y0531644D01*
X0161892Y0531679D01*
X0161912Y0531713D01*
X0161936Y0531744D01*
X0161963Y0531773D01*
X0161992Y0531799D01*
X0162024Y0531822D01*
X0162058Y0531842D01*
X0162094Y0531858D01*
X0162131Y0531870D01*
X0162170Y0531879D01*
X0162209Y0531884D01*
X0162248Y0531885D01*
X0162287Y0531882D01*
X0162326Y0531875D01*
X0162363Y0531864D01*
X0162400Y0531850D01*
X0162435Y0531832D01*
X0162468Y0531811D01*
X0162499Y0531786D01*
X0162527Y0531759D01*
X0162552Y0531729D01*
X0162574Y0531696D01*
X0162593Y0531662D01*
X0162608Y0531626D01*
X0162620Y0531588D01*
X0162628Y0531550D01*
X0162632Y0531511D01*
X0162632Y0531471D01*
X0162628Y0531432D01*
X0162620Y0531394D01*
X0162608Y0531356D01*
X0162593Y0531320D01*
X0162574Y0531286D01*
X0162552Y0531253D01*
X0162527Y0531223D01*
X0162499Y0531196D01*
X0162468Y0531171D01*
X0162435Y0531150D01*
X0162400Y0531132D01*
X0162363Y0531118D01*
X0162326Y0531107D01*
X0162287Y0531100D01*
X0162248Y0531097D01*
X0162209Y0531098D01*
X0162170Y0531103D01*
X0162131Y0531112D01*
X0162094Y0531124D01*
X0162058Y0531140D01*
X0162024Y0531160D01*
X0161992Y0531183D01*
X0161963Y0531209D01*
X0161936Y0531238D01*
X0161912Y0531269D01*
X0161892Y0531303D01*
X0161875Y0531338D01*
X0161862Y0531375D01*
X0161852Y0531413D01*
X0161846Y0531452D01*
X0161844Y0531491D01*
X0140487Y0550881D02*
X0140489Y0550920D01*
X0140495Y0550959D01*
X0140505Y0550997D01*
X0140518Y0551034D01*
X0140535Y0551069D01*
X0140555Y0551103D01*
X0140579Y0551134D01*
X0140606Y0551163D01*
X0140635Y0551189D01*
X0140667Y0551212D01*
X0140701Y0551232D01*
X0140737Y0551248D01*
X0140774Y0551260D01*
X0140813Y0551269D01*
X0140852Y0551274D01*
X0140891Y0551275D01*
X0140930Y0551272D01*
X0140969Y0551265D01*
X0141006Y0551254D01*
X0141043Y0551240D01*
X0141078Y0551222D01*
X0141111Y0551201D01*
X0141142Y0551176D01*
X0141170Y0551149D01*
X0141195Y0551119D01*
X0141217Y0551086D01*
X0141236Y0551052D01*
X0141251Y0551016D01*
X0141263Y0550978D01*
X0141271Y0550940D01*
X0141275Y0550901D01*
X0141275Y0550861D01*
X0141271Y0550822D01*
X0141263Y0550784D01*
X0141251Y0550746D01*
X0141236Y0550710D01*
X0141217Y0550676D01*
X0141195Y0550643D01*
X0141170Y0550613D01*
X0141142Y0550586D01*
X0141111Y0550561D01*
X0141078Y0550540D01*
X0141043Y0550522D01*
X0141006Y0550508D01*
X0140969Y0550497D01*
X0140930Y0550490D01*
X0140891Y0550487D01*
X0140852Y0550488D01*
X0140813Y0550493D01*
X0140774Y0550502D01*
X0140737Y0550514D01*
X0140701Y0550530D01*
X0140667Y0550550D01*
X0140635Y0550573D01*
X0140606Y0550599D01*
X0140579Y0550628D01*
X0140555Y0550659D01*
X0140535Y0550693D01*
X0140518Y0550728D01*
X0140505Y0550765D01*
X0140495Y0550803D01*
X0140489Y0550842D01*
X0140487Y0550881D01*
X0144344Y0162238D02*
X0144346Y0162277D01*
X0144352Y0162316D01*
X0144362Y0162354D01*
X0144375Y0162391D01*
X0144392Y0162426D01*
X0144412Y0162460D01*
X0144436Y0162491D01*
X0144463Y0162520D01*
X0144492Y0162546D01*
X0144524Y0162569D01*
X0144558Y0162589D01*
X0144594Y0162605D01*
X0144631Y0162617D01*
X0144670Y0162626D01*
X0144709Y0162631D01*
X0144748Y0162632D01*
X0144787Y0162629D01*
X0144826Y0162622D01*
X0144863Y0162611D01*
X0144900Y0162597D01*
X0144935Y0162579D01*
X0144968Y0162558D01*
X0144999Y0162533D01*
X0145027Y0162506D01*
X0145052Y0162476D01*
X0145074Y0162443D01*
X0145093Y0162409D01*
X0145108Y0162373D01*
X0145120Y0162335D01*
X0145128Y0162297D01*
X0145132Y0162258D01*
X0145132Y0162218D01*
X0145128Y0162179D01*
X0145120Y0162141D01*
X0145108Y0162103D01*
X0145093Y0162067D01*
X0145074Y0162033D01*
X0145052Y0162000D01*
X0145027Y0161970D01*
X0144999Y0161943D01*
X0144968Y0161918D01*
X0144935Y0161897D01*
X0144900Y0161879D01*
X0144863Y0161865D01*
X0144826Y0161854D01*
X0144787Y0161847D01*
X0144748Y0161844D01*
X0144709Y0161845D01*
X0144670Y0161850D01*
X0144631Y0161859D01*
X0144594Y0161871D01*
X0144558Y0161887D01*
X0144524Y0161907D01*
X0144492Y0161930D01*
X0144463Y0161956D01*
X0144436Y0161985D01*
X0144412Y0162016D01*
X0144392Y0162050D01*
X0144375Y0162085D01*
X0144362Y0162122D01*
X0144352Y0162160D01*
X0144346Y0162199D01*
X0144344Y0162238D01*
X0124953Y0140881D02*
X0124955Y0140920D01*
X0124961Y0140959D01*
X0124971Y0140997D01*
X0124984Y0141034D01*
X0125001Y0141069D01*
X0125021Y0141103D01*
X0125045Y0141134D01*
X0125072Y0141163D01*
X0125101Y0141189D01*
X0125133Y0141212D01*
X0125167Y0141232D01*
X0125203Y0141248D01*
X0125240Y0141260D01*
X0125279Y0141269D01*
X0125318Y0141274D01*
X0125357Y0141275D01*
X0125396Y0141272D01*
X0125435Y0141265D01*
X0125472Y0141254D01*
X0125509Y0141240D01*
X0125544Y0141222D01*
X0125577Y0141201D01*
X0125608Y0141176D01*
X0125636Y0141149D01*
X0125661Y0141119D01*
X0125683Y0141086D01*
X0125702Y0141052D01*
X0125717Y0141016D01*
X0125729Y0140978D01*
X0125737Y0140940D01*
X0125741Y0140901D01*
X0125741Y0140861D01*
X0125737Y0140822D01*
X0125729Y0140784D01*
X0125717Y0140746D01*
X0125702Y0140710D01*
X0125683Y0140676D01*
X0125661Y0140643D01*
X0125636Y0140613D01*
X0125608Y0140586D01*
X0125577Y0140561D01*
X0125544Y0140540D01*
X0125509Y0140522D01*
X0125472Y0140508D01*
X0125435Y0140497D01*
X0125396Y0140490D01*
X0125357Y0140487D01*
X0125318Y0140488D01*
X0125279Y0140493D01*
X0125240Y0140502D01*
X0125203Y0140514D01*
X0125167Y0140530D01*
X0125133Y0140550D01*
X0125101Y0140573D01*
X0125072Y0140599D01*
X0125045Y0140628D01*
X0125021Y0140659D01*
X0125001Y0140693D01*
X0124984Y0140728D01*
X0124971Y0140765D01*
X0124961Y0140803D01*
X0124955Y0140842D01*
X0124953Y0140881D01*
X0513597Y0144738D02*
X0513599Y0144777D01*
X0513605Y0144816D01*
X0513615Y0144854D01*
X0513628Y0144891D01*
X0513645Y0144926D01*
X0513665Y0144960D01*
X0513689Y0144991D01*
X0513716Y0145020D01*
X0513745Y0145046D01*
X0513777Y0145069D01*
X0513811Y0145089D01*
X0513847Y0145105D01*
X0513884Y0145117D01*
X0513923Y0145126D01*
X0513962Y0145131D01*
X0514001Y0145132D01*
X0514040Y0145129D01*
X0514079Y0145122D01*
X0514116Y0145111D01*
X0514153Y0145097D01*
X0514188Y0145079D01*
X0514221Y0145058D01*
X0514252Y0145033D01*
X0514280Y0145006D01*
X0514305Y0144976D01*
X0514327Y0144943D01*
X0514346Y0144909D01*
X0514361Y0144873D01*
X0514373Y0144835D01*
X0514381Y0144797D01*
X0514385Y0144758D01*
X0514385Y0144718D01*
X0514381Y0144679D01*
X0514373Y0144641D01*
X0514361Y0144603D01*
X0514346Y0144567D01*
X0514327Y0144533D01*
X0514305Y0144500D01*
X0514280Y0144470D01*
X0514252Y0144443D01*
X0514221Y0144418D01*
X0514188Y0144397D01*
X0514153Y0144379D01*
X0514116Y0144365D01*
X0514079Y0144354D01*
X0514040Y0144347D01*
X0514001Y0144344D01*
X0513962Y0144345D01*
X0513923Y0144350D01*
X0513884Y0144359D01*
X0513847Y0144371D01*
X0513811Y0144387D01*
X0513777Y0144407D01*
X0513745Y0144430D01*
X0513716Y0144456D01*
X0513689Y0144485D01*
X0513665Y0144516D01*
X0513645Y0144550D01*
X0513628Y0144585D01*
X0513615Y0144622D01*
X0513605Y0144660D01*
X0513599Y0144699D01*
X0513597Y0144738D01*
X0534953Y0125347D02*
X0534955Y0125386D01*
X0534961Y0125425D01*
X0534971Y0125463D01*
X0534984Y0125500D01*
X0535001Y0125535D01*
X0535021Y0125569D01*
X0535045Y0125600D01*
X0535072Y0125629D01*
X0535101Y0125655D01*
X0535133Y0125678D01*
X0535167Y0125698D01*
X0535203Y0125714D01*
X0535240Y0125726D01*
X0535279Y0125735D01*
X0535318Y0125740D01*
X0535357Y0125741D01*
X0535396Y0125738D01*
X0535435Y0125731D01*
X0535472Y0125720D01*
X0535509Y0125706D01*
X0535544Y0125688D01*
X0535577Y0125667D01*
X0535608Y0125642D01*
X0535636Y0125615D01*
X0535661Y0125585D01*
X0535683Y0125552D01*
X0535702Y0125518D01*
X0535717Y0125482D01*
X0535729Y0125444D01*
X0535737Y0125406D01*
X0535741Y0125367D01*
X0535741Y0125327D01*
X0535737Y0125288D01*
X0535729Y0125250D01*
X0535717Y0125212D01*
X0535702Y0125176D01*
X0535683Y0125142D01*
X0535661Y0125109D01*
X0535636Y0125079D01*
X0535608Y0125052D01*
X0535577Y0125027D01*
X0535544Y0125006D01*
X0535509Y0124988D01*
X0535472Y0124974D01*
X0535435Y0124963D01*
X0535396Y0124956D01*
X0535357Y0124953D01*
X0535318Y0124954D01*
X0535279Y0124959D01*
X0535240Y0124968D01*
X0535203Y0124980D01*
X0535167Y0124996D01*
X0535133Y0125016D01*
X0535101Y0125039D01*
X0535072Y0125065D01*
X0535045Y0125094D01*
X0535021Y0125125D01*
X0535001Y0125159D01*
X0534984Y0125194D01*
X0534971Y0125231D01*
X0534961Y0125269D01*
X0534955Y0125308D01*
X0534953Y0125347D01*
D16*
X0458724Y0322484D02*
X0453724Y0322484D01*
X0451224Y0324984D01*
X0451224Y0329984D01*
X0453724Y0332484D01*
X0451224Y0334984D01*
X0451224Y0339984D01*
X0453724Y0342484D01*
X0451224Y0344984D01*
X0451224Y0349984D01*
X0453724Y0352484D01*
X0451224Y0354984D01*
X0451224Y0359984D01*
X0453724Y0362484D01*
X0451224Y0364984D01*
X0451224Y0369984D01*
X0453724Y0372484D01*
X0451224Y0374984D01*
X0451224Y0379984D01*
X0453724Y0382484D01*
X0458724Y0382484D01*
X0461224Y0379984D01*
X0461224Y0374984D01*
X0458724Y0372484D01*
X0461224Y0369984D01*
X0461224Y0364984D01*
X0458724Y0362484D01*
X0461224Y0359984D01*
X0461224Y0354984D01*
X0458724Y0352484D01*
X0461224Y0349984D01*
X0461224Y0344984D01*
X0458724Y0342484D01*
X0461224Y0339984D01*
X0461224Y0334984D01*
X0458724Y0332484D01*
X0461224Y0329984D01*
X0461224Y0324984D01*
X0458724Y0322484D01*
X0380620Y0390881D02*
X0380620Y0395606D01*
X0375502Y0403086D02*
X0373140Y0403086D01*
X0368022Y0395606D02*
X0368022Y0390881D01*
X0373140Y0383401D02*
X0375502Y0383401D01*
X0355831Y0376697D02*
X0355831Y0375516D01*
X0354650Y0375516D01*
X0321579Y0375516D02*
X0320398Y0375516D01*
X0320398Y0376697D01*
X0320398Y0409768D02*
X0320398Y0410949D01*
X0321579Y0410949D01*
X0354650Y0410949D02*
X0355831Y0409768D01*
X0342614Y0445724D02*
X0342614Y0464724D01*
X0339614Y0462224D02*
X0338114Y0463724D01*
X0336614Y0462224D01*
X0338114Y0463724D02*
X0338114Y0460224D01*
X0333614Y0464724D02*
X0333614Y0445724D01*
X0265437Y0382110D02*
X0265437Y0377110D01*
X0262937Y0374610D01*
X0247937Y0374610D01*
X0245437Y0377110D01*
X0245437Y0382110D01*
X0247937Y0384610D01*
X0262937Y0384610D01*
X0265437Y0382110D01*
X0262937Y0374610D02*
X0265437Y0372110D01*
X0265437Y0367110D01*
X0262937Y0364610D01*
X0265437Y0362110D01*
X0265437Y0357110D01*
X0262937Y0354610D01*
X0247937Y0354610D01*
X0245437Y0357110D01*
X0245437Y0362110D01*
X0247937Y0364610D01*
X0262937Y0364610D01*
X0245437Y0367110D02*
X0245437Y0372110D01*
X0247937Y0374610D01*
X0225004Y0374984D02*
X0222504Y0372484D01*
X0225004Y0369984D01*
X0225004Y0364984D01*
X0222504Y0362484D01*
X0225004Y0359984D01*
X0225004Y0354984D01*
X0222504Y0352484D01*
X0225004Y0349984D01*
X0225004Y0344984D01*
X0222504Y0342484D01*
X0225004Y0339984D01*
X0225004Y0334984D01*
X0222504Y0332484D01*
X0225004Y0329984D01*
X0225004Y0324984D01*
X0222504Y0322484D01*
X0217504Y0322484D01*
X0215004Y0324984D01*
X0215004Y0329984D01*
X0217504Y0332484D01*
X0215004Y0334984D01*
X0215004Y0339984D01*
X0217504Y0342484D01*
X0215004Y0344984D01*
X0215004Y0349984D01*
X0217504Y0352484D01*
X0215004Y0354984D01*
X0215004Y0359984D01*
X0217504Y0362484D01*
X0215004Y0364984D01*
X0215004Y0369984D01*
X0217504Y0372484D01*
X0215004Y0374984D01*
X0215004Y0379984D01*
X0217504Y0382484D01*
X0222504Y0382484D01*
X0225004Y0379984D01*
X0225004Y0374984D01*
D17*
X0332209Y0345004D02*
X0332209Y0331224D01*
X0344020Y0331224D01*
X0344020Y0345004D01*
X0332209Y0345004D01*
X0339808Y0341500D02*
X0339810Y0341558D01*
X0339816Y0341615D01*
X0339826Y0341672D01*
X0339839Y0341728D01*
X0339857Y0341783D01*
X0339878Y0341837D01*
X0339903Y0341889D01*
X0339931Y0341940D01*
X0339963Y0341988D01*
X0339998Y0342034D01*
X0340036Y0342077D01*
X0340077Y0342118D01*
X0340120Y0342156D01*
X0340166Y0342191D01*
X0340214Y0342223D01*
X0340265Y0342251D01*
X0340317Y0342276D01*
X0340371Y0342297D01*
X0340426Y0342315D01*
X0340482Y0342328D01*
X0340539Y0342338D01*
X0340596Y0342344D01*
X0340654Y0342346D01*
X0340712Y0342344D01*
X0340769Y0342338D01*
X0340826Y0342328D01*
X0340882Y0342315D01*
X0340937Y0342297D01*
X0340991Y0342276D01*
X0341043Y0342251D01*
X0341094Y0342223D01*
X0341142Y0342191D01*
X0341188Y0342156D01*
X0341231Y0342118D01*
X0341272Y0342077D01*
X0341310Y0342034D01*
X0341345Y0341988D01*
X0341377Y0341940D01*
X0341405Y0341889D01*
X0341430Y0341837D01*
X0341451Y0341783D01*
X0341469Y0341728D01*
X0341482Y0341672D01*
X0341492Y0341615D01*
X0341498Y0341558D01*
X0341500Y0341500D01*
X0341498Y0341442D01*
X0341492Y0341385D01*
X0341482Y0341328D01*
X0341469Y0341272D01*
X0341451Y0341217D01*
X0341430Y0341163D01*
X0341405Y0341111D01*
X0341377Y0341060D01*
X0341345Y0341012D01*
X0341310Y0340966D01*
X0341272Y0340923D01*
X0341231Y0340882D01*
X0341188Y0340844D01*
X0341142Y0340809D01*
X0341094Y0340777D01*
X0341043Y0340749D01*
X0340991Y0340724D01*
X0340937Y0340703D01*
X0340882Y0340685D01*
X0340826Y0340672D01*
X0340769Y0340662D01*
X0340712Y0340656D01*
X0340654Y0340654D01*
X0340596Y0340656D01*
X0340539Y0340662D01*
X0340482Y0340672D01*
X0340426Y0340685D01*
X0340371Y0340703D01*
X0340317Y0340724D01*
X0340265Y0340749D01*
X0340214Y0340777D01*
X0340166Y0340809D01*
X0340120Y0340844D01*
X0340077Y0340882D01*
X0340036Y0340923D01*
X0339998Y0340966D01*
X0339963Y0341012D01*
X0339931Y0341060D01*
X0339903Y0341111D01*
X0339878Y0341163D01*
X0339857Y0341217D01*
X0339839Y0341272D01*
X0339826Y0341328D01*
X0339816Y0341385D01*
X0339810Y0341442D01*
X0339808Y0341500D01*
X0340575Y0267248D02*
X0335654Y0267248D01*
X0335654Y0259374D01*
X0340575Y0259374D01*
X0340575Y0267248D01*
X0351402Y0263311D02*
X0351402Y0255437D01*
X0356323Y0255437D01*
X0356323Y0263311D01*
X0351402Y0263311D01*
X0324827Y0263311D02*
X0324827Y0255437D01*
X0319906Y0255437D01*
X0319906Y0263311D01*
X0324827Y0263311D01*
D18*
X0318429Y0255831D02*
X0318431Y0255870D01*
X0318437Y0255909D01*
X0318447Y0255947D01*
X0318460Y0255984D01*
X0318477Y0256019D01*
X0318497Y0256053D01*
X0318521Y0256084D01*
X0318548Y0256113D01*
X0318577Y0256139D01*
X0318609Y0256162D01*
X0318643Y0256182D01*
X0318679Y0256198D01*
X0318716Y0256210D01*
X0318755Y0256219D01*
X0318794Y0256224D01*
X0318833Y0256225D01*
X0318872Y0256222D01*
X0318911Y0256215D01*
X0318948Y0256204D01*
X0318985Y0256190D01*
X0319020Y0256172D01*
X0319053Y0256151D01*
X0319084Y0256126D01*
X0319112Y0256099D01*
X0319137Y0256069D01*
X0319159Y0256036D01*
X0319178Y0256002D01*
X0319193Y0255966D01*
X0319205Y0255928D01*
X0319213Y0255890D01*
X0319217Y0255851D01*
X0319217Y0255811D01*
X0319213Y0255772D01*
X0319205Y0255734D01*
X0319193Y0255696D01*
X0319178Y0255660D01*
X0319159Y0255626D01*
X0319137Y0255593D01*
X0319112Y0255563D01*
X0319084Y0255536D01*
X0319053Y0255511D01*
X0319020Y0255490D01*
X0318985Y0255472D01*
X0318948Y0255458D01*
X0318911Y0255447D01*
X0318872Y0255440D01*
X0318833Y0255437D01*
X0318794Y0255438D01*
X0318755Y0255443D01*
X0318716Y0255452D01*
X0318679Y0255464D01*
X0318643Y0255480D01*
X0318609Y0255500D01*
X0318577Y0255523D01*
X0318548Y0255549D01*
X0318521Y0255578D01*
X0318497Y0255609D01*
X0318477Y0255643D01*
X0318460Y0255678D01*
X0318447Y0255715D01*
X0318437Y0255753D01*
X0318431Y0255792D01*
X0318429Y0255831D01*
X0334177Y0259768D02*
X0334179Y0259807D01*
X0334185Y0259846D01*
X0334195Y0259884D01*
X0334208Y0259921D01*
X0334225Y0259956D01*
X0334245Y0259990D01*
X0334269Y0260021D01*
X0334296Y0260050D01*
X0334325Y0260076D01*
X0334357Y0260099D01*
X0334391Y0260119D01*
X0334427Y0260135D01*
X0334464Y0260147D01*
X0334503Y0260156D01*
X0334542Y0260161D01*
X0334581Y0260162D01*
X0334620Y0260159D01*
X0334659Y0260152D01*
X0334696Y0260141D01*
X0334733Y0260127D01*
X0334768Y0260109D01*
X0334801Y0260088D01*
X0334832Y0260063D01*
X0334860Y0260036D01*
X0334885Y0260006D01*
X0334907Y0259973D01*
X0334926Y0259939D01*
X0334941Y0259903D01*
X0334953Y0259865D01*
X0334961Y0259827D01*
X0334965Y0259788D01*
X0334965Y0259748D01*
X0334961Y0259709D01*
X0334953Y0259671D01*
X0334941Y0259633D01*
X0334926Y0259597D01*
X0334907Y0259563D01*
X0334885Y0259530D01*
X0334860Y0259500D01*
X0334832Y0259473D01*
X0334801Y0259448D01*
X0334768Y0259427D01*
X0334733Y0259409D01*
X0334696Y0259395D01*
X0334659Y0259384D01*
X0334620Y0259377D01*
X0334581Y0259374D01*
X0334542Y0259375D01*
X0334503Y0259380D01*
X0334464Y0259389D01*
X0334427Y0259401D01*
X0334391Y0259417D01*
X0334357Y0259437D01*
X0334325Y0259460D01*
X0334296Y0259486D01*
X0334269Y0259515D01*
X0334245Y0259546D01*
X0334225Y0259580D01*
X0334208Y0259615D01*
X0334195Y0259652D01*
X0334185Y0259690D01*
X0334179Y0259729D01*
X0334177Y0259768D01*
X0349925Y0255831D02*
X0349927Y0255870D01*
X0349933Y0255909D01*
X0349943Y0255947D01*
X0349956Y0255984D01*
X0349973Y0256019D01*
X0349993Y0256053D01*
X0350017Y0256084D01*
X0350044Y0256113D01*
X0350073Y0256139D01*
X0350105Y0256162D01*
X0350139Y0256182D01*
X0350175Y0256198D01*
X0350212Y0256210D01*
X0350251Y0256219D01*
X0350290Y0256224D01*
X0350329Y0256225D01*
X0350368Y0256222D01*
X0350407Y0256215D01*
X0350444Y0256204D01*
X0350481Y0256190D01*
X0350516Y0256172D01*
X0350549Y0256151D01*
X0350580Y0256126D01*
X0350608Y0256099D01*
X0350633Y0256069D01*
X0350655Y0256036D01*
X0350674Y0256002D01*
X0350689Y0255966D01*
X0350701Y0255928D01*
X0350709Y0255890D01*
X0350713Y0255851D01*
X0350713Y0255811D01*
X0350709Y0255772D01*
X0350701Y0255734D01*
X0350689Y0255696D01*
X0350674Y0255660D01*
X0350655Y0255626D01*
X0350633Y0255593D01*
X0350608Y0255563D01*
X0350580Y0255536D01*
X0350549Y0255511D01*
X0350516Y0255490D01*
X0350481Y0255472D01*
X0350444Y0255458D01*
X0350407Y0255447D01*
X0350368Y0255440D01*
X0350329Y0255437D01*
X0350290Y0255438D01*
X0350251Y0255443D01*
X0350212Y0255452D01*
X0350175Y0255464D01*
X0350139Y0255480D01*
X0350105Y0255500D01*
X0350073Y0255523D01*
X0350044Y0255549D01*
X0350017Y0255578D01*
X0349993Y0255609D01*
X0349973Y0255643D01*
X0349956Y0255678D01*
X0349943Y0255715D01*
X0349933Y0255753D01*
X0349927Y0255792D01*
X0349925Y0255831D01*
D19*
X0351362Y0274551D02*
X0347092Y0278821D01*
X0346024Y0278821D01*
X0344957Y0277753D01*
X0344957Y0275618D01*
X0346024Y0274551D01*
X0341362Y0275618D02*
X0341362Y0277753D01*
X0340295Y0278821D01*
X0339227Y0278821D01*
X0338159Y0277753D01*
X0338159Y0276686D01*
X0338159Y0277753D02*
X0337092Y0278821D01*
X0336024Y0278821D01*
X0334957Y0277753D01*
X0334957Y0275618D01*
X0336024Y0274551D01*
X0340295Y0274551D02*
X0341362Y0275618D01*
X0351362Y0274551D02*
X0351362Y0278821D01*
X0354957Y0276686D02*
X0361362Y0276686D01*
X0361362Y0274551D02*
X0361362Y0278821D01*
X0357092Y0274551D02*
X0354957Y0276686D01*
X0331362Y0277753D02*
X0324957Y0277753D01*
X0328159Y0274551D01*
X0328159Y0278821D01*
X0321362Y0277753D02*
X0321362Y0275618D01*
X0320295Y0274551D01*
X0318159Y0274551D02*
X0317092Y0276686D01*
X0317092Y0277753D01*
X0318159Y0278821D01*
X0320295Y0278821D01*
X0321362Y0277753D01*
X0318159Y0274551D02*
X0314957Y0274551D01*
X0314957Y0278821D01*
X0268637Y0314418D02*
X0264367Y0318688D01*
X0263299Y0318688D01*
X0262232Y0317621D01*
X0262232Y0315486D01*
X0263299Y0314418D01*
X0258637Y0314418D02*
X0258637Y0318688D01*
X0258637Y0316553D02*
X0252232Y0316553D01*
X0254367Y0314418D01*
X0268637Y0314418D02*
X0268637Y0318688D01*
X0241350Y0294059D02*
X0241350Y0287681D01*
X0240980Y0287681D01*
X0237807Y0287681D02*
X0233697Y0287681D01*
X0230524Y0287681D02*
X0230154Y0287681D01*
X0230154Y0294059D01*
X0230524Y0294059D01*
X0233697Y0294059D02*
X0234067Y0294059D01*
X0237437Y0294059D02*
X0237807Y0294059D01*
X0240980Y0294059D02*
X0241350Y0294059D01*
X0241314Y0250184D02*
X0241314Y0245914D01*
X0241314Y0248049D02*
X0234909Y0248049D01*
X0237044Y0245914D01*
X0244909Y0246982D02*
X0245976Y0245914D01*
X0244909Y0246982D02*
X0244909Y0249117D01*
X0245976Y0250184D01*
X0247044Y0250184D01*
X0251314Y0245914D01*
X0251314Y0250184D01*
X0356746Y0415172D02*
X0360416Y0415172D01*
X0361150Y0415906D01*
X0361150Y0417374D01*
X0360416Y0418108D01*
X0356746Y0418108D01*
X0358214Y0419776D02*
X0356746Y0421244D01*
X0361150Y0421244D01*
X0361150Y0419776D02*
X0361150Y0422712D01*
X0424909Y0425536D02*
X0425976Y0424469D01*
X0424909Y0425536D02*
X0424909Y0427671D01*
X0425976Y0428739D01*
X0427044Y0428739D01*
X0431314Y0424469D01*
X0431314Y0428739D01*
X0434909Y0426604D02*
X0437044Y0424469D01*
X0434909Y0426604D02*
X0441314Y0426604D01*
X0441314Y0424469D02*
X0441314Y0428739D01*
X0278637Y0423920D02*
X0278637Y0421785D01*
X0277569Y0420717D01*
X0275434Y0422852D02*
X0275434Y0423920D01*
X0276502Y0424988D01*
X0277569Y0424988D01*
X0278637Y0423920D01*
X0275434Y0423920D02*
X0274367Y0424988D01*
X0273299Y0424988D01*
X0272232Y0423920D01*
X0272232Y0421785D01*
X0273299Y0420717D01*
X0268637Y0420717D02*
X0264367Y0424988D01*
X0263299Y0424988D01*
X0262232Y0423920D01*
X0262232Y0421785D01*
X0263299Y0420717D01*
X0258637Y0420717D02*
X0258637Y0424988D01*
X0258637Y0422852D02*
X0252232Y0422852D01*
X0254367Y0420717D01*
X0241314Y0424469D02*
X0241314Y0428739D01*
X0241314Y0426604D02*
X0234909Y0426604D01*
X0237044Y0424469D01*
X0231314Y0424469D02*
X0231314Y0428739D01*
X0231314Y0424469D02*
X0227044Y0428739D01*
X0225976Y0428739D01*
X0224909Y0427671D01*
X0224909Y0425536D01*
X0225976Y0424469D01*
X0268637Y0424988D02*
X0268637Y0420717D01*
X0434909Y0248049D02*
X0441314Y0248049D01*
X0441314Y0245914D02*
X0441314Y0250184D01*
X0444909Y0249117D02*
X0444909Y0246982D01*
X0445976Y0245914D01*
X0444909Y0249117D02*
X0445976Y0250184D01*
X0447044Y0250184D01*
X0451314Y0245914D01*
X0451314Y0250184D01*
X0437044Y0245914D02*
X0434909Y0248049D01*
D20*
X0439120Y0231270D02*
X0441222Y0231270D01*
X0440171Y0231270D02*
X0440171Y0226015D01*
X0439120Y0224964D01*
X0438070Y0224964D01*
X0437019Y0226015D01*
X0443464Y0226015D02*
X0444515Y0224964D01*
X0446617Y0224964D01*
X0447668Y0226015D01*
X0447668Y0227066D01*
X0446617Y0228117D01*
X0445566Y0228117D01*
X0446617Y0228117D02*
X0447668Y0229168D01*
X0447668Y0230219D01*
X0446617Y0231270D01*
X0444515Y0231270D01*
X0443464Y0230219D01*
X0342716Y0295046D02*
X0338512Y0295046D01*
X0342716Y0299250D01*
X0342716Y0300301D01*
X0341665Y0301351D01*
X0339563Y0301351D01*
X0338512Y0300301D01*
X0336270Y0301351D02*
X0334168Y0301351D01*
X0335219Y0301351D02*
X0335219Y0296097D01*
X0334168Y0295046D01*
X0333118Y0295046D01*
X0332067Y0296097D01*
X0264991Y0295570D02*
X0264991Y0294519D01*
X0263940Y0293468D01*
X0261838Y0293468D01*
X0260787Y0294519D01*
X0260787Y0295570D01*
X0261838Y0296621D01*
X0263940Y0296621D01*
X0264991Y0295570D01*
X0263940Y0296621D02*
X0264991Y0297672D01*
X0264991Y0298723D01*
X0263940Y0299773D01*
X0261838Y0299773D01*
X0260787Y0298723D01*
X0260787Y0297672D01*
X0261838Y0296621D01*
X0258545Y0299773D02*
X0256443Y0299773D01*
X0257494Y0299773D02*
X0257494Y0294519D01*
X0256443Y0293468D01*
X0255392Y0293468D01*
X0254342Y0294519D01*
X0246617Y0231270D02*
X0243464Y0228117D01*
X0247668Y0228117D01*
X0246617Y0224964D02*
X0246617Y0231270D01*
X0241222Y0231270D02*
X0239120Y0231270D01*
X0240171Y0231270D02*
X0240171Y0226015D01*
X0239120Y0224964D01*
X0238070Y0224964D01*
X0237019Y0226015D01*
X0260392Y0399767D02*
X0261443Y0399767D01*
X0262494Y0400818D01*
X0262494Y0406073D01*
X0261443Y0406073D02*
X0263545Y0406073D01*
X0265787Y0406073D02*
X0269991Y0406073D01*
X0269991Y0405022D01*
X0265787Y0400818D01*
X0265787Y0399767D01*
X0260392Y0399767D02*
X0259342Y0400818D01*
X0236617Y0444964D02*
X0237668Y0446015D01*
X0237668Y0447066D01*
X0236617Y0448117D01*
X0233464Y0448117D01*
X0233464Y0446015D01*
X0234515Y0444964D01*
X0236617Y0444964D01*
X0233464Y0448117D02*
X0235566Y0450219D01*
X0237668Y0451270D01*
X0231222Y0451270D02*
X0229120Y0451270D01*
X0230171Y0451270D02*
X0230171Y0446015D01*
X0229120Y0444964D01*
X0228070Y0444964D01*
X0227019Y0446015D01*
X0427019Y0446015D02*
X0428070Y0444964D01*
X0429120Y0444964D01*
X0430171Y0446015D01*
X0430171Y0451270D01*
X0429120Y0451270D02*
X0431222Y0451270D01*
X0433464Y0451270D02*
X0433464Y0448117D01*
X0435566Y0449168D01*
X0436617Y0449168D01*
X0437668Y0448117D01*
X0437668Y0446015D01*
X0436617Y0444964D01*
X0434515Y0444964D01*
X0433464Y0446015D01*
X0433464Y0451270D02*
X0437668Y0451270D01*
M02*
