G75*
%MOIN*%
%OFA0B0*%
%FSLAX25Y25*%
%IPPOS*%
%LPD*%
%AMOC8*
5,1,8,0,0,1.08239X$1,22.5*
%
%ADD10C,0.05937*%
%ADD11R,0.07400X0.07400*%
%ADD12OC8,0.07400*%
%ADD13C,0.07400*%
%ADD14R,0.05512X0.08268*%
%ADD15R,0.06496X0.06496*%
%ADD16C,0.06496*%
%ADD17C,0.05362*%
%ADD18C,0.00800*%
%ADD19C,0.04500*%
%ADD20C,0.03000*%
%ADD21C,0.00600*%
D10*
X0277646Y0338114D02*
X0283583Y0338114D01*
X0283583Y0348114D02*
X0277646Y0348114D01*
D11*
X0260437Y0359610D03*
D12*
X0250437Y0359610D03*
X0250437Y0369610D03*
X0260437Y0369610D03*
X0260437Y0379610D03*
X0250437Y0379610D03*
D13*
X0220004Y0377484D03*
X0220004Y0367484D03*
X0220004Y0357484D03*
X0220004Y0347484D03*
X0220004Y0337484D03*
X0220004Y0327484D03*
X0456224Y0327484D03*
X0456224Y0337484D03*
X0456224Y0347484D03*
X0456224Y0357484D03*
X0456224Y0367484D03*
X0456224Y0377484D03*
D14*
X0406028Y0296972D03*
X0388311Y0296972D03*
X0388311Y0261146D03*
X0406028Y0261146D03*
X0287917Y0261146D03*
X0270201Y0261146D03*
X0270201Y0296972D03*
X0287917Y0296972D03*
D15*
X0255437Y0306618D03*
X0238114Y0238114D03*
X0358162Y0288196D03*
X0438114Y0238114D03*
X0255437Y0412917D03*
X0238114Y0438114D03*
X0438114Y0438114D03*
D16*
X0428114Y0438114D03*
X0348162Y0288196D03*
X0338162Y0288196D03*
X0328162Y0288196D03*
X0318162Y0288196D03*
X0265437Y0306618D03*
X0248114Y0238114D03*
X0265437Y0412917D03*
X0275437Y0412917D03*
X0228114Y0438114D03*
X0448114Y0238114D03*
D17*
X0122614Y0132114D03*
X0288214Y0278614D03*
X0234752Y0321866D03*
X0228614Y0308614D03*
X0347957Y0420791D03*
X0368214Y0425814D03*
X0385814Y0436114D03*
X0388314Y0279214D03*
X0553614Y0544114D03*
X0132114Y0553614D03*
D18*
X0265437Y0412917D02*
X0265314Y0412664D01*
X0265314Y0403914D01*
X0258664Y0397264D01*
X0255514Y0397264D01*
X0252714Y0394464D01*
X0252714Y0390264D01*
X0254814Y0388164D01*
X0254814Y0383964D01*
X0250614Y0379764D01*
X0250437Y0379610D01*
X0257614Y0382564D02*
X0260414Y0379764D01*
X0260437Y0379610D01*
X0257614Y0382564D02*
X0257614Y0392364D01*
X0257964Y0392364D01*
X0265664Y0400064D01*
X0311864Y0400064D01*
X0311864Y0414364D01*
X0312524Y0416854D01*
X0306114Y0389814D02*
X0296114Y0389814D01*
X0296064Y0384214D02*
X0308464Y0384214D01*
X0328214Y0364464D01*
X0328214Y0354364D01*
X0324914Y0351064D01*
X0324914Y0297452D01*
X0332410Y0289956D01*
X0332410Y0287818D01*
X0337064Y0283164D01*
X0353164Y0283164D01*
X0358064Y0288064D01*
X0358162Y0288196D01*
X0362764Y0281764D02*
X0370264Y0289264D01*
X0370264Y0362864D01*
X0371014Y0363614D01*
X0369718Y0366914D02*
X0378310Y0366914D01*
X0380214Y0365010D01*
X0380214Y0334677D01*
X0407614Y0307277D01*
X0407614Y0307114D01*
X0448114Y0266614D01*
X0448114Y0238114D01*
X0406028Y0261146D02*
X0406014Y0261464D01*
X0406014Y0296814D01*
X0406028Y0296972D01*
X0406014Y0297164D01*
X0406014Y0306614D01*
X0375214Y0337414D01*
X0375114Y0337614D01*
X0371864Y0338960D02*
X0371864Y0310964D01*
X0380414Y0302414D01*
X0387814Y0302414D01*
X0388164Y0302064D01*
X0388164Y0297164D01*
X0388311Y0296972D01*
X0388314Y0296914D01*
X0388314Y0279214D01*
X0388314Y0261149D01*
X0388311Y0261146D01*
X0368114Y0280014D02*
X0297314Y0280014D01*
X0295114Y0277814D01*
X0288214Y0278614D02*
X0288214Y0281764D01*
X0362764Y0281764D01*
X0368014Y0279914D02*
X0368114Y0280014D01*
X0349314Y0299264D02*
X0349314Y0348430D01*
X0348861Y0348883D01*
X0347045Y0348883D01*
X0341714Y0354214D01*
X0306114Y0389814D01*
X0335264Y0365964D02*
X0335768Y0365964D01*
X0342668Y0359064D01*
X0361868Y0359064D01*
X0369718Y0366914D01*
X0366555Y0366014D02*
X0372248Y0371707D01*
X0387484Y0371707D01*
X0390211Y0368980D01*
X0390211Y0366714D01*
X0390314Y0366414D01*
X0390314Y0343514D01*
X0376964Y0344060D02*
X0371864Y0338960D01*
X0376964Y0344060D02*
X0376964Y0363664D01*
X0366555Y0366014D02*
X0359914Y0366014D01*
X0359914Y0372114D02*
X0364114Y0372114D01*
X0400414Y0408414D01*
X0385814Y0436114D02*
X0368814Y0426414D01*
X0368214Y0425814D01*
X0364014Y0388714D02*
X0364014Y0382314D01*
X0344014Y0362314D01*
X0320214Y0335014D02*
X0311414Y0335014D01*
X0349314Y0299264D02*
X0338464Y0288414D01*
X0338162Y0288196D01*
X0288214Y0281764D02*
X0288214Y0296676D01*
X0287917Y0296972D01*
X0288214Y0278614D02*
X0288214Y0264214D01*
X0287914Y0263914D01*
X0287914Y0261214D01*
X0287917Y0261146D01*
X0270214Y0261464D02*
X0270201Y0261146D01*
X0270214Y0261464D02*
X0270214Y0269164D01*
X0260414Y0278964D01*
X0260414Y0281764D01*
X0270214Y0291564D01*
X0270214Y0296814D01*
X0270201Y0296972D01*
D19*
X0279414Y0295464D03*
X0295114Y0277814D03*
X0260414Y0278964D03*
X0235614Y0315114D03*
X0296064Y0384214D03*
X0296114Y0389814D03*
X0316514Y0369814D03*
X0328272Y0383390D03*
X0338114Y0383390D03*
X0347957Y0383390D03*
X0347957Y0393232D03*
X0347957Y0403075D03*
X0338114Y0403075D03*
X0338114Y0393232D03*
X0328272Y0393232D03*
X0328272Y0403075D03*
X0312524Y0416854D03*
X0312524Y0424728D03*
X0312524Y0432602D03*
X0318429Y0440476D03*
X0326303Y0440476D03*
X0349925Y0440476D03*
X0357799Y0440476D03*
X0357799Y0432602D03*
X0347957Y0428665D03*
X0365014Y0410114D03*
X0364314Y0399214D03*
X0364014Y0388714D03*
X0359914Y0372114D03*
X0359914Y0366014D03*
X0371014Y0363614D03*
X0376964Y0363664D03*
X0387214Y0376814D03*
X0390314Y0343514D03*
X0375114Y0337614D03*
X0408914Y0322114D03*
X0368114Y0280014D03*
X0320214Y0335014D03*
X0311414Y0335014D03*
X0328214Y0354364D03*
X0341714Y0354214D03*
X0344014Y0362314D03*
X0335264Y0365964D03*
X0292914Y0413814D03*
X0257614Y0392364D03*
X0190614Y0485114D03*
X0386814Y0411214D03*
X0400414Y0408414D03*
X0421764Y0447314D03*
X0447114Y0395864D03*
X0483114Y0486614D03*
X0485614Y0190614D03*
X0544114Y0122614D03*
X0192614Y0188614D03*
D20*
X0235614Y0315114D02*
X0248114Y0315114D01*
X0270614Y0338114D01*
X0280614Y0338114D01*
X0223941Y0326303D02*
X0220004Y0326303D01*
X0220004Y0327484D01*
D21*
X0311864Y0414364D02*
X0428739Y0414364D01*
X0446864Y0396239D01*
X0447114Y0395864D01*
M02*
