%
M48
M72
T01C0.01500
T02C0.02362
T03C0.03937
T04C0.04000
T05C0.04331
T06C0.05512
T07C0.09843
%
T01
X192614Y188614
X260414Y278964
X279414Y295464
X295114Y277814
X311414Y335014
X320214Y335014
X328214Y354364
X341714Y354214
X344014Y362314
X335264Y365964
X338114Y383390
X347957Y383390
X347957Y393232
X347957Y403075
X338114Y403075
X338114Y393232
X328272Y393232
X328272Y403075
X312524Y416854
X312524Y424728
X312524Y432602
X318429Y440476
X326303Y440476
X349925Y440476
X357799Y440476
X357799Y432602
X347957Y428665
X365014Y410114
X364314Y399214
X364014Y388714
X359914Y372114
X359914Y366014
X371014Y363614
X376964Y363664
X387214Y376814
X390314Y343514
X375114Y337614
X408914Y322114
X368114Y280014
X316514Y369814
X328272Y383390
X296064Y384214
X296114Y389814
X292914Y413814
X257614Y392364
X235614Y315114
X386814Y411214
X400414Y408414
X421764Y447314
X447114Y395864
X483114Y486614
X190614Y485114
X485614Y190614
X544114Y122614
T02
X122614Y132114
X288214Y278614
X234752Y321866
X228614Y308614
X347957Y420791
X368214Y425814
X385814Y436114
X388314Y279214
X553614Y544114
X132114Y553614
T03
X280614Y348114
X280614Y338114
T04
X260437Y359610
X250437Y359610
X250437Y369610
X260437Y369610
X260437Y379610
X250437Y379610
X220004Y377484
X220004Y367484
X220004Y357484
X220004Y347484
X220004Y337484
X220004Y327484
X456224Y327484
X456224Y337484
X456224Y347484
X456224Y357484
X456224Y367484
X456224Y377484
T05
X438114Y438114
X428114Y438114
X358162Y288196
X348162Y288196
X338162Y288196
X328162Y288196
X318162Y288196
X265437Y306618
X255437Y306618
X248114Y238114
X238114Y238114
X255437Y412917
X265437Y412917
X275437Y412917
X238114Y438114
X228114Y438114
X438114Y238114
X448114Y238114
T06
X385555Y309177
X385555Y367051
X290673Y367051
X290673Y309177
T07
X251500Y330240
X251500Y345988
X424728Y345988
X424728Y330240
M30
